<svg id="レイヤー_1" data-name="レイヤー 1" xmlns="http://www.w3.org/2000/svg" xmlns:xlink="http://www.w3.org/1999/xlink" viewBox="0 0 1097.51 454.83"><defs><linearGradient id="linear-gradient" x1="106.59" y1="114.29" x2="101.74" y2="332.37" gradientUnits="userSpaceOnUse"><stop offset="0" stop-color="#0540af"/><stop offset="1" stop-color="#000450"/></linearGradient><linearGradient id="linear-gradient-2" x1="309.88" y1="118.81" x2="305.03" y2="336.89" xlink:href="#linear-gradient"/><linearGradient id="linear-gradient-3" x1="518.28" y1="123.44" x2="513.44" y2="341.52" xlink:href="#linear-gradient"/><linearGradient id="linear-gradient-4" x1="717.5" y1="127.87" x2="712.65" y2="345.95" xlink:href="#linear-gradient"/><linearGradient id="linear-gradient-5" x1="917.98" y1="132.32" x2="913.13" y2="350.4" xlink:href="#linear-gradient"/><linearGradient id="linear-gradient-6" x1="1075.28" y1="135.82" x2="1070.43" y2="353.9" xlink:href="#linear-gradient"/><linearGradient id="linear-gradient-7" x1="66.04" y1="386.82" x2="66.04" y2="508.42" xlink:href="#linear-gradient"/><linearGradient id="linear-gradient-8" x1="194.68" y1="386.82" x2="194.68" y2="508.42" xlink:href="#linear-gradient"/><linearGradient id="linear-gradient-9" x1="275.55" y1="386.82" x2="275.55" y2="508.42" xlink:href="#linear-gradient"/><linearGradient id="linear-gradient-10" x1="367.59" y1="386.82" x2="367.59" y2="508.42" xlink:href="#linear-gradient"/><linearGradient id="linear-gradient-11" x1="476.11" y1="386.82" x2="476.11" y2="508.42" xlink:href="#linear-gradient"/><linearGradient id="linear-gradient-12" x1="583.04" y1="386.82" x2="583.04" y2="508.42" xlink:href="#linear-gradient"/><linearGradient id="linear-gradient-13" x1="712.45" y1="386.82" x2="712.45" y2="508.42" xlink:href="#linear-gradient"/><linearGradient id="linear-gradient-14" x1="811.97" y1="386.82" x2="811.97" y2="508.42" xlink:href="#linear-gradient"/><linearGradient id="linear-gradient-15" x1="918.76" y1="386.82" x2="918.76" y2="508.42" xlink:href="#linear-gradient"/><linearGradient id="linear-gradient-16" x1="1035.97" y1="386.82" x2="1035.97" y2="508.42" xlink:href="#linear-gradient"/></defs><line x1="849.53" y1="34.75" x2="1097.51" y2="34.75" style="fill:#2c427f;stroke:#2c427f;stroke-miterlimit:10;stroke-width:0.357214991069825px"/><line y1="34.75" x2="245.66" y2="34.75" style="fill:#2c427f;stroke:#2c427f;stroke-miterlimit:10;stroke-width:0.357214991069825px"/><path d="M294.36,9.83l13.3,40.67h.13L323.41,9.83h8.52l-1.41,47.29h-5.88l2.13-41.4h-.13l-16.2,41.4h-5.87l-13.3-41.4h-.13l-.77,41.4h-5.88l1.35-47.29Z" transform="translate(-0.49 -9.83)" style="fill:#1f2a66"/><path d="M367.21,22.88l-.32,5.1.15.13a12.23,12.23,0,0,1,4.35-4.4,11.82,11.82,0,0,1,6.21-1.63,11.52,11.52,0,0,1,5.66,1.39,8.87,8.87,0,0,1,3.82,4.77,11.22,11.22,0,0,1,4.21-4.47,11.58,11.58,0,0,1,6.12-1.69,15,15,0,0,1,3.5.43,11.58,11.58,0,0,1,3.24,1.33,8.37,8.37,0,0,1,2.51,2.35,8.54,8.54,0,0,1,1.4,3.58,20.65,20.65,0,0,1,.29,3.44c0,1.28,0,2.41-.05,3.38l-.58,20.53h-5.48l.81-21.72a18.75,18.75,0,0,0,0-1.89,15.38,15.38,0,0,0-.16-1.82,5.35,5.35,0,0,0-2-3.32A6.12,6.12,0,0,0,397,27.05a6.69,6.69,0,0,0-2.29.4,10,10,0,0,0-2.11,1A9.51,9.51,0,0,0,390.8,30a9.63,9.63,0,0,0-1.36,1.79,8,8,0,0,0-1.39,3.51,39,39,0,0,0-.36,4.18l-.56,17.68h-5.49l.56-19.54c.07-1.32.1-2.56.09-3.71a17.2,17.2,0,0,0-.12-2.32,5.11,5.11,0,0,0-5.44-4.5,7.55,7.55,0,0,0-4.25,1.32,11.62,11.62,0,0,0-3.18,3.05,7.7,7.7,0,0,0-1.77,3.48,26.76,26.76,0,0,0-.41,4.27l-.58,17.95h-5.42l1-34.24Z" transform="translate(-0.49 -9.83)" style="fill:#1f2a66"/><path d="M418,28.27a9.63,9.63,0,0,1,2.65-3.47,11.07,11.07,0,0,1,4-2.06,18.22,18.22,0,0,1,5-.66,26.76,26.76,0,0,1,4.72.4,13.62,13.62,0,0,1,4.12,1.39,9.88,9.88,0,0,1,3.15,2.68,9.67,9.67,0,0,1,1.75,4.28,15.09,15.09,0,0,1,.2,3.14c0,1.13-.08,2.15-.13,3.08L443,46.39c0,.71,0,1.5-.12,2.38a9.13,9.13,0,0,0,.08,2.52,2.77,2.77,0,0,0,.75,1.66,1.82,1.82,0,0,0,1.24.46,2.44,2.44,0,0,0,.84-.16l.82-.3-.1,4.17a9.61,9.61,0,0,1-1.56.5,7.52,7.52,0,0,1-1.67.23,5.2,5.2,0,0,1-3.64-1.26,5,5,0,0,1-1.53-3.51L438,53a9,9,0,0,1-3.68,3.64,14.24,14.24,0,0,1-6.62,1.26,16.3,16.3,0,0,1-4.06-.5,10,10,0,0,1-3.49-1.65,10.73,10.73,0,0,1-2.68-3,12.66,12.66,0,0,1-1.6-4.48c-.44-2.51-.26-4.48.54-5.89a7.83,7.83,0,0,1,3.47-3.21A17,17,0,0,1,425,37.65q2.89-.4,5.63-.67c1.44-.13,2.67-.27,3.7-.43a7.05,7.05,0,0,0,2.48-.76,2.57,2.57,0,0,0,1.25-1.52,6,6,0,0,0,0-2.72,4.36,4.36,0,0,0-1-2.25,6,6,0,0,0-1.85-1.36,8.58,8.58,0,0,0-2.29-.69,14.85,14.85,0,0,0-2.32-.2,13.55,13.55,0,0,0-3,.33A7.27,7.27,0,0,0,425,28.47a5.58,5.58,0,0,0-1.73,1.92,5.65,5.65,0,0,0-.6,2.82h-5.49A10.93,10.93,0,0,1,418,28.27Zm5.69,23.49A8.63,8.63,0,0,0,428.1,53q6.51,0,8.56-4.51a9.59,9.59,0,0,0,1.11-4.17c.05-1.5.14-3.05.24-4.64h-.13a6,6,0,0,1-2.72,1.23,34.18,34.18,0,0,1-3.67.56c-1.31.14-2.63.3-3.95.5a13.75,13.75,0,0,0-3.48,1,5.18,5.18,0,0,0-2.31,1.89,4.78,4.78,0,0,0-.5,3.41A5,5,0,0,0,423.72,51.76Z" transform="translate(-0.49 -9.83)" style="fill:#1f2a66"/><path d="M458.88,22.88l-.32,7.35h.13a14.54,14.54,0,0,1,3.91-5.83,9.83,9.83,0,0,1,6.79-2.32,7.27,7.27,0,0,0,1-.06,2.39,2.39,0,0,1,1,.06l-.23,6a4.19,4.19,0,0,0-.85-.07h-.78c-.69,0-1.24,0-1.67,0a7.28,7.28,0,0,0-1.56.29,8.48,8.48,0,0,0-3.67,2.06,11.07,11.07,0,0,0-2.45,3.51,11.79,11.79,0,0,0-1.06,3.87q-.26,2.22-.3,4.14l-.49,15.17h-5.42l.86-34.24Z" transform="translate(-0.49 -9.83)" style="fill:#1f2a66"/><path d="M482.72,9.83l-.84,27.82.15.13,14.16-14.9h7.17l-12.3,12.65,12.07,21.59H497l-9.73-18.21-5.52,6-.37,12.19H476L477.3,9.83Z" transform="translate(-0.49 -9.83)" style="fill:#1f2a66"/><path d="M512.81,44.67a9.8,9.8,0,0,0,1.34,3.54,9.1,9.1,0,0,0,2.39,2.58,11.15,11.15,0,0,0,3.06,1.59,10.08,10.08,0,0,0,3.32.57,9,9,0,0,0,5.77-1.69,7.87,7.87,0,0,0,2.7-4.87h5.48a12.82,12.82,0,0,1-1.18,5A10.34,10.34,0,0,1,532.9,55a12.24,12.24,0,0,1-4.08,2.15,16.57,16.57,0,0,1-5,.73,17.73,17.73,0,0,1-7.1-1.29,15,15,0,0,1-8-7.75,20.71,20.71,0,0,1-1.47-4.67,26.8,26.8,0,0,1-.19-9,18.59,18.59,0,0,1,2.51-7,13,13,0,0,1,4.69-4.51,12.66,12.66,0,0,1,6.28-1.59q7.35,0,11.44,4t5.37,11.19a16.28,16.28,0,0,1,.25,2.52c0,.79,0,1.43,0,1.92H512.48A22.44,22.44,0,0,0,512.81,44.67ZM530.9,33.18a10.58,10.58,0,0,0-1.84-3.12,8.71,8.71,0,0,0-6.83-3,10.44,10.44,0,0,0-4.16.76,8.36,8.36,0,0,0-3,2.09A9.48,9.48,0,0,0,513.27,33a15.6,15.6,0,0,0-.89,3.74h19.37A14.49,14.49,0,0,0,530.9,33.18Z" transform="translate(-0.49 -9.83)" style="fill:#1f2a66"/><path d="M560,22.88l-.15,5h-6.65L552.65,48c0,.4,0,.77.06,1.13a9.78,9.78,0,0,0,.14,1.12,2.26,2.26,0,0,0,1.32,1.82,5.7,5.7,0,0,0,2.38.5,6.66,6.66,0,0,0,1.58-.17,11.32,11.32,0,0,0,1.48-.43l-.06,5.17c-.63.09-1.26.17-1.9.23a17.33,17.33,0,0,1-1.91.1,18.48,18.48,0,0,1-3-.23,7.46,7.46,0,0,1-2.51-.86,6.15,6.15,0,0,1-1.91-1.69A6.23,6.23,0,0,1,547.28,52a8.67,8.67,0,0,1-.15-1.39c0-.44,0-.92,0-1.45l.64-21.27h-5.62l.16-5h5.62l.27-10.14h5.49l-.28,10.14Z" transform="translate(-0.49 -9.83)" style="fill:#1f2a66"/><path d="M573.2,22.88l-.93,34.24h-5.43l.87-34.24Zm-5.35-6.16.21-6.89h5.55l-.2,6.89Z" transform="translate(-0.49 -9.83)" style="fill:#1f2a66"/><path d="M589,22.88,588.89,28H589a10.2,10.2,0,0,1,4.44-4.47,13.8,13.8,0,0,1,6.39-1.49,11.59,11.59,0,0,1,7.38,2.12c1.77,1.42,2.93,3.64,3.47,6.69a22.1,22.1,0,0,1,.25,2.92c0,1.19,0,2.45,0,3.77l-.62,19.54H604.8l.73-20c0-.36,0-.76,0-1.23V34.44c0-.51,0-1,0-1.46a8.17,8.17,0,0,0-.11-1.16,5,5,0,0,0-2.31-3.61,8.14,8.14,0,0,0-4.34-1.16,8.76,8.76,0,0,0-4.29,1.13A10,10,0,0,0,591.16,31a7.5,7.5,0,0,0-1.76,3.22,22.5,22.5,0,0,0-.66,3.94l-.53,18.94h-5.42l.93-34.24Z" transform="translate(-0.49 -9.83)" style="fill:#1f2a66"/><path d="M649,57.22a33.85,33.85,0,0,1-.61,4.21c-.82,3.44-2.36,5.89-4.65,7.35A16.24,16.24,0,0,1,634.87,71a21.71,21.71,0,0,1-5-.59,15.2,15.2,0,0,1-4.49-1.86,12.45,12.45,0,0,1-3.52-3.28,12.08,12.08,0,0,1-2.05-4.86h5.42a6.79,6.79,0,0,0,1.37,2.81,7,7,0,0,0,2.17,1.72,9,9,0,0,0,2.77.86,19.75,19.75,0,0,0,3.07.24,9,9,0,0,0,5-1.2,7.78,7.78,0,0,0,2.78-3.11,13.62,13.62,0,0,0,1.25-4.4c.2-1.66.37-3.33.51-5l-.15-.14a8,8,0,0,1-3.82,4,13.1,13.1,0,0,1-5.67,1.19,14.78,14.78,0,0,1-5.63-1,13,13,0,0,1-4.42-2.91,16.69,16.69,0,0,1-3.14-4.47,21.15,21.15,0,0,1-1.82-5.7,23.91,23.91,0,0,1-.13-7.55,19.06,19.06,0,0,1,2.22-6.79,13.91,13.91,0,0,1,4.59-4.9,12.45,12.45,0,0,1,7-1.89,13.77,13.77,0,0,1,3.67.5A15.17,15.17,0,0,1,640.17,24,11.58,11.58,0,0,1,643,26.16a9.55,9.55,0,0,1,1.9,2.88l0,.13h.13L645,22.88h5.17l-.85,29.27Q649.2,54.81,649,57.22Zm-22.89-10.5a11,11,0,0,0,2,2.92,9.38,9.38,0,0,0,2.9,2,9.14,9.14,0,0,0,3.75.76,8,8,0,0,0,5.11-1.59,10.3,10.3,0,0,0,3.07-4,16.79,16.79,0,0,0,1.28-5.33A21,21,0,0,0,644,36a11.48,11.48,0,0,0-3.24-6.49,9.46,9.46,0,0,0-6.86-2.45,7,7,0,0,0-4.8,1.66,11.38,11.38,0,0,0-3,4.07A17.19,17.19,0,0,0,624.8,38a18.94,18.94,0,0,0,.14,5.2A13.13,13.13,0,0,0,626.08,46.72Z" transform="translate(-0.49 -9.83)" style="fill:#1f2a66"/><path d="M703,57.12l.3-4.9h-.13a10.26,10.26,0,0,1-4.28,4.47,13.21,13.21,0,0,1-5.76,1.16,15.75,15.75,0,0,1-5.8-1A14.51,14.51,0,0,1,682.68,54a14.91,14.91,0,0,1-3.3-4.4,20.49,20.49,0,0,1-1.84-5.7,24.19,24.19,0,0,1-.12-7.78,19.57,19.57,0,0,1,2.39-7A14.49,14.49,0,0,1,684.72,24a13.76,13.76,0,0,1,7.5-2,18.12,18.12,0,0,1,3.22.3,14.42,14.42,0,0,1,3.24,1,11.27,11.27,0,0,1,2.88,1.86,9.06,9.06,0,0,1,2.12,2.88h.13l.32-18.28h5.43l-1.41,47.29ZM686.23,50.5a9.48,9.48,0,0,0,7,2.45,8.35,8.35,0,0,0,5.26-1.66,11.25,11.25,0,0,0,3.36-4.17,17.09,17.09,0,0,0,1.55-5.53,20,20,0,0,0-.13-5.66A11.28,11.28,0,0,0,700,29.57a10.21,10.21,0,0,0-12.14-1,10.88,10.88,0,0,0-3.42,4A15.34,15.34,0,0,0,682.84,38a20.61,20.61,0,0,0,.19,5.83A12,12,0,0,0,686.23,50.5Z" transform="translate(-0.49 -9.83)" style="fill:#1f2a66"/><path d="M718.72,28.27a9.49,9.49,0,0,1,2.64-3.47,11.07,11.07,0,0,1,4-2.06,18.27,18.27,0,0,1,5-.66,26.76,26.76,0,0,1,4.72.4,13.62,13.62,0,0,1,4.12,1.39,9.3,9.3,0,0,1,4.91,7,15.11,15.11,0,0,1,.19,3.14c0,1.13-.08,2.15-.13,3.08l-.48,9.34c0,.71-.05,1.5-.13,2.38a9.52,9.52,0,0,0,.09,2.52A2.77,2.77,0,0,0,744.4,53a1.83,1.83,0,0,0,1.24.46,2.53,2.53,0,0,0,.85-.16l.82-.3-.11,4.17a9.61,9.61,0,0,1-1.56.5,7.45,7.45,0,0,1-1.67.23,5.2,5.2,0,0,1-3.64-1.26,4.94,4.94,0,0,1-1.52-3.51l-.15-.13A9,9,0,0,1,735,56.59a14.24,14.24,0,0,1-6.62,1.26,16.3,16.3,0,0,1-4.06-.5,10,10,0,0,1-3.48-1.65,10.76,10.76,0,0,1-2.69-3,12.85,12.85,0,0,1-1.6-4.48c-.44-2.51-.26-4.48.55-5.89a7.8,7.8,0,0,1,3.46-3.21,17,17,0,0,1,5.16-1.49c1.94-.27,3.81-.49,5.63-.67,1.44-.13,2.68-.27,3.7-.43a7,7,0,0,0,2.48-.76,2.57,2.57,0,0,0,1.25-1.52,6,6,0,0,0,0-2.72,4.37,4.37,0,0,0-1-2.25,6,6,0,0,0-1.85-1.36,8.51,8.51,0,0,0-2.28-.69,15,15,0,0,0-2.33-.2,13.61,13.61,0,0,0-3,.33,7.35,7.35,0,0,0-2.55,1.09,5.28,5.28,0,0,0-2.33,4.74h-5.48A10.66,10.66,0,0,1,718.72,28.27Zm5.69,23.49A8.57,8.57,0,0,0,728.78,53q6.51,0,8.56-4.51a9.59,9.59,0,0,0,1.11-4.17c.06-1.5.14-3.05.25-4.64h-.13a6,6,0,0,1-2.72,1.23,34.38,34.38,0,0,1-3.68.56c-1.31.14-2.63.3-3.95.5a13.75,13.75,0,0,0-3.48,1,5.23,5.23,0,0,0-2.31,1.89,4.83,4.83,0,0,0-.5,3.41A5,5,0,0,0,724.41,51.76Z" transform="translate(-0.49 -9.83)" style="fill:#1f2a66"/><path d="M768.66,22.88l-.15,5h-6.65L761.28,48c0,.4.05.77.07,1.13a9.65,9.65,0,0,0,.13,1.12,2.3,2.3,0,0,0,1.32,1.82,5.7,5.7,0,0,0,2.38.5,6.8,6.8,0,0,0,1.59-.17,11.65,11.65,0,0,0,1.47-.43l-.06,5.17c-.63.09-1.26.17-1.89.23a17.64,17.64,0,0,1-1.92.1,18.48,18.48,0,0,1-3-.23,7.46,7.46,0,0,1-2.51-.86A6.26,6.26,0,0,1,757,54.67,6.35,6.35,0,0,1,755.91,52a10,10,0,0,1-.15-1.39c0-.44,0-.92,0-1.45l.64-21.27h-5.61l.15-5h5.62l.28-10.14h5.48L762,22.88Z" transform="translate(-0.49 -9.83)" style="fill:#1f2a66"/><path d="M775.78,28.27a9.63,9.63,0,0,1,2.65-3.47,11,11,0,0,1,4-2.06,18.29,18.29,0,0,1,5-.66,26.92,26.92,0,0,1,4.72.4,13.47,13.47,0,0,1,4.11,1.39,9.81,9.81,0,0,1,3.16,2.68,9.67,9.67,0,0,1,1.75,4.28,15.09,15.09,0,0,1,.2,3.14c0,1.13-.08,2.15-.14,3.08l-.48,9.34c0,.71,0,1.5-.13,2.38a9.52,9.52,0,0,0,.09,2.52,2.83,2.83,0,0,0,.74,1.66,1.86,1.86,0,0,0,1.25.46,2.44,2.44,0,0,0,.84-.16l.82-.3-.1,4.17a9.61,9.61,0,0,1-1.56.5,7.52,7.52,0,0,1-1.67.23,5.18,5.18,0,0,1-3.64-1.26,4.91,4.91,0,0,1-1.53-3.51l-.15-.13A9,9,0,0,1,792,56.59a14.27,14.27,0,0,1-6.62,1.26,16.24,16.24,0,0,1-4.06-.5,9.94,9.94,0,0,1-3.49-1.65,10.92,10.92,0,0,1-2.69-3,12.65,12.65,0,0,1-1.59-4.48c-.45-2.51-.26-4.48.54-5.89a7.83,7.83,0,0,1,3.47-3.21,17,17,0,0,1,5.16-1.49q2.9-.4,5.63-.67c1.44-.13,2.67-.27,3.7-.43a7.12,7.12,0,0,0,2.48-.76,2.61,2.61,0,0,0,1.25-1.52,6.13,6.13,0,0,0,0-2.72,4.36,4.36,0,0,0-1-2.25,6,6,0,0,0-1.86-1.36,8.4,8.4,0,0,0-2.28-.69,15,15,0,0,0-2.33-.2,13.52,13.52,0,0,0-3,.33,7.32,7.32,0,0,0-2.56,1.09A5.65,5.65,0,0,0,781,30.39a5.44,5.44,0,0,0-.6,2.82h-5.49A10.66,10.66,0,0,1,775.78,28.27Zm5.69,23.49A8.6,8.6,0,0,0,785.84,53q6.52,0,8.57-4.51a9.44,9.44,0,0,0,1.1-4.17c.06-1.5.14-3.05.25-4.64h-.13a6,6,0,0,1-2.72,1.23,34.38,34.38,0,0,1-3.68.56c-1.31.14-2.62.3-3.94.5a13.75,13.75,0,0,0-3.48,1,5.18,5.18,0,0,0-2.31,1.89,4.73,4.73,0,0,0-.5,3.41A4.94,4.94,0,0,0,781.47,51.76Z" transform="translate(-0.49 -9.83)" style="fill:#1f2a66"/><path d="M175.22,304A140.06,140.06,0,0,1,153,275.87c-6.1,8.54-18.31,20.55-32.77,28.7L109.88,283.4l-11.8,15.47A108.67,108.67,0,0,0,80,288.49c-12.21,8.14-31.55,14-56.17,15.87L12,276.07h5.5c12.41,0,25.24-1,32.36-2.44-7.53-2.45-24.22-7.94-33-11.2a117.46,117.46,0,0,0,11.8-16.89H12.8V219.28H42.31a57.35,57.35,0,0,0,3.26-8.95l2.84.61V193C43.33,203.41,33,212,26,216L12,189.36c9.57-3.87,18.52-9,24.22-13.64H15v-25h8.76A169.29,169.29,0,0,0,14.63,133L36.2,122.6c4.68,7.33,9.16,16.08,10.79,19.34l-18.32,8.75H48.41V121.38H79v29.31h22l-20.76-6.11c2.24-3.87,5.29-12.21,7.53-20.76l24.42,6.72A167.73,167.73,0,0,1,105,150.69h7.12v25h-21a60.41,60.41,0,0,0,16.69,9c11.6-18.12,17.91-48.24,20-62.69L161,125.86s-2,9.56-4.68,19.94h36.84v32.57h-4.47c-1,18.93-5.3,49.26-17.71,73.27a100.58,100.58,0,0,0,25,22ZM106,205.85,101.34,214A73,73,0,0,1,79,193V212H56.15l19.54,3.26a29.37,29.37,0,0,1-1.83,4.07h40.91ZM62.26,245.54c-1.84,3.46-3.87,6.72-3.87,6.72,4.07,1.22,8.55,3.05,12,4.27,2.44-3.26,3.66-7.53,4.88-11Zm63.5-32.16a73.65,73.65,0,0,1-5.9,14.65l-4.28-7.32v24.83h-8.14c-1.63,5.7-4.88,15.06-8.55,21.17a81.39,81.39,0,0,1,9.77,4.07c10-4.68,21-12.21,28.3-20.36C131.87,239.84,127.19,223.56,125.76,213.38Zm33-35H147.54c0,10.18,2.24,29.72,6.11,43.76,3.25-11.4,5.08-30.33,5.08-41.93Z" transform="translate(-0.49 -9.83)" style="fill:url(#linear-gradient)"/><path d="M330.32,259.38v8.55c0,33.18-4.48,36.64-67.78,36.64l-12.21-32H288c8.55,0,8.76-1.43,8.76-7.74v-5.49H218.37V228.85h78.37V216.23h6.71c13.64-4.48,21.78-10.79,21.78-10.79H243V193H220.41V135H288.8V121.38h36.63V135h68.4v58H374.9v12.22c-11.4,11.4-35.22,23.61-35.22,23.61h56.18v30.53Zm30.94-93.83H253v9.36H361.26Z" transform="translate(-0.49 -9.83)" style="fill:url(#linear-gradient-2)"/><path d="M502.72,231.29v1c.61,18.11,24.22,32.36,59,32.36a163,163,0,0,0,16.69-1l-5.09,34.61c-2.85,0-5.9.2-8.75.2-59.84,0-95.26-22.39-96.48-65.34v-1.63c0-28.29,19.74-49.25,30.73-56.38-30.12,1.84-52.1,2.85-73.47,4.28L424,147c43.76-1.83,116.83-4.88,167.51-7.12l.82,31.14C539.56,173.89,502.72,200.35,502.72,231.29Zm69.41-10.18a227.47,227.47,0,0,0-15.27-25.44l16.9-8.95c5.9,8.75,10.38,15.67,15.47,24.83Zm21.78-12c-4.89-8.55-9.77-16.09-15.68-24.63l16.49-8.76a210,210,0,0,1,15.67,24Z" transform="translate(-0.49 -9.83)" style="fill:url(#linear-gradient-3)"/><path d="M770.58,300.7H744.12c-14.45,0-22.18-7.74-22.18-23.61V244.72H708.71c-4.89,23-23.62,51.91-67.78,59.85L623,274.65c33.18-6.31,46.41-17.31,50.89-29.93H640.32V127.28h148V244.72H754.5v20.56c0,1.63.21,2.85,3,2.85h9.57c3.26,0,5.9-.2,5.9-7.94V245.54l32.77,12C805.79,300.5,792.36,300.7,770.58,300.7ZM755.72,155.78H672.88v6.1h82.84Zm0,27.07H672.88V189h82.84Zm0,27.27H672.88v6.11h82.84Z" transform="translate(-0.49 -9.83)" style="fill:url(#linear-gradient-4)"/><path d="M1000.58,243.91c0,39.89-41.31,58.42-78.16,58.42-29.92,0-56.78-12.22-56.78-35.22a38.86,38.86,0,0,1,1.83-11.19c4.68-14.66,19.54-21.58,36.43-21.58,20,0,42.54,9.77,53.74,27.69,5.49-4.08,9.16-10,9.16-17.51v-.61c-.41-13.64-16.29-22.39-37.66-22.39-23.81,0-54.75,10.79-79.18,37.66l-19.33-25.45c26-20.55,57-47,78.77-67.37l-54.14,1.43L854.65,136,964,134v27.27c-12.83,11.6-25,22-39.29,33.38a101.05,101.05,0,0,1,15.27-1.22c35.82,0,60.25,20.36,60.65,49.67Zm-96.07,15.27c-3.86,0-6.92,1.42-7.73,4.27a4.36,4.36,0,0,0-.21,1.63c0,5.29,9.37,8.34,21.58,8.34a70,70,0,0,0,11-.81C922.42,263.86,911.84,259.18,904.51,259.18Z" transform="translate(-0.49 -9.83)" style="fill:url(#linear-gradient-5)"/><path d="M1089.2,241.13h-31.34l-3.63-114.5h38.6Zm-35,51.81v-37.1H1093v37.1Z" transform="translate(-0.49 -9.83)" style="fill:url(#linear-gradient-6)"/><path d="M12.13,451.63v-19.8H55.31v-47H21.84V365h87.89v19.8H76.13v47H120v19.8Z" transform="translate(-0.49 -9.83)" style="fill:url(#linear-gradient-7)"/><path d="M232.75,462.1c-1.91-3.83-4.72-8.69-7.79-14.31-25,4-51.23,7.8-82.78,10.1l-4.34-18c16.35-22.22,34.49-59,44.32-84.95l21.47,4.47c-12.52,28.62-25.17,54-39,76.52,14.57-1.15,35.26-3.83,49.7-6.26-4.6-7.66-9.2-14.81-12.52-19.41l17.75-9.07c9.46,12.13,25,36.79,31.94,49.95Z" transform="translate(-0.49 -9.83)" style="fill:url(#linear-gradient-8)"/><path d="M262.77,419.69V394.27h25.55v25.42Z" transform="translate(-0.49 -9.83)" style="fill:url(#linear-gradient-9)"/><path d="M378.26,425.31c5.87,7.66,11.5,15.46,16.73,23.63l-18.26,11.88c-11.63-18.77-29.39-43.17-42.29-57.35l16.35-10.35c5,5.36,10.1,11,14.95,16.73,16.1-9.2,25.17-20.82,28.62-26.7l-80.87,1.92L312.85,365l109.48-1.91C419.39,389.8,403.55,408.57,378.26,425.31Z" transform="translate(-0.49 -9.83)" style="fill:url(#linear-gradient-10)"/><path d="M438.91,415.22V395.16h74.4v20.06Z" transform="translate(-0.49 -9.83)" style="fill:url(#linear-gradient-11)"/><path d="M612.29,393.88c-2.93,38.58-14.43,56.85-57.48,70.78l-15.2-17.25c37-9.07,49.95-22.36,51.73-53.53H564.26a137.93,137.93,0,0,1-18.91,25.43l-18.77-12.4c15.2-13.15,29-35.64,32.32-56.33l21.2,2.94a154.87,154.87,0,0,1-6.39,20.69H639.5v19.67Z" transform="translate(-0.49 -9.83)" style="fill:url(#linear-gradient-12)"/><path d="M728.16,408.06c-1.79,28.11-9.71,41.78-44.07,55.83l-15.84-17.76c31-9.32,37.94-18.14,38.83-38.07H658.41V388.52H766.49v19.54Zm-56.08-30.53V357.86h80.61v19.67Z" transform="translate(-0.49 -9.83)" style="fill:url(#linear-gradient-13)"/><path d="M829.47,408.7v55.06h-18V420.07a337.44,337.44,0,0,1-31.94,15.84l-12.65-14.43c29.26-10,59.91-30,75.37-48.16l14.82,12.26A216.76,216.76,0,0,1,829.47,408.7Z" transform="translate(-0.49 -9.83)" style="fill:url(#linear-gradient-14)"/><path d="M902.41,393.25c-10.22-7.29-26.19-16.87-36.92-21.59l13-16.87A321.85,321.85,0,0,1,916,375.23Zm-30.15,67.06L867,438.6c55.31-3.84,73.07-22.49,87.76-65.79L972,386.73C953.38,433.74,932.18,452.65,872.26,460.31Z" transform="translate(-0.49 -9.83)" style="fill:url(#linear-gradient-15)"/><path d="M990.43,464.66l-12.52-19.17c61.32-6.89,74-30,81.51-56.08h-36.67A142.15,142.15,0,0,1,989,419.05l-12.78-16.61c19.55-9.83,39.6-32.7,43.82-50.33l22.1,3.45a79.2,79.2,0,0,1-5.88,13.92h28.23c1.67,3.71,3.2,7.54,4.22,10.1l15.59-7C1076.79,425.44,1056.35,454.31,990.43,464.66Zm80.1-89.43a127,127,0,0,0-8-16.73l11-4.73c3.19,5.75,5.62,10.35,8.3,16.35Zm14.31-6.38c-2.56-5.63-5.24-10.61-8.43-16.23l10.73-4.6a122.38,122.38,0,0,1,8.56,15.84Z" transform="translate(-0.49 -9.83)" style="fill:url(#linear-gradient-16)"/></svg>