<svg id="レイヤー_1" data-name="レイヤー 1" xmlns="http://www.w3.org/2000/svg" viewBox="0 0 315 50"><defs><style>.cls-1{fill:#e6e6e5;}.cls-2{fill:#1f2a66;}.cls-3{fill:#040000;}.cls-4{fill:#fff;}.cls-5{fill:#211512;}</style></defs><rect class="cls-1" x="43" width="272" height="50"/><polygon class="cls-2" points="60.84 50 0 50 0 0 60.84 0 81 25.56 60.84 50"/><path class="cls-3" d="M115.71,9.24a14.92,14.92,0,0,1-2.4,4.46h9.48v9.35H121V22h-7.73v1h-1.82V15.9A16.44,16.44,0,0,1,108.85,18L108,16a12.31,12.31,0,0,0,5.69-6.77h-5.26V7.62h15.34V9.24Zm5.26,6h-7.73V20.4H121Z" transform="translate(0.36 0.34)"/><path class="cls-3" d="M138.75,23.05V21.7H128.13v1.35h-1.78V7.82h14.18V23.05ZM132.43,9.42h-4.3v4.14h4.3Zm0,5.76h-4.3v4.9h4.3Zm6.32-5.76h-4.54v4.14h4.54Zm0,5.76h-4.54v4.9h4.54Z" transform="translate(0.36 0.34)"/><path class="cls-3" d="M153.91,9.26a17,17,0,0,1-1.44,3.58H158V23.05h-1.77V22h-3.92v1.06h-1.76v-7.4a15.63,15.63,0,0,1-1.27,1.64l-.93-1.43c-.27.11-.79.29-1.46.49V20.2c0,2-.14,2.63-2.88,2.78l-.79-1.75c1.91,0,1.92-.05,1.92-1V16.8c-.63.16-1.28.33-2.09.49l-.46-1.7c1-.16,1.8-.34,2.55-.52v-3.4H143V10.05h2.14V6.84h1.75v3.21h1.76v1.62h-1.76v3c1-.27,1.66-.56,1.66-.56v1.33a15.23,15.23,0,0,0,3.47-6.17h-3V7.64h9.79V9.26Zm2.35,5.2h-3.92v5.91h3.92Z" transform="translate(0.36 0.34)"/><path class="cls-3" d="M173.44,22.38h-9.37c-1.38,0-2-.54-2-2.09v-7l-1.8.34L159.88,12l2.18-.41V8h1.76v3.27l3.35-.66V6.84h1.77v3.48l5.81-1.1v6c0,1.69-1.17,2.18-3.76,2.18l-.72-1.58c2,0,2.72-.08,2.72-.78V11.24l-4.05.77v6.3h-1.77v-6l-3.35.65v7c0,.66.29.86.9.86h7.69c1.53,0,1.8-.2,1.8-3L176,18.87C176,21.75,174.9,22.38,173.44,22.38Z" transform="translate(0.36 0.34)"/><path class="cls-3" d="M187.42,11.94a10.36,10.36,0,0,0,3.5,4.73L189.58,18a9.85,9.85,0,0,0-5-1.33c-1.81,0-3.28.54-3.41,1.71,0,.07,0,.14,0,.2,0,1.38,1.7,2.25,4.67,2.25a24.13,24.13,0,0,0,5-.62l-.14,1.93a26.72,26.72,0,0,1-4.67.45c-4.28,0-6.73-1.39-6.73-3.85a4.75,4.75,0,0,1,0-.51c.27-2.18,2.43-3.22,5.06-3.22a12,12,0,0,1,2.8.36,13,13,0,0,1-1.65-3.28c-2.56.17-5.21.33-7.69.45l-.14-1.76c1.81,0,4.51-.16,7.32-.34a31.6,31.6,0,0,1-.64-3.17l1.9-.11a17.86,17.86,0,0,0,.54,3.13c2.11-.14,4.11-.32,5.62-.5l.16,1.76C191,11.69,189.22,11.81,187.42,11.94Z" transform="translate(0.36 0.34)"/><path class="cls-3" d="M205.87,22.62a3.1,3.1,0,0,1-.43,0c-4.59-.45-2-6.61-3.62-6.77h0c-1,0-3.84,2.63-5.15,6.7l-1.84-.63c1.66-3.91,4.66-11,6.14-14.55L202.7,8c-.91,1.94-2.1,4.72-3.27,7.43a4.51,4.51,0,0,1,2.82-1.51l.2,0c3.15.32.6,6.57,3.21,6.88l.21,0c1.46,0,2.87-1.79,2.87-5.51,0-.27,0-.54,0-.83l1.91.63C210.45,20,208.59,22.62,205.87,22.62Z" transform="translate(0.36 0.34)"/><path class="cls-3" d="M215.3,21.77l-.21,0c-1.88-.12-3-2.37-3-5,0-3.67,2.21-8.1,7.78-8.58.29,0,.57,0,.86,0a6.92,6.92,0,0,1,7.2,7.08c0,3.45-2.41,7-7.65,7.23l-.68-1.78c4.52-.07,6.51-2.75,6.51-5.45a5.3,5.3,0,0,0-4.8-5.35C220.07,15.5,218.65,21.77,215.3,21.77Zm-1.4-5.11c0,1.76.59,3.18,1.4,3.26h.06c1.33,0,3.13-4.67,4.06-10C215.28,10.57,213.9,14,213.9,16.66Z" transform="translate(0.36 0.34)"/><path class="cls-3" d="M236.65,21.7V10.64L233.72,12l-.6-1.67a7.56,7.56,0,0,0,3.77-2.67h1.87V21.7Z" transform="translate(0.36 0.34)"/><path class="cls-3" d="M258.88,23.05V22H250.1v1h-1.84V7.38h12.46V23.05Zm0-14H250.1v4.65h8.78Zm0,6.27H250.1V20.4h8.78Z" transform="translate(0.36 0.34)"/><path class="cls-4" d="M9.8,18.26a5.21,5.21,0,0,1,3.92-1.6,5.25,5.25,0,0,1,4.66,2.15,4.72,4.72,0,0,1,.88,2.41H16.59a3.73,3.73,0,0,0-.65-1.4A2.6,2.6,0,0,0,13.83,19a2.61,2.61,0,0,0-2.25,1.19,5.89,5.89,0,0,0-.82,3.37,5.21,5.21,0,0,0,.86,3.27,2.72,2.72,0,0,0,2.21,1.08A2.49,2.49,0,0,0,15.92,27a3.9,3.9,0,0,0,.66-1.5h2.65a5.9,5.9,0,0,1-1.75,3.45,5.07,5.07,0,0,1-3.61,1.32,5.35,5.35,0,0,1-4.28-1.79A7.3,7.3,0,0,1,8,23.49,7.25,7.25,0,0,1,9.8,18.26Z" transform="translate(0.36 0.34)"/><path class="cls-4" d="M24.92,24a4.38,4.38,0,0,0,1-.22.77.77,0,0,0,.53-.72.85.85,0,0,0-.41-.81,2.54,2.54,0,0,0-1.2-.22,1.53,1.53,0,0,0-1.25.44,1.77,1.77,0,0,0-.35.87H20.85a3.7,3.7,0,0,1,.69-2.06,4,4,0,0,1,3.38-1.27,5.88,5.88,0,0,1,2.76.63A2.39,2.39,0,0,1,28.89,23v4.4c0,.3,0,.67,0,1.11a1.32,1.32,0,0,0,.14.66.85.85,0,0,0,.37.29v.37H26.73a3.16,3.16,0,0,1-.15-.54c0-.17,0-.37-.07-.58a5.51,5.51,0,0,1-1.18,1,3.57,3.57,0,0,1-1.82.46,3.11,3.11,0,0,1-2.12-.74,2.68,2.68,0,0,1-.84-2.11,2.73,2.73,0,0,1,1.35-2.55,5.81,5.81,0,0,1,2.18-.62Zm1.51,1.16a3.67,3.67,0,0,1-.48.25,5.09,5.09,0,0,1-.66.17l-.56.1a3.5,3.5,0,0,0-1.13.35A1.14,1.14,0,0,0,23,27.13a1.12,1.12,0,0,0,.36.93,1.33,1.33,0,0,0,.86.28,2.58,2.58,0,0,0,1.49-.47,2,2,0,0,0,.71-1.73Z" transform="translate(0.36 0.34)"/><path class="cls-4" d="M33,26.8a1.59,1.59,0,0,0,.34.95,2.23,2.23,0,0,0,1.7.5A2.5,2.5,0,0,0,36.16,28a.68.68,0,0,0,.43-.65.72.72,0,0,0-.34-.65A14.06,14.06,0,0,0,33.67,26a5.36,5.36,0,0,1-2.27-1,2.22,2.22,0,0,1-.66-1.73,3,3,0,0,1,1-2.28A4.13,4.13,0,0,1,34.66,20a5.27,5.27,0,0,1,2.89.72,3.07,3.07,0,0,1,1.28,2.47H36.36a1.38,1.38,0,0,0-.27-.76,1.67,1.67,0,0,0-1.39-.51,2,2,0,0,0-1.15.25.73.73,0,0,0-.34.6.65.65,0,0,0,.36.62,15.46,15.46,0,0,0,2.58.7,4.71,4.71,0,0,1,2.21,1.06,2.45,2.45,0,0,1,.73,1.8A2.93,2.93,0,0,1,38,29.29a4.87,4.87,0,0,1-3.23.9,4.79,4.79,0,0,1-3.29-1,3.1,3.1,0,0,1-1.06-2.43Z" transform="translate(0.36 0.34)"/><path class="cls-4" d="M47.05,20.48a3.87,3.87,0,0,1,1.63,1.41,4.65,4.65,0,0,1,.75,2,12.14,12.14,0,0,1,.09,1.91H42.64a2.32,2.32,0,0,0,1,2,2.49,2.49,0,0,0,1.36.36,2.09,2.09,0,0,0,1.37-.44,2.22,2.22,0,0,0,.51-.66h2.52a3.14,3.14,0,0,1-.92,1.73,4.55,4.55,0,0,1-3.55,1.4A5.13,5.13,0,0,1,41.6,29a4.7,4.7,0,0,1-1.44-3.84,5.19,5.19,0,0,1,1.3-3.81A4.5,4.5,0,0,1,44.83,20,5.31,5.31,0,0,1,47.05,20.48Zm-3.69,2.16a2.6,2.6,0,0,0-.66,1.48H47a2.09,2.09,0,0,0-.65-1.51,2.13,2.13,0,0,0-1.47-.52A2,2,0,0,0,43.36,22.64Z" transform="translate(0.36 0.34)"/><path class="cls-4" d="M50.72,27.23h2.62v2.63H50.72Z" transform="translate(0.36 0.34)"/><path class="cls-4" d="M55.77,21.07v-1.7a11.45,11.45,0,0,0,1.63-.16,2.29,2.29,0,0,0,1.78-2.09h2.06V29.86H58.72V21.07Z" transform="translate(0.36 0.34)"/><path class="cls-5" d="M84.54,36.6a12.44,12.44,0,0,1,1.75,1.49,29.14,29.14,0,0,0,3.42-3.65H81v-1h9.09a2.2,2.2,0,0,0,.8-.22l.69.92s-.42.41-.57.58a53.77,53.77,0,0,1-4,4.2,21,21,0,0,1,1.46,1.85l-1.05.7A10.29,10.29,0,0,0,85.56,39a8.9,8.9,0,0,0-1.86-1.59Z" transform="translate(0.36 0.34)"/><path class="cls-5" d="M93.21,37.76v-1h10.15v1Z" transform="translate(0.36 0.34)"/><path class="cls-5" d="M116.26,34.29v1h-3.57a12.55,12.55,0,0,1-1.19,4.91A7.27,7.27,0,0,1,108.9,43l-1.14-.68a6.33,6.33,0,0,0,3.08-3.25,9.16,9.16,0,0,0,.72-3.83h-3.18A12.76,12.76,0,0,1,106,38.35L105,37.72a9.85,9.85,0,0,0,2.73-3.42A14.38,14.38,0,0,0,108.83,31l1.1.44c.13,0,.33.12.33.23s-.05.16-.48.26a17.62,17.62,0,0,1-.92,2.35Z" transform="translate(0.36 0.34)"/><path class="cls-5" d="M124,36.49a7.57,7.57,0,0,1-1.11,3.92A5.82,5.82,0,0,1,120,42.65l-1-.88a4.82,4.82,0,0,0,2.87-1.9,5.63,5.63,0,0,0,1-3.38h-5.07v-1h10.8v1Zm2.63-3.66h-7v-1h7Z" transform="translate(0.36 0.34)"/><path class="cls-5" d="M134,37.54a18.94,18.94,0,0,1-3.14,1.75l-.84-.73a11.27,11.27,0,0,0,3.92-2.06,14.78,14.78,0,0,0,2.79-2.6l.66.6c.11.1.24.21.24.32s-.05.09-.15.09l-.33,0a19.88,19.88,0,0,1-2.24,2v6.24H134Z" transform="translate(0.36 0.34)"/><path class="cls-5" d="M149.36,36.26c-1.57,1.57-3.28,3.28-9.19,5.41,0,0-.17.37-.25.37s-.18-.17-.26-.35l-.48-1.15a14.89,14.89,0,0,0,5.49-2,14.85,14.85,0,0,0,4.22-3.31ZM142,35.1a18.54,18.54,0,0,0-2.31-2.38l.82-.8a19.87,19.87,0,0,1,2.43,2.45Z" transform="translate(0.36 0.34)"/><path class="cls-5" d="M158.83,33.17a2,2,0,0,0,.54-.07l.62.8a1.7,1.7,0,0,0-.69.84c-1.13,3-1.88,4.35-3.49,5.94a11.2,11.2,0,0,1-2.83,2l-1-.84a10.82,10.82,0,0,0,6.28-7.77h-4.16a15.59,15.59,0,0,1-2.78,3l-.91-.69A11.27,11.27,0,0,0,153,33.84a8.87,8.87,0,0,0,1.27-2.46l1.08.39c.21.07.28.19.28.26s-.2.14-.45.19c-.24.5-.32.67-.48,1Zm-.37-2.48A12.19,12.19,0,0,1,159.58,32l-.73.55a5.41,5.41,0,0,0-1.12-1.34Zm1.75-.29a11.71,11.71,0,0,1,1.14,1.34l-.7.55a5.53,5.53,0,0,0-1.1-1.35Z" transform="translate(0.36 0.34)"/><path class="cls-5" d="M168.81,32.74v.82h4V36h-4v.83h4.31v1.66h1.46v.8h-1.46V41.6h-1V41h-3.32v1.1c0,1-.19,1.06-2.3,1.06l-.3-1.06a7.19,7.19,0,0,0,1,.08c.6,0,.6-.18.6-.49V41h-4.56v-.84h4.56v-.88h-5.73v-.8h5.73v-.85h-4.56v-.81h4.56V36h-4V33.56h4v-.82h-5.32v-.92h5.32V30.56l1,.09c.1,0,.3,0,.3.15s0,.1-.25.27v.75h5.32v.92Zm-1,2.49v-.9h-3.06v.9Zm4.12-.9h-3.09v.9h3.09Zm.23,4.16v-.85h-3.32v.85Zm0,1.68v-.88h-3.32v.88Z" transform="translate(0.36 0.34)"/><path class="cls-5" d="M184.85,34.08l.25.18c.06,0,.16.11.16.2s-.17.11-.3.1a3.2,3.2,0,0,1-.47.72h2.8v.8h-4.46V37h4.28v.84h-4.28v.92h5.55v.84h-4.59a8.87,8.87,0,0,0,4.28,2.26l-.81.92a11.87,11.87,0,0,1-4.43-2.84v3.29h-1V40a14.91,14.91,0,0,1-4.53,3l-.63-.91a11.61,11.61,0,0,0,4.2-2.46h-4.51v-.84h5.47v-.92h-4.5V37h4.5v-.9h-4.71v-.8h2.8a3.85,3.85,0,0,0-.63-.89l.41-.31h-3.56v-.84h4.48v-2.7l.93.05c.16,0,.28.09.28.16s-.12.16-.27.26v2.23H183V30.58l.93.05c.19,0,.26.09.26.13s-.11.17-.22.27v2.21h4.57v.84ZM179.05,33a6,6,0,0,0-1.24-1.75l.74-.5a6,6,0,0,1,1.37,1.71Zm1.19,1.07a3.12,3.12,0,0,1,.63.87l-.56.33h3.63l-.41-.33a3.79,3.79,0,0,0,.61-.87Zm6.12-2.63a7.82,7.82,0,0,1-1.3,1.54l-.66-.66a9.26,9.26,0,0,0,1.47-1.68l.66.42c.1.07.23.14.23.25S186.5,31.46,186.36,31.45Z" transform="translate(0.36 0.34)"/><path class="cls-5" d="M197.46,35.86v.92h-7.29v-.92h5.32l-.8-.44a7.73,7.73,0,0,0,.77-2.11l.91.36s.18.09.18.19-.14.16-.29.19a12.2,12.2,0,0,1-.7,1.81Zm-4.09-5.32,1.14.05s.22,0,.22.13-.19.25-.29.32v1.11h2.77v.91h-6.5v-.91h2.66Zm-2.22,7.55h5.52v5.08h-1v-.81H192.1v1h-.95Zm.95-4.85a11,11,0,0,1,1,2.14l-.91.41a10.33,10.33,0,0,0-1-2.12Zm3.57,8.21V39H192.1v2.45Zm6.89-9.35c-1.06,2.34-1.69,3.42-2,4a4.88,4.88,0,0,1,2,3.8c0,2.12-1.69,2.41-2.82,2.47l-.43-1.2c.22,0,.43,0,.72,0a1.46,1.46,0,0,0,1.2-.38,1.71,1.71,0,0,0,.37-1.08c0-1.65-1.41-3-2.11-3.65a31.1,31.1,0,0,0,1.86-3.69H199V43.23h-1V31.53H202Z" transform="translate(0.36 0.34)"/><path class="cls-5" d="M208.35,42.25c.21-2.44,1.71-3.46,4.27-4.92,1.53-.87,2.22-1.25,2.22-2.54a2,2,0,0,0-2.27-2A2.4,2.4,0,0,0,210,35.37h-1.33a3.76,3.76,0,0,1,.91-2.47,4,4,0,0,1,2.94-1.16c1.46,0,3.56.67,3.56,3,0,1.81-1,2.58-2.93,3.58-2.58,1.37-2.93,2.25-3.21,2.9h6.14v1Z" transform="translate(0.36 0.34)"/><path class="cls-5" d="M221.22,42.53c-3.14,0-3.88-2.82-3.88-5.4s.74-5.39,3.88-5.39,3.87,2.84,3.87,5.39S224.36,42.53,221.22,42.53Zm0-9.74c-2,0-2.55,2.05-2.55,4.34s.59,4.35,2.55,4.35,2.55-2,2.55-4.35S223.2,32.79,221.22,32.79Z" transform="translate(0.36 0.34)"/><path class="cls-5" d="M229.55,42.25V34.77h-2.16v-.91A2.24,2.24,0,0,0,229.87,32h1V42.25Z" transform="translate(0.36 0.34)"/><path class="cls-5" d="M238.86,42.53c-2.51,0-3.88-1.33-3.88-3a2.88,2.88,0,0,1,2.14-2.76,2.36,2.36,0,0,1-1.72-2.29c0-1.51,1.23-2.7,3.46-2.7s3.45,1.25,3.45,2.7a2.37,2.37,0,0,1-1.71,2.29,2.87,2.87,0,0,1,2.13,2.76C242.73,41.24,241.31,42.53,238.86,42.53Zm0-5.3c-1.5,0-2.56.84-2.56,2.17,0,1,.67,2.08,2.56,2.08s2.55-1.07,2.55-2.08C241.41,38.14,240.44,37.23,238.86,37.23Zm0-4.44c-1,0-2.14.37-2.14,1.78s1.16,1.78,2.14,1.78S241,36,241,34.57,239.84,32.79,238.86,32.79Z" transform="translate(0.36 0.34)"/><path class="cls-5" d="M255,40v3.25h-1.06V40h-6.29V39H250V35.28h3.94V33.13h-3.17a15.72,15.72,0,0,1-1.57,1.9l-.91-.59a11.59,11.59,0,0,0,2.78-4,4.11,4.11,0,0,1,1,.43c.16.07.23.11.23.21s-.21.2-.42.22l-.46.82h8v1H255v2.15h3.71v1H255V39h4.92v1Zm-1.06-3.76H251V39h2.92Z" transform="translate(0.36 0.34)"/><path class="cls-5" d="M268.19,42.25V34.77H266v-.91A2.24,2.24,0,0,0,268.51,32h1V42.25Z" transform="translate(0.36 0.34)"/><path class="cls-5" d="M277,42.25V34.77h-2.16v-.91A2.24,2.24,0,0,0,277.33,32h1V42.25Z" transform="translate(0.36 0.34)"/><path class="cls-5" d="M293.52,43.11l-.75,0-.41-1.21c.9.09,1.43.11,1.47.11.55,0,.55-.23.55-.86V38.31h-5.55a8.84,8.84,0,0,1-1.64,4.89l-1-.55c1-1.26,1.69-2.62,1.69-6.16,0-1.26,0-4.26-.08-5.34h7.62v10.3C295.43,42.86,295.06,43.11,293.52,43.11Zm.86-11H288.9v2.16h5.48Zm0,3.07H288.9v2.19h5.48Z" transform="translate(0.36 0.34)"/></svg>