<svg id="レイヤー_1" data-name="レイヤー 1" xmlns="http://www.w3.org/2000/svg" viewBox="0 0 315 50"><defs><style>.cls-1{fill:#e6e6e5;}.cls-2{fill:#1f2a66;}.cls-3{fill:#040000;}.cls-4{fill:#fff;}.cls-5{fill:#211512;}</style></defs><rect class="cls-1" x="43" width="272" height="50"/><polygon class="cls-2" points="60.84 50 0 50 0 0 60.84 0 81 25.56 60.84 50"/><path class="cls-3" d="M117.58,10.74v1.6h6.34v9c0,1.94-1.51,2.37-3.67,2.37L119.53,22c2.32,0,2.63-.21,2.63-.66V13.91h-3.08l1.17.5A13.41,13.41,0,0,1,119.17,16h1.58v1.46h-3.18V19h3.54v1.41h-3.54V23H115.8V20.43h-3.65V19h3.65V17.49h-3.29V16h1.67a12.3,12.3,0,0,0-1.1-1.63l1.21-.49h-3.06v9.83h-1.77V12.34h6.31v-1.6h-7.19V9.12h7.19V7.54h1.81V9.12h7.21v1.62Zm-2.68,3.17c.42.74.88,1.71,1,2.12h1.36a10.85,10.85,0,0,0,1.1-2.12Z" transform="translate(-0.19 -0.35)"/><path class="cls-3" d="M126.58,23.13V21.51h7.11V19.69h-6V18.07h6V16.52h-5.61V8.13h13.23v8.39h-5.8v1.55h6.18v1.62h-6.18v1.82h7.28v1.62Zm7.11-13.38h-3.85v1.71h3.85Zm0,3.33h-3.85V14.9h3.85Zm5.86-3.33h-4v1.71h4Zm0,3.33h-4V14.9h4Z" transform="translate(-0.19 -0.35)"/><path class="cls-3" d="M159.74,23.74a16.65,16.65,0,0,1-6.91-8.08,13.75,13.75,0,0,1-7.11,8.08l-1.14-1.69c5-2.24,6.75-6.09,7.08-8.73H145V11.66h6.73V7.54h1.87v4.12h6.75v1.66h-6.66s1,5.16,7.1,8.67Z" transform="translate(-0.19 -0.35)"/><path class="cls-3" d="M166.25,23.74V17.65a16.35,16.35,0,0,1-2.61,3.62l-1.06-1.56a14.9,14.9,0,0,0,3.67-4.77V7.54H168v16.2Zm-1.63-10.19a32,32,0,0,0-2-3.28l1.42-1a36.65,36.65,0,0,1,2,3.25Zm4.66-3.31-.63-1.62a38.68,38.68,0,0,0,9.24-.9l.64,1.51A46.37,46.37,0,0,1,169.28,10.24Zm1.12,4a15.84,15.84,0,0,0-1.57-2.7l1.49-.83a18.44,18.44,0,0,1,1.53,2.85Zm6.33,2.95v4.27c0,2.31-1.85,2.14-3.15,2.22l-.79-1.62c1.84,0,2.2,0,2.2-.6V17.2h-6.11V15.58H175V14.32h1.74v1.26h2V17.2Zm-5.15,3.91A12.26,12.26,0,0,0,170,18.75l1.33-1A15.4,15.4,0,0,1,173,20.1Zm1.86-7.47a14.14,14.14,0,0,0-1.12-2.77l1.57-.62a19.37,19.37,0,0,1,1,2.83Zm3.67.34-1.53-.7A14.51,14.51,0,0,0,177,9.91l1.6.6A16.7,16.7,0,0,1,177.11,14Z" transform="translate(-0.19 -0.35)"/><path class="cls-3" d="M190.84,12.63a10.44,10.44,0,0,0,3.5,4.74L193,18.68a9.92,9.92,0,0,0-5-1.33c-1.8,0-3.28.54-3.4,1.71,0,.07,0,.14,0,.2,0,1.38,1.69,2.25,4.66,2.25a24.57,24.57,0,0,0,5-.61l-.14,1.92a26.7,26.7,0,0,1-4.66.45c-4.29,0-6.74-1.38-6.74-3.85a4.57,4.57,0,0,1,0-.5c.27-2.18,2.43-3.23,5.06-3.23a12.17,12.17,0,0,1,2.81.36A12.83,12.83,0,0,1,189,12.77c-2.56.17-5.2.33-7.69.46l-.14-1.77c1.82,0,4.52-.16,7.33-.34A28.92,28.92,0,0,1,187.84,8l1.91-.11a16.4,16.4,0,0,0,.54,3.14c2.1-.15,4.1-.33,5.61-.51l.17,1.76C194.41,12.38,192.65,12.51,190.84,12.63Z" transform="translate(-0.19 -0.35)"/><path class="cls-3" d="M210,23.31a3.24,3.24,0,0,1-.44,0c-4.59-.45-2-6.61-3.62-6.77h-.05c-.95,0-3.83,2.63-5.15,6.7l-1.84-.63c1.66-3.91,4.67-11,6.14-14.55l1.79.63c-.92,1.94-2.11,4.72-3.28,7.44a4.48,4.48,0,0,1,2.83-1.52l.19,0c3.16.33.6,6.57,3.21,6.88l.22,0c1.45,0,2.86-1.78,2.86-5.51,0-.27,0-.54,0-.83l1.91.63C214.59,20.72,212.73,23.31,210,23.31Z" transform="translate(-0.19 -0.35)"/><path class="cls-3" d="M220.17,22.46l-.22,0c-1.87-.12-3-2.37-3-5,0-3.68,2.22-8.11,7.78-8.59.29,0,.58,0,.86,0a6.92,6.92,0,0,1,7.21,7.08c0,3.45-2.42,7-7.66,7.24l-.68-1.79c4.52-.07,6.52-2.75,6.52-5.45a5.31,5.31,0,0,0-4.81-5.35C224.94,16.2,223.51,22.46,220.17,22.46Zm-1.41-5.11c0,1.76.59,3.19,1.41,3.26h.05c1.33,0,3.13-4.67,4.07-10C220.15,11.26,218.76,14.68,218.76,17.35Z" transform="translate(-0.19 -0.35)"/><path class="cls-3" d="M242.23,22.39V11.33l-2.93,1.36L238.71,11a7.49,7.49,0,0,0,3.76-2.66h1.87v14Z" transform="translate(-0.19 -0.35)"/><path class="cls-3" d="M265.19,23.74v-1H256.4v1h-1.84V8.08H267V23.74Zm0-14H256.4v4.64h8.79Zm0,6.26H256.4v5.13h8.79Z" transform="translate(-0.19 -0.35)"/><path class="cls-4" d="M10.35,19a5.21,5.21,0,0,1,3.92-1.6,5.27,5.27,0,0,1,4.66,2.15,4.73,4.73,0,0,1,.87,2.41H17.13a3.58,3.58,0,0,0-.65-1.4,2.61,2.61,0,0,0-2.11-.85,2.61,2.61,0,0,0-2.25,1.19,5.9,5.9,0,0,0-.82,3.38,5.14,5.14,0,0,0,.87,3.26,2.69,2.69,0,0,0,2.2,1.09,2.48,2.48,0,0,0,2.09-.93,4,4,0,0,0,.66-1.51h2.65A5.9,5.9,0,0,1,18,29.59a5.07,5.07,0,0,1-3.61,1.32,5.37,5.37,0,0,1-4.28-1.79,7.3,7.3,0,0,1-1.56-4.94A7.21,7.21,0,0,1,10.35,19Z" transform="translate(-0.19 -0.35)"/><path class="cls-4" d="M25.47,24.73a3.78,3.78,0,0,0,1-.22A.75.75,0,0,0,27,23.8a.85.85,0,0,0-.4-.82,2.59,2.59,0,0,0-1.2-.22,1.55,1.55,0,0,0-1.26.44,1.87,1.87,0,0,0-.35.88H21.39a3.71,3.71,0,0,1,.7-2.07,4,4,0,0,1,3.37-1.26,5.85,5.85,0,0,1,2.76.62,2.4,2.4,0,0,1,1.21,2.36v4.39c0,.3,0,.67,0,1.11a1.46,1.46,0,0,0,.15.67,1,1,0,0,0,.36.29v.36H27.28a2.51,2.51,0,0,1-.16-.54c0-.17-.05-.36-.07-.58a5.27,5.27,0,0,1-1.18,1,3.56,3.56,0,0,1-1.81.46,3.12,3.12,0,0,1-2.13-.74,2.66,2.66,0,0,1-.84-2.1,2.74,2.74,0,0,1,1.35-2.56,6,6,0,0,1,2.18-.62ZM27,25.9a2.32,2.32,0,0,1-.47.24,4,4,0,0,1-.67.17l-.56.1a3.68,3.68,0,0,0-1.13.35,1.14,1.14,0,0,0-.58,1.06,1.11,1.11,0,0,0,.35.93,1.35,1.35,0,0,0,.87.28,2.53,2.53,0,0,0,1.49-.47,2,2,0,0,0,.7-1.73Z" transform="translate(-0.19 -0.35)"/><path class="cls-4" d="M33.5,27.5a1.66,1.66,0,0,0,.34.94,2.26,2.26,0,0,0,1.7.51,2.71,2.71,0,0,0,1.17-.22.72.72,0,0,0,.43-.66.71.71,0,0,0-.35-.64,13.68,13.68,0,0,0-2.58-.76,5.43,5.43,0,0,1-2.27-1,2.2,2.2,0,0,1-.65-1.72,3,3,0,0,1,1-2.28,4.09,4.09,0,0,1,2.9-1,5.21,5.21,0,0,1,2.88.72,3.09,3.09,0,0,1,1.28,2.47H36.9a1.38,1.38,0,0,0-.27-.76,1.66,1.66,0,0,0-1.38-.51,2,2,0,0,0-1.16.25.76.76,0,0,0-.34.6.63.63,0,0,0,.37.62,14.89,14.89,0,0,0,2.57.7,4.71,4.71,0,0,1,2.21,1.06,2.41,2.41,0,0,1,.73,1.8A2.93,2.93,0,0,1,38.58,30a4.85,4.85,0,0,1-3.23.9,4.86,4.86,0,0,1-3.29-.95A3.13,3.13,0,0,1,31,27.5Z" transform="translate(-0.19 -0.35)"/><path class="cls-4" d="M47.59,21.17a3.86,3.86,0,0,1,1.64,1.42,4.81,4.81,0,0,1,.75,2,13.65,13.65,0,0,1,.08,1.9H43.19a2.31,2.31,0,0,0,1,2,2.49,2.49,0,0,0,1.36.36,2.07,2.07,0,0,0,1.37-.44,2.22,2.22,0,0,0,.51-.66h2.52A3.15,3.15,0,0,1,49,29.48a4.57,4.57,0,0,1-3.55,1.4,5.08,5.08,0,0,1-3.33-1.18,4.68,4.68,0,0,1-1.44-3.84A5.25,5.25,0,0,1,42,22.05a4.5,4.5,0,0,1,3.38-1.33A5.23,5.23,0,0,1,47.59,21.17ZM43.9,23.33a2.7,2.7,0,0,0-.65,1.48H47.5a2,2,0,0,0-2.12-2A2,2,0,0,0,43.9,23.33Z" transform="translate(-0.19 -0.35)"/><path class="cls-4" d="M51.26,27.93h2.63v2.62H51.26Z" transform="translate(-0.19 -0.35)"/><path class="cls-4" d="M56.21,28.05a7.14,7.14,0,0,1,2.5-2.7,19.62,19.62,0,0,0,2.2-1.77,2.63,2.63,0,0,0,.77-1.83,2,2,0,0,0-.44-1.35A1.55,1.55,0,0,0,60,19.87a1.53,1.53,0,0,0-1.53.85,4.21,4.21,0,0,0-.28,1.56h-2.4a6.27,6.27,0,0,1,.58-2.62,3.6,3.6,0,0,1,3.51-1.91A4.38,4.38,0,0,1,63,18.87a3.89,3.89,0,0,1,1.18,3,4.07,4.07,0,0,1-.83,2.51A8.3,8.3,0,0,1,61.58,26l-1,.71c-.61.44-1,.76-1.26,1a2.81,2.81,0,0,0-.58.7h5.48v2.2h-8.6A6.24,6.24,0,0,1,56.21,28.05Z" transform="translate(-0.19 -0.35)"/><path class="cls-5" d="M85.08,37.29a12.44,12.44,0,0,1,1.75,1.49,29.07,29.07,0,0,0,3.42-3.64H81.54v-1h9.09a2.3,2.3,0,0,0,.8-.22l.68.92s-.42.41-.57.58a52.56,52.56,0,0,1-4,4.2A22.91,22.91,0,0,1,89,41.44l-1,.7a10.1,10.1,0,0,0-1.82-2.49,8.56,8.56,0,0,0-1.86-1.6Z" transform="translate(-0.19 -0.35)"/><path class="cls-5" d="M93.76,38.46v-1H103.9v1Z" transform="translate(-0.19 -0.35)"/><path class="cls-5" d="M116.81,35v1h-3.57a12.73,12.73,0,0,1-1.19,4.9,7.47,7.47,0,0,1-2.61,2.86l-1.13-.69a6.33,6.33,0,0,0,3.08-3.25A9.11,9.11,0,0,0,112.1,36h-3.18A12.63,12.63,0,0,1,106.55,39l-1-.63A10,10,0,0,0,108.24,35a14.5,14.5,0,0,0,1.13-3.3l1.11.44c.12,0,.32.12.32.24s0,.15-.48.25A17.62,17.62,0,0,1,109.4,35Z" transform="translate(-0.19 -0.35)"/><path class="cls-5" d="M124.56,37.18a7.62,7.62,0,0,1-1.1,3.92,5.88,5.88,0,0,1-2.95,2.24l-1-.88a4.79,4.79,0,0,0,2.88-1.9,5.69,5.69,0,0,0,1-3.38h-5.07v-1h10.8v1Zm2.64-3.66h-7v-1h7Z" transform="translate(-0.19 -0.35)"/><path class="cls-5" d="M134.53,38.23A18.54,18.54,0,0,1,131.39,40l-.84-.73a11.37,11.37,0,0,0,3.92-2,14.39,14.39,0,0,0,2.79-2.61l.66.6c.11.1.24.21.24.32s0,.09-.14.09l-.34,0a20,20,0,0,1-2.24,2v6.23h-.91Z" transform="translate(-0.19 -0.35)"/><path class="cls-5" d="M149.91,37c-1.57,1.57-3.28,3.28-9.19,5.4,0,0-.17.37-.26.37s-.18-.17-.26-.35l-.48-1.15a14.89,14.89,0,0,0,5.49-2,14.85,14.85,0,0,0,4.22-3.31Zm-7.37-1.17a20.77,20.77,0,0,0-2.31-2.38l.81-.8a20,20,0,0,1,2.44,2.46Z" transform="translate(-0.19 -0.35)"/><path class="cls-5" d="M159.37,33.86a2,2,0,0,0,.54-.07l.62.8a1.7,1.7,0,0,0-.69.84c-1.13,3-1.87,4.36-3.48,5.94a11.87,11.87,0,0,1-2.83,2.05l-1-.85a10.59,10.59,0,0,0,4.18-3.23,10.44,10.44,0,0,0,2.1-4.54h-4.16a15.5,15.5,0,0,1-2.77,3l-.91-.69a11.07,11.07,0,0,0,2.56-2.58,8.33,8.33,0,0,0,1.27-2.46l1.08.39c.21.07.28.2.28.27s-.19.14-.45.18c-.23.5-.32.67-.47,1ZM159,31.38a13.38,13.38,0,0,1,1.12,1.35l-.72.54a5.41,5.41,0,0,0-1.12-1.34Zm1.75-.29a11.71,11.71,0,0,1,1.14,1.34l-.7.55a5.47,5.47,0,0,0-1.09-1.35Z" transform="translate(-0.19 -0.35)"/><path class="cls-5" d="M169.35,33.43v.82h4v2.44h-4v.83h4.31v1.66h1.46V40h-1.46v2.31h-1v-.58h-3.32V42.8c0,1-.18,1.06-2.3,1.06l-.29-1.06a5.56,5.56,0,0,0,1,.08c.61,0,.61-.18.61-.49v-.68h-4.57v-.84h4.57V40H162.6v-.8h5.73v-.85h-4.57v-.81h4.57v-.83h-4V34.25h4v-.82H163v-.91h5.33V31.26l1,.08c.1,0,.29,0,.29.15s0,.1-.25.27v.76h5.32v.91Zm-1,2.49V35h-3.07v.9Zm4.12-.9h-3.1v.9h3.1Zm.22,4.16v-.85h-3.32v.85Zm0,1.69V40h-3.32v.89Z" transform="translate(-0.19 -0.35)"/><path class="cls-5" d="M185.39,34.77l.26.18s.15.12.15.2-.17.11-.29.1A3.29,3.29,0,0,1,185,36h2.8v.79h-4.45v.9h4.27v.84h-4.27v.93h5.54v.84h-4.59a8.87,8.87,0,0,0,4.29,2.25l-.82.93a11.9,11.9,0,0,1-4.42-2.85v3.3h-1V40.64a14.91,14.91,0,0,1-4.53,3l-.63-.91a11.73,11.73,0,0,0,4.21-2.45h-4.51v-.84h5.46v-.93h-4.5v-.84h4.5v-.9h-4.71V36h2.8a3.71,3.71,0,0,0-.63-.9l.41-.31h-3.56v-.84h4.48v-2.7l.93.05c.17,0,.28.09.28.16s-.11.17-.27.26v2.23h1.44V31.27l.93.06c.2,0,.27.08.27.12s-.12.17-.23.27v2.21h4.57v.84Zm-5.8-1.06A5.7,5.7,0,0,0,178.35,32l.74-.51a5.87,5.87,0,0,1,1.37,1.71Zm1.2,1.06a3.78,3.78,0,0,1,.63.87l-.56.34h3.62l-.4-.34a3.68,3.68,0,0,0,.6-.87Zm6.12-2.63a8.23,8.23,0,0,1-1.31,1.54L185,33a10.12,10.12,0,0,0,1.47-1.68l.66.42c.09.07.22.14.22.25S187.05,32.15,186.91,32.14Z" transform="translate(-0.19 -0.35)"/><path class="cls-5" d="M198,36.55v.93h-7.3v-.93H196l-.8-.43A7.92,7.92,0,0,0,196,34l.92.37s.18.08.18.18-.14.17-.3.19a11.1,11.1,0,0,1-.7,1.81Zm-4.09-5.32,1.13.05s.23,0,.23.13-.2.25-.3.32v1.11h2.78v.91h-6.5v-.91h2.66Zm-2.23,7.55h5.52v5.08h-1v-.81h-3.57v1h-.95Zm.95-4.85a11.67,11.67,0,0,1,1,2.14l-.92.41a10.27,10.27,0,0,0-1-2.11Zm3.57,8.21V39.69h-3.57v2.45Zm6.9-9.34c-1.07,2.34-1.7,3.41-2,4a4.91,4.91,0,0,1,2,3.81c0,2.11-1.68,2.41-2.82,2.46l-.43-1.2a5.16,5.16,0,0,0,.73,0,1.45,1.45,0,0,0,1.19-.38,1.72,1.72,0,0,0,.38-1.08c0-1.65-1.42-3-2.12-3.65a29,29,0,0,0,1.86-3.69h-2.29V43.92h-1V32.22h3.91Z" transform="translate(-0.19 -0.35)"/><path class="cls-5" d="M208.91,42.94c.2-2.44,1.7-3.46,4.27-4.92,1.52-.87,2.2-1.25,2.2-2.53a2,2,0,0,0-2.27-2,2.4,2.4,0,0,0-2.55,2.58h-1.31a3.63,3.63,0,0,1,.89-2.46,4.06,4.06,0,0,1,3-1.17c1.46,0,3.54.67,3.54,3,0,1.8-1,2.56-2.92,3.57-2.57,1.36-2.93,2.25-3.2,2.9h6.12v1Z" transform="translate(-0.19 -0.35)"/><path class="cls-5" d="M225.63,37.83c0,2.56-.73,5.39-3.87,5.39s-3.86-2.82-3.86-5.39.73-5.4,3.86-5.4S225.63,35.28,225.63,37.83Zm-6.42,0c0,2.39.59,4.34,2.55,4.34s2.55-2,2.55-4.34-.57-4.35-2.55-4.35S219.21,35.53,219.21,37.83Z" transform="translate(-0.19 -0.35)"/><path class="cls-5" d="M230.09,35.46h-2.15v-.91a2.26,2.26,0,0,0,2.49-1.84h1V42.94h-1.31Z" transform="translate(-0.19 -0.35)"/><path class="cls-5" d="M241.8,35a1.89,1.89,0,0,0-2.06-1.52c-2.7,0-2.84,3.07-2.89,4.11a3.35,3.35,0,0,1,2.92-1.42,3.27,3.27,0,0,1,3.5,3.37,3.53,3.53,0,0,1-3.71,3.64c-3.49,0-4-3.39-4-5.17,0-3.64,1.65-5.62,4.19-5.62A3.23,3.23,0,0,1,243.12,35Zm-4.75,4.52a2.42,2.42,0,0,0,2.47,2.61A2.3,2.3,0,0,0,242,39.69a2.77,2.77,0,0,0-.5-1.67,2.27,2.27,0,0,0-1.86-.77A2.32,2.32,0,0,0,237.05,39.56Z" transform="translate(-0.19 -0.35)"/><path class="cls-5" d="M252,40.71V44H251V40.71h-6.29v-1H247V36H251V33.82H247.8a15,15,0,0,1-1.57,1.9l-.91-.58a11.73,11.73,0,0,0,2.78-4,4.55,4.55,0,0,1,1,.43c.17.07.24.11.24.21s-.21.2-.42.23-.21.37-.47.81h8v1H252V36h3.72v1H252v2.77H257v1ZM251,37h-2.92v2.77H251Z" transform="translate(-0.19 -0.35)"/><path class="cls-5" d="M261.43,37h.91c.79,0,2.18-.43,2.18-1.79,0-.79-.45-1.77-2.16-1.77a2.34,2.34,0,0,0-1.82.7,2.37,2.37,0,0,0-.51,1.4h-1.27a3.27,3.27,0,0,1,3.62-3.15c2.06,0,3.42,1.09,3.42,2.68a2.3,2.3,0,0,1-1.8,2.31,2.41,2.41,0,0,1,2.09,2.52c0,1.82-1.4,3.28-3.88,3.28A3.74,3.74,0,0,1,259,41.83a3.53,3.53,0,0,1-.63-2h1.26a2.32,2.32,0,0,0,2.62,2.38c1.72,0,2.59-1,2.59-2.24,0-1.49-1.22-2-2.33-2h-1.07Z" transform="translate(-0.19 -0.35)"/><path class="cls-5" d="M274.74,43.81c-.32,0-.54,0-.75,0l-.41-1.21c.9.09,1.43.12,1.47.12.55,0,.55-.24.55-.87V39h-5.55a8.84,8.84,0,0,1-1.64,4.89l-1-.55c1-1.26,1.69-2.61,1.69-6.16,0-1.26,0-4.26-.08-5.34h7.62v10.3C276.65,43.55,276.28,43.81,274.74,43.81Zm.86-11h-5.48V35h5.48Zm0,3.06h-5.48v2.19h5.48Z" transform="translate(-0.19 -0.35)"/><path class="cls-5" d="M290.65,43.71a10.36,10.36,0,0,1-3.07-2.77A10.78,10.78,0,0,1,285.69,37a10.23,10.23,0,0,1-5.58,6.84l-.77-.94a8.71,8.71,0,0,0,4.39-3.77,12.88,12.88,0,0,0,1.52-6.46h-2.91v-1h4.05c0,.26,0,.43,0,.92,0,.24-.05,1.26-.05,1.47a10.42,10.42,0,0,0,1,4.53,9.4,9.4,0,0,0,4.13,4.16Z" transform="translate(-0.19 -0.35)"/><path class="cls-5" d="M295.46,38.39a10.8,10.8,0,0,1-1.89,1.52l-.88-.66A12.54,12.54,0,0,0,297,35.09h-3.8v-.91h2.26v-2.8l1,.06c.1,0,.34,0,.34.17s0,.11-.3.32v2.25h1.57l.32.37A11.19,11.19,0,0,1,296.78,37,7.87,7.87,0,0,0,299,38.71l-.69.7a6.43,6.43,0,0,1-1.79-1.47v5.91h-1Zm6.27-7,1,.1c.11,0,.29,0,.29.15s-.08.19-.29.35v3.59h2.45v1h-2.45v5.62h2.91v1h-7.25v-1h3.31V36.52h-2.66v-1h2.66Z" transform="translate(-0.19 -0.35)"/></svg>