<svg id="レイヤー_1" data-name="レイヤー 1" xmlns="http://www.w3.org/2000/svg" viewBox="0 0 315 50"><defs><style>.cls-1{fill:#e6e6e5;}.cls-2{fill:#1f2a66;}.cls-3{fill:#040000;}.cls-4{fill:#fff;}.cls-5{fill:#211512;}</style></defs><rect class="cls-1" x="43" width="272" height="50"/><polygon class="cls-2" points="60.84 50 0 50 0 0 60.84 0 81 25.56 60.84 50"/><path class="cls-3" d="M114.31,16.67a11.48,11.48,0,0,1-1.82-3.25v9.94h-1.77V13.79A16.13,16.13,0,0,1,108.45,19l-1.17-1.87a13.84,13.84,0,0,0,3-5.29H108V10.21h2.72V7.15h1.77v3.06h2.34V11.8H112.9a9.78,9.78,0,0,0,2.61,3.27Zm7.94,2.9A20.37,20.37,0,0,1,120,13.72v9.64h-1.77V13.72a17.87,17.87,0,0,1-3,6.39L114,18.55a15.79,15.79,0,0,0,3.71-6.75h-2.23V10.21h2.79V7.15H120v3.06h3V11.8h-2.43a15.58,15.58,0,0,0,3,6Z" transform="translate(1.11 0.04)"/><path class="cls-3" d="M140.5,23.19a16.15,16.15,0,0,1-5.31-2.41,15.19,15.19,0,0,1-5.82,2.56l-.93-1.86a13.68,13.68,0,0,0,5.25-1.82,14.73,14.73,0,0,1-2.93-3.58,17.69,17.69,0,0,1-4.25,6.59L125.28,21c2.83-2.56,4.38-6.52,5.08-9.78H125.7V9.6h5a17,17,0,0,0,.2-2.45h1.83a22,22,0,0,1-.16,2.45h8.52v1.62h-8.77c-.14.74-.33,1.53-.54,2.34h7.81v1.51a11.26,11.26,0,0,1-2.93,4.56,13.57,13.57,0,0,0,4.88,1.67Zm-8.23-8a11.92,11.92,0,0,0,2.86,3.48,8.32,8.32,0,0,0,2.38-3.48Z" transform="translate(1.11 0.04)"/><path class="cls-3" d="M157.54,23.32c-.61,0-1.29-.59-2-1.55-.18-.27-.3-.5-.45-.76a11.32,11.32,0,0,1-3,2.35l-1.13-1.5a10,10,0,0,0,3.4-2.43,24.53,24.53,0,0,1-1.12-5.51h-9.7V12.3h3.8V10.21H144.2V8.68h3.12V7.24h1.76V8.68h3v1.53h-3V12.3h4c-.11-1.57-.14-3.28-.14-5.15h1.8c0,1.94,0,3.64.12,5.15h4.2v1.62H155a23.07,23.07,0,0,0,.63,3.94A14.1,14.1,0,0,0,157,14.51l1.47.94a15.19,15.19,0,0,1-2.12,4.23,9.42,9.42,0,0,0,.52,1c.16.25.33.52.49.52s.56-.55,1-2.55l1.15,1.47C159,22.38,158.34,23.32,157.54,23.32Zm-11.46-2.27v1.46h-1.75V15.42h7.56v5.63Zm4.07-4.1h-4.07v2.59h4.07Zm7.2-5.55a18.58,18.58,0,0,0-2-2.77l1.35-.87a18.37,18.37,0,0,1,2,2.69Z" transform="translate(1.11 0.04)"/><path class="cls-3" d="M171.55,12.25A10.32,10.32,0,0,0,175,17l-1.33,1.32a9.8,9.8,0,0,0-5-1.34c-1.8,0-3.28.54-3.4,1.71,0,.08,0,.15,0,.2,0,1.39,1.69,2.25,4.66,2.25a24.74,24.74,0,0,0,5-.61l-.15,1.93a27.62,27.62,0,0,1-4.66.45c-4.29,0-6.74-1.39-6.74-3.86a4.57,4.57,0,0,1,0-.5c.27-2.18,2.43-3.22,5.06-3.22a11.65,11.65,0,0,1,2.81.36,13.18,13.18,0,0,1-1.66-3.28c-2.55.16-5.2.32-7.69.45l-.14-1.76c1.82,0,4.52-.17,7.33-.35a30.36,30.36,0,0,1-.65-3.17l1.91-.1a16.31,16.31,0,0,0,.54,3.13c2.11-.14,4.1-.32,5.62-.51l.16,1.77C175.11,12,173.35,12.12,171.55,12.25Z" transform="translate(1.11 0.04)"/><path class="cls-3" d="M190.72,22.92h-.43c-4.6-.45-2-6.61-3.62-6.78h-.06c-1,0-3.83,2.63-5.15,6.7l-1.83-.63c1.65-3.9,4.66-11,6.14-14.55l1.78.64c-.92,1.94-2.11,4.71-3.28,7.43a4.51,4.51,0,0,1,2.83-1.51l.2,0c3.15.32.59,6.57,3.2,6.87l.22,0c1.46,0,2.86-1.78,2.86-5.51,0-.27,0-.54,0-.82l1.91.63C195.29,20.33,193.44,22.92,190.72,22.92Z" transform="translate(1.11 0.04)"/><path class="cls-3" d="M200.87,22.08l-.22,0c-1.87-.13-3-2.38-3-5a8.29,8.29,0,0,1,7.78-8.59l.87,0a6.92,6.92,0,0,1,7.2,7.07c0,3.46-2.41,7-7.65,7.24L205.15,21c4.52-.07,6.52-2.76,6.52-5.46a5.31,5.31,0,0,0-4.81-5.34C205.64,15.81,204.22,22.08,200.87,22.08ZM199.46,17c0,1.77.6,3.19,1.41,3.26h0c1.33,0,3.13-4.66,4.07-10C200.85,10.88,199.46,14.3,199.46,17Z" transform="translate(1.11 0.04)"/><path class="cls-3" d="M222.94,22V11L220,12.3l-.59-1.67A7.53,7.53,0,0,0,223.17,8H225V22Z" transform="translate(1.11 0.04)"/><path class="cls-3" d="M245.89,23.36v-1H237.1v1h-1.84V7.69h12.46V23.36Zm0-14H237.1V14h8.79Zm0,6.27H237.1v5.13h8.79Z" transform="translate(1.11 0.04)"/><path class="cls-4" d="M9.05,18.57A5.19,5.19,0,0,1,13,17a5.25,5.25,0,0,1,4.66,2.14,4.76,4.76,0,0,1,.87,2.42H15.84a3.71,3.71,0,0,0-.66-1.41,2.61,2.61,0,0,0-2.11-.84,2.61,2.61,0,0,0-2.25,1.19A6,6,0,0,0,10,23.84a5.19,5.19,0,0,0,.87,3.27,2.71,2.71,0,0,0,2.21,1.08,2.49,2.49,0,0,0,2.09-.93,4.32,4.32,0,0,0,.66-1.5h2.65a5.86,5.86,0,0,1-1.76,3.44,5,5,0,0,1-3.6,1.33,5.4,5.4,0,0,1-4.29-1.79A7.29,7.29,0,0,1,7.28,23.8,7.23,7.23,0,0,1,9.05,18.57Z" transform="translate(1.11 0.04)"/><path class="cls-4" d="M24.17,24.34a3.68,3.68,0,0,0,1-.22.75.75,0,0,0,.54-.71.85.85,0,0,0-.41-.81,2.52,2.52,0,0,0-1.2-.23,1.55,1.55,0,0,0-1.25.44,1.82,1.82,0,0,0-.36.88H20.09a3.76,3.76,0,0,1,.7-2.06,4,4,0,0,1,3.37-1.27,6,6,0,0,1,2.77.62,2.43,2.43,0,0,1,1.21,2.36v4.39c0,.31,0,.68,0,1.11a1.46,1.46,0,0,0,.15.67.89.89,0,0,0,.36.29v.37H26a3.33,3.33,0,0,1-.16-.55c0-.17-.05-.36-.07-.58a4.78,4.78,0,0,1-1.18,1,3.54,3.54,0,0,1-1.81.47,3.12,3.12,0,0,1-2.13-.74,2.68,2.68,0,0,1-.84-2.11,2.74,2.74,0,0,1,1.35-2.56,6.09,6.09,0,0,1,2.18-.61Zm1.51,1.17a2.69,2.69,0,0,1-.48.24,3.85,3.85,0,0,1-.66.17L24,26a3.71,3.71,0,0,0-1.14.34,1.15,1.15,0,0,0-.58,1.07,1.13,1.13,0,0,0,.35.92,1.36,1.36,0,0,0,.87.29A2.52,2.52,0,0,0,25,28.17a2,2,0,0,0,.71-1.73Z" transform="translate(1.11 0.04)"/><path class="cls-4" d="M32.2,27.11a1.77,1.77,0,0,0,.34.95,2.31,2.31,0,0,0,1.71.5,2.55,2.55,0,0,0,1.16-.22.71.71,0,0,0,.43-.66.72.72,0,0,0-.35-.64,13.68,13.68,0,0,0-2.58-.76,5.19,5.19,0,0,1-2.26-1A2.19,2.19,0,0,1,30,23.55a3,3,0,0,1,1-2.28,4.06,4.06,0,0,1,2.89-.95,5.3,5.3,0,0,1,2.88.71,3.06,3.06,0,0,1,1.28,2.48H35.61a1.59,1.59,0,0,0-.27-.77A1.7,1.7,0,0,0,34,22.23a2,2,0,0,0-1.15.26.74.74,0,0,0-.35.59.67.67,0,0,0,.37.63,15.28,15.28,0,0,0,2.58.69,4.67,4.67,0,0,1,2.2,1.07,2.41,2.41,0,0,1,.73,1.8,2.93,2.93,0,0,1-1,2.32,4.88,4.88,0,0,1-3.23.9,4.82,4.82,0,0,1-3.3-.95,3.14,3.14,0,0,1-1.06-2.43Z" transform="translate(1.11 0.04)"/><path class="cls-4" d="M46.3,20.78a3.83,3.83,0,0,1,1.63,1.42,4.92,4.92,0,0,1,.75,2,12.24,12.24,0,0,1,.08,1.9H41.89a2.3,2.3,0,0,0,1,2,2.46,2.46,0,0,0,1.36.36A2.05,2.05,0,0,0,45.61,28a1.9,1.9,0,0,0,.5-.65h2.52a3.15,3.15,0,0,1-.91,1.73,4.56,4.56,0,0,1-3.55,1.39,5.08,5.08,0,0,1-3.32-1.17,4.7,4.7,0,0,1-1.44-3.84,5.23,5.23,0,0,1,1.3-3.82,4.52,4.52,0,0,1,3.37-1.33A5.31,5.31,0,0,1,46.3,20.78ZM42.61,23A2.6,2.6,0,0,0,42,24.43H46.2a2,2,0,0,0-.66-1.51,2.11,2.11,0,0,0-1.46-.52A1.92,1.92,0,0,0,42.61,23Z" transform="translate(1.11 0.04)"/><path class="cls-4" d="M50,27.54h2.62v2.63H50Z" transform="translate(1.11 0.04)"/><path class="cls-4" d="M56.67,26.26a2.75,2.75,0,0,0,.25,1.26,1.64,1.64,0,0,0,1.63.93,1.78,1.78,0,0,0,1.26-.51,1.89,1.89,0,0,0,.54-1.45,1.64,1.64,0,0,0-1-1.68,4.94,4.94,0,0,0-1.79-.24V22.78a4.44,4.44,0,0,0,1.67-.24,1.46,1.46,0,0,0,.82-1.49,1.68,1.68,0,0,0-.42-1.19,1.5,1.5,0,0,0-1.18-.46,1.48,1.48,0,0,0-1.28.56,2.48,2.48,0,0,0-.39,1.51H54.47a6.52,6.52,0,0,1,.32-1.8,4.06,4.06,0,0,1,1-1.38,3.24,3.24,0,0,1,1.15-.69,4.79,4.79,0,0,1,1.63-.24,4.29,4.29,0,0,1,2.9.95,3.14,3.14,0,0,1,1.1,2.53,2.86,2.86,0,0,1-.65,1.9,2.34,2.34,0,0,1-.87.66A1.81,1.81,0,0,1,62,24a3.16,3.16,0,0,1,.94,2.43,4,4,0,0,1-4.36,4.07,4,4,0,0,1-3.71-1.77,5.37,5.37,0,0,1-.6-2.46Z" transform="translate(1.11 0.04)"/><path class="cls-5" d="M83.78,36.91a12.23,12.23,0,0,1,1.75,1.48A27.09,27.09,0,0,0,89,34.75H80.24v-1h9.09a2.11,2.11,0,0,0,.8-.23l.68.93-.57.57a53.61,53.61,0,0,1-4,4.21c.6.7,1,1.16,1.46,1.84l-1.05.7a10.88,10.88,0,0,0-1.82-2.49,9.1,9.1,0,0,0-1.87-1.6Z" transform="translate(1.11 0.04)"/><path class="cls-5" d="M92.46,38.07v-1H102.6v1Z" transform="translate(1.11 0.04)"/><path class="cls-5" d="M115.51,34.6v1h-3.57a12.64,12.64,0,0,1-1.19,4.9,7.18,7.18,0,0,1-2.61,2.86L107,42.67a6.37,6.37,0,0,0,3.08-3.25,9.12,9.12,0,0,0,.71-3.83h-3.18a12.81,12.81,0,0,1-2.36,3.07L104.21,38a10.29,10.29,0,0,0,2.73-3.42,13.82,13.82,0,0,0,1.13-3.29l1.11.43c.13,0,.32.13.32.24s0,.16-.48.25a17.23,17.23,0,0,1-.92,2.36Z" transform="translate(1.11 0.04)"/><path class="cls-5" d="M123.27,36.8a7.57,7.57,0,0,1-1.11,3.92A5.92,5.92,0,0,1,119.22,43l-1-.88a4.87,4.87,0,0,0,2.87-1.91,5.68,5.68,0,0,0,1-3.37H117v-1h10.8v1Zm2.63-3.66h-7v-1h7Z" transform="translate(1.11 0.04)"/><path class="cls-5" d="M133.23,37.85a20.35,20.35,0,0,1-3.13,1.75l-.85-.73a11.47,11.47,0,0,0,3.93-2.06A14.24,14.24,0,0,0,136,34.2l.66.61c.11.09.24.21.24.32s0,.08-.14.08a2,2,0,0,1-.34,0,18.28,18.28,0,0,1-2.24,2v6.23h-.91Z" transform="translate(1.11 0.04)"/><path class="cls-5" d="M148.61,36.57c-1.57,1.57-3.28,3.28-9.19,5.41,0,0-.17.36-.25.36s-.19-.17-.27-.35l-.48-1.15a14.73,14.73,0,0,0,5.5-2,14.93,14.93,0,0,0,4.21-3.3Zm-7.37-1.16A19.23,19.23,0,0,0,138.93,33l.81-.8a17.88,17.88,0,0,1,2.44,2.45Z" transform="translate(1.11 0.04)"/><path class="cls-5" d="M158.07,33.48a2.57,2.57,0,0,0,.55-.07l.61.79a1.75,1.75,0,0,0-.68.84c-1.14,3-1.88,4.36-3.49,5.94A11.6,11.6,0,0,1,152.23,43l-1-.84A10.62,10.62,0,0,0,155.38,39a10.44,10.44,0,0,0,2.1-4.54h-4.16a15.18,15.18,0,0,1-2.77,3l-.91-.68a11.07,11.07,0,0,0,2.56-2.58,8.72,8.72,0,0,0,1.28-2.47l1.07.4c.21.07.28.19.28.26s-.19.14-.44.18c-.24.51-.33.68-.48,1ZM157.71,31a12.19,12.19,0,0,1,1.12,1.34l-.73.55A5.42,5.42,0,0,0,157,31.54Zm1.75-.3a11.69,11.69,0,0,1,1.13,1.35l-.7.54a5.22,5.22,0,0,0-1.09-1.34Z" transform="translate(1.11 0.04)"/><path class="cls-5" d="M168.05,33v.83h4v2.44h-4v.82h4.32V38.8h1.45v.8h-1.45v2.31h-1v-.59h-3.32v1.09c0,1-.18,1.07-2.3,1.07l-.29-1.07a5.32,5.32,0,0,0,1,.09c.6,0,.6-.19.6-.49v-.69h-4.57v-.84H167V39.6H161.3v-.8H167v-.86h-4.57v-.81H167v-.82h-4V33.87h4V33h-5.32v-.91H167V30.87l1,.08c.1,0,.29,0,.29.16s0,.1-.25.27v.75h5.32V33Zm-1,2.5v-.9H164v.9Zm4.12-.9h-3.1v.9h3.1Zm.22,4.16v-.86h-3.32v.86Zm0,1.68V39.6h-3.32v.88Z" transform="translate(1.11 0.04)"/><path class="cls-5" d="M184.1,34.39l.25.18c.05,0,.15.11.15.19s-.17.12-.29.1a3.29,3.29,0,0,1-.48.73h2.8v.8h-4.45v.9h4.27v.84h-4.27v.92h5.55v.84H183a8.89,8.89,0,0,0,4.29,2.26l-.81.92a11.79,11.79,0,0,1-4.43-2.84v3.29h-1V40.26a14.91,14.91,0,0,1-4.52,3l-.63-.91a11.64,11.64,0,0,0,4.2-2.45h-4.51v-.84h5.46v-.92h-4.5v-.84h4.5v-.9h-4.71v-.8h2.81a3.92,3.92,0,0,0-.63-.9l.4-.3h-3.56v-.84h4.49V30.84l.92.06c.17,0,.28.08.28.15s-.11.17-.27.27v2.23h1.45V30.88l.92.06c.2,0,.27.08.27.13s-.11.16-.23.26v2.22h4.57v.84Zm-5.8-1.07a6.09,6.09,0,0,0-1.25-1.75l.74-.5a5.65,5.65,0,0,1,1.38,1.71Zm1.19,1.07a3.53,3.53,0,0,1,.63.86l-.56.34h3.63l-.41-.34a3.47,3.47,0,0,0,.6-.86Zm6.12-2.64a7.59,7.59,0,0,1-1.3,1.54l-.66-.65A9.75,9.75,0,0,0,185.12,31l.66.43c.1.06.22.13.22.25S185.75,31.77,185.61,31.75Z" transform="translate(1.11 0.04)"/><path class="cls-5" d="M196.71,36.17v.92h-7.3v-.92h5.32l-.79-.44a8.59,8.59,0,0,0,.77-2.11l.91.36s.18.08.18.18-.14.17-.3.2a11.53,11.53,0,0,1-.7,1.81Zm-4.09-5.33,1.13.06c.05,0,.23,0,.23.12s-.2.26-.3.33v1.1h2.78v.91H190v-.91h2.66Zm-2.23,7.55h5.52v5.09h-1v-.81h-3.58v.95h-1Zm1-4.84a10.78,10.78,0,0,1,1,2.14l-.91.41a10.1,10.1,0,0,0-1-2.12Zm3.58,8.2V39.3h-3.58v2.45Zm6.89-9.34c-1.07,2.34-1.7,3.42-2,4a4.91,4.91,0,0,1,2,3.81c0,2.12-1.68,2.41-2.82,2.47l-.43-1.21a5.16,5.16,0,0,0,.73,0,1.48,1.48,0,0,0,1.19-.37,1.7,1.7,0,0,0,.38-1.08c0-1.66-1.42-3-2.12-3.66a31,31,0,0,0,1.87-3.68h-2.3V43.53h-1V31.84h3.91Z" transform="translate(1.11 0.04)"/><path class="cls-5" d="M207.6,42.55c.21-2.43,1.71-3.46,4.27-4.91,1.53-.87,2.21-1.25,2.21-2.54a2,2,0,0,0-2.27-2,2.4,2.4,0,0,0-2.55,2.57h-1.33a3.8,3.8,0,0,1,.91-2.46,4,4,0,0,1,2.95-1.16c1.45,0,3.55.67,3.55,3,0,1.81-1.05,2.58-2.92,3.57-2.58,1.38-2.93,2.26-3.21,2.9h6.13v1Z" transform="translate(1.11 0.04)"/><path class="cls-5" d="M219.91,42.83c-3.14,0-3.88-2.81-3.88-5.39s.74-5.39,3.88-5.39,3.86,2.84,3.86,5.39S223,42.83,219.91,42.83Zm0-9.73c-2,0-2.55,2-2.55,4.34s.58,4.34,2.55,4.34,2.55-2,2.55-4.34S221.88,33.1,219.91,33.1Z" transform="translate(1.11 0.04)"/><path class="cls-5" d="M227.68,42.55V35.07h-2.16v-.91A2.23,2.23,0,0,0,228,32.33h1V42.55Z" transform="translate(1.11 0.04)"/><path class="cls-5" d="M235.8,42.55h-1.34A16.23,16.23,0,0,1,236,37.62a16.82,16.82,0,0,1,2.8-4.24h-6.1V32.33h7.48v1.05A16.93,16.93,0,0,0,235.8,42.55Z" transform="translate(1.11 0.04)"/><path class="cls-5" d="M248.92,40.33v3.25h-1.07V40.33h-6.29v-1h2.36V35.59h3.93V33.43h-3.16a16.91,16.91,0,0,1-1.57,1.91l-.91-.59a11.48,11.48,0,0,0,2.77-4,4.36,4.36,0,0,1,1,.44c.17.07.24.11.24.21s-.21.19-.42.22-.21.38-.46.81h8v1h-4.37v2.16h3.71v1h-3.71v2.77h4.91v1Zm-1.07-3.76h-2.91v2.77h2.91Z" transform="translate(1.11 0.04)"/><path class="cls-5" d="M259.32,42.55V35.07h-2.16v-.91a2.23,2.23,0,0,0,2.48-1.83h1V42.55Z" transform="translate(1.11 0.04)"/><path class="cls-5" d="M268.07,42.83c-3.14,0-3.88-2.81-3.88-5.39s.74-5.39,3.88-5.39,3.86,2.84,3.86,5.39S271.2,42.83,268.07,42.83Zm0-9.73c-2,0-2.55,2-2.55,4.34s.59,4.34,2.55,4.34,2.55-2,2.55-4.34S270,33.1,268.07,33.1Z" transform="translate(1.11 0.04)"/><path class="cls-5" d="M282.78,43.42c-.32,0-.54,0-.75,0l-.41-1.2c.9.08,1.43.11,1.47.11.55,0,.55-.24.55-.87V38.62h-5.55a8.84,8.84,0,0,1-1.64,4.88l-1-.54c1-1.26,1.69-2.62,1.69-6.16,0-1.26,0-4.26-.08-5.34h7.62V41.75C284.69,43.17,284.32,43.42,282.78,43.42Zm.86-11h-5.48v2.16h5.48Zm0,3.07h-5.48v2.18h5.48Z" transform="translate(1.11 0.04)"/><path class="cls-5" d="M290.68,42.55V35.07h-2.16v-.91A2.23,2.23,0,0,0,291,32.33h1V42.55Z" transform="translate(1.11 0.04)"/><path class="cls-5" d="M305.76,43.39V42.23h-6.17v1.16h-1.06V31.72h8.29V43.39Zm0-10.64h-6.17V36.5h6.17Zm0,4.73h-6.17v3.8h6.17Z" transform="translate(1.11 0.04)"/></svg>