 <svg id="レイヤー_1" data-name="レイヤー 1" xmlns="http://www.w3.org/2000/svg" viewBox="0 0 407.79 525.29"><defs><style>.cls-1{fill:none;stroke:#000;stroke-miterlimit:10;stroke-width:0.71px;}</style></defs><path d="M23.79,86.36a4.05,4.05,0,0,1-4.1-2.83l1.22-.81A3.15,3.15,0,0,0,23.78,85c1.42,0,2.26-.7,2.26-1.7s-.59-1.49-1.89-1.94l-1.59-.55c-1.72-.62-2.46-1.37-2.46-2.86s1.37-3,3.56-3c1.87,0,3.09.69,3.68,2.19L26.12,78a2.38,2.38,0,0,0-2.41-1.71c-1.29,0-2.06.72-2.06,1.57s.45,1.19,1.6,1.57l1.64.53c1.76.61,2.77,1.5,2.77,3.17C27.66,85.13,26.28,86.36,23.79,86.36Z" transform="translate(-4.21 -21.28)"/><path d="M38.69,86.11V80c0-.75.07-2.18.1-3h0a13.47,13.47,0,0,1-.34,1.36l-2.61,7.71H34.31l-2.59-7.66c-.11-.33-.31-1-.41-1.41h0c0,.78.07,2,.07,3v6.07H29.94V75.18h2.2l2.56,7.64A8,8,0,0,1,35,84.09h0a8.65,8.65,0,0,1,.32-1.27L38,75.18h2.21V86.11Z" transform="translate(-4.21 -21.28)"/><path d="M47,86.11H42.71V75.18h4c2,0,3.35,1.11,3.35,2.71a2.18,2.18,0,0,1-1.75,2.36v0a2.69,2.69,0,0,1,2.39,2.79C50.73,85,49.25,86.11,47,86.11Zm-.57-9.63H44.3v3.28h2.37c1,0,1.84-.49,1.84-1.57C48.51,77,47.41,76.48,46.45,76.48ZM46.78,81H44.3v3.74h2.51c1.36,0,2.34-.66,2.34-1.89S47.93,81,46.78,81Z" transform="translate(-4.21 -21.28)"/><path d="M59.38,82.89v4.27H58v-4l-2.21.39-.29-1.37c.86-.11,1.88-.27,2.5-.39V78.59h-.8a10.06,10.06,0,0,1-.38,1.91l-1.24-.44a16,16,0,0,0,.57-4.28h0l1.26.1s0,.6-.08,1.46H58V74.55h1.34v2.78h1.24v1.26H59.38v3a12.49,12.49,0,0,0,1.36-.39v1.29S59.94,82.75,59.38,82.89Zm7.4-3.17v1.42H68v1.19H66.78v3.11c0,1.37-.6,1.72-2.66,1.72l-.7-1.35c1.82,0,2-.11,2-.46v-3H61V81.14h4.4V79.72H60.8V78.53h2.86V77.1H61.29V75.91h2.37V74.55H65v1.36h2.46V77.1H65v1.43h3.08v1.19ZM63,85.31a12.88,12.88,0,0,0-1.41-2l1.06-.71a24.07,24.07,0,0,1,1.5,1.9Z" transform="translate(-4.21 -21.28)"/><path d="M73.08,78.15v9H71.66V79.75a12.93,12.93,0,0,1-1.48,1.36l-.68-1.38a13.62,13.62,0,0,0,4.08-5.18l1.27.51A14.11,14.11,0,0,1,73.08,78.15Zm7,8.63H76.61a1.22,1.22,0,0,1-1.32-1.25V74.83H76.7V79.5A10.43,10.43,0,0,0,81,76.74l1,1A14.41,14.41,0,0,1,76.7,81V85c0,.36.23.49.56.49h2c1.36,0,1.41-.24,1.41-2.07v-.34l1.42.76C82.12,86.33,81.37,86.78,80.13,86.78Z" transform="translate(-4.21 -21.28)"/><path d="M83.5,86.7V85.44h5.55V83.8H84.71V82.58h4.34v-.79h1.44v.79h4.4V83.8h-4.4v1.64h5.62V86.7Zm6-7.43v2.12H88.12V79.27H86.64A3.23,3.23,0,0,1,84.75,82l-1-1a2,2,0,0,0,1.56-1.65H83.66V78.1h1.76V76.25H84.13V75.08h6.71v1.17H89.5V78.1h1.71v1.17Zm-1.38-3H86.77V78.1h1.35Zm3.65,3.4V75.24h1.37v4.41Zm1.33,2.16-.49-1.33c1.64,0,1.65-.1,1.65-.49v-5.3h1.37V80C95.63,81.35,95.34,81.67,93.1,81.81Z" transform="translate(-4.21 -21.28)"/><path d="M100.29,86.16h-.17c-1.45-.1-2.34-1.85-2.34-3.88a6.44,6.44,0,0,1,6-6.68c.23,0,.45,0,.68,0a5.39,5.39,0,0,1,5.6,5.51c0,2.68-1.88,5.4-6,5.63l-.54-1.39c3.52-.06,5.08-2.14,5.08-4.24A4.13,4.13,0,0,0,105,76.91C104,81.29,102.9,86.16,100.29,86.16Zm-1.09-4c0,1.37.46,2.48,1.09,2.53h0c1,0,2.44-3.63,3.17-7.76A5,5,0,0,0,99.2,82.19Z" transform="translate(-4.21 -21.28)"/><path d="M121.08,79.23V80c0,3.88-.15,5.54-5.15,7L115,85.67c4-.61,4.74-2.22,4.74-4.55V79.23h-4v3.19h-1.37V79.23h-2.66V77.87h2.66V74.94h1.37v2.93h4V74.94h1.35v2.93H124v1.36Z" transform="translate(-4.21 -21.28)"/><path d="M127.14,87l-.82-1.26c7-.83,8.71-4.09,9.44-7.61H130.5a15.43,15.43,0,0,1-3.68,3.36l-.92-1.09a12.38,12.38,0,0,0,4.91-5.59l1.51.25c-.28.6-.57,1.18-.89,1.72h6.06C136.62,82.47,134.61,85.7,127.14,87Z" transform="translate(-4.21 -21.28)"/><path d="M147.56,83.24l-1.14-1.07a5.53,5.53,0,0,0,3.35-2.94l-5.15.55-.07,4.2v.07c0,.85.23,1,1,1.11.58,0,1.47.08,2.39.08a30.26,30.26,0,0,0,3.49-.17l0,1.42c-.79.05-1.87.09-3,.09-1,0-2,0-2.87-.09-1.73-.14-2.37-.72-2.37-2.24v-.06l0-4.27-3.38.35-.19-1.36,3.58-.35,0-3.62h1.4l-.06,3.48,7-.7C151.46,80.5,149.77,82.06,147.56,83.24Z" transform="translate(-4.21 -21.28)"/><path d="M165,86.58a45.59,45.59,0,0,1-4.1-4c-1.31,1.64-3.21,2.79-6.18,4.1l-.95-1.21c5.4-1.94,7.2-4.39,7.87-8.27H155V75.9h8.38a17.21,17.21,0,0,1-1.68,5.56,30,30,0,0,0,4.23,3.77Z" transform="translate(-4.21 -21.28)"/><path d="M170.85,86.89l-.91-1.26c5.83-1.5,7.27-4.38,7.7-8.08h-9.2V76.19h9a1.74,1.74,0,0,0,1.65,1.37C178.51,82.27,176.64,85.14,170.85,86.89Zm8.29-9.72a1.35,1.35,0,1,1,1.35-1.34A1.34,1.34,0,0,1,179.14,77.17Zm0-2a.7.7,0,1,0,.7.7A.69.69,0,0,0,179.14,75.13Z" transform="translate(-4.21 -21.28)"/><path d="M184.53,86.71l-.65-1.4c6.13-.22,7.55-2.77,7.88-5.14h-9.53V78.82h11.14C193,83.6,191,86,184.53,86.71Zm-.87-9.83V75.53h8.43v1.35Z" transform="translate(-4.21 -21.28)"/><path d="M198.32,82.3a23.23,23.23,0,0,0-1.16-3.38l1.19-.36a34.41,34.41,0,0,1,1.19,3.35ZM199.8,87,199,85.94c5.08-1.08,5.77-2.68,5.91-7.68l1.29.17C205.87,84,205,85.53,199.8,87Zm1.25-5.5a21,21,0,0,0-.67-3.39l1.24-.17a20.26,20.26,0,0,1,.69,3.35Z" transform="translate(-4.21 -21.28)"/><path d="M220.68,82.82A49.38,49.38,0,0,1,214,80.24v6.9h-1.38V75H214v3.75a41.68,41.68,0,0,0,7.33,2.82Z" transform="translate(-4.21 -21.28)"/><path d="M226.85,86.72l-.91-1.26c5.83-1.5,7.27-4.38,7.7-8.08h-9.2V76h10.8C234.82,81.57,233.15,84.82,226.85,86.72Z" transform="translate(-4.21 -21.28)"/><path d="M246.17,80.63l.13,4.93c0,1-.38,1.32-1.32,1.32h-.12c-.45,0-1-.06-1.58-.14l-.05-1.3a13.89,13.89,0,0,0,1.54.19h.09c.18,0,.21,0,.21-.26L245,81.21a16.91,16.91,0,0,1-5.08,4.52l-1-1a15.45,15.45,0,0,0,5-4.13h-4.61V79.45h5.6l0-2h1.19l.06,2h2.34v1.18Z" transform="translate(-4.21 -21.28)"/><path d="M252,81.36V80h11.65v1.39Z" transform="translate(-4.21 -21.28)"/><path d="M276.72,86.79c-.25-.51-.57-1.09-.92-1.69-2.66.48-6.59,1-9.83,1.25l-.31-1.29a55.82,55.82,0,0,0,5.1-9.78l1.44.32a67.73,67.73,0,0,1-4.72,9.19c2-.11,5.28-.48,7.65-.85-.72-1.19-1.49-2.36-2.1-3.18l1.2-.65A69.21,69.21,0,0,1,278,86Z" transform="translate(-4.21 -21.28)"/><path d="M288,82V84.4h-1.38V82.56c-1.46.66-2.5,1.32-2.5,2v.07c.06.56,1.26.8,2.9.8a26,26,0,0,0,3.59-.28v1.45c-1,.09-2.16.16-3.21.16-2.42,0-4.51-.4-4.68-2a1.62,1.62,0,0,1,0-.22c0-1.55,1.66-2.54,3.88-3.49a1,1,0,0,0-1.1-1c-1,0-2.56,1-4.39,3.47l-1.21-.85a19.91,19.91,0,0,0,3.6-5l-3,0V76.47h3.57c.24-.61.44-1.18.59-1.71l1.54.25c-.21.52-.4,1-.59,1.44l4.71,0v1.28l-5.28,0a12.84,12.84,0,0,1-.91,1.61,4.11,4.11,0,0,1,1.68-.41,2,2,0,0,1,2.09,1.63c1-.4,2.09-.82,3.13-1.31l.72,1.32C290.53,81,289.2,81.51,288,82Z" transform="translate(-4.21 -21.28)"/><path d="M305.69,86.81H304c-2.44,0-3.35-.42-4.44-1.85a6.88,6.88,0,0,1-1.33,2.2l-1.07-1a5.43,5.43,0,0,0,1.77-3.73l1.33.23A11,11,0,0,1,300,83.7a3.45,3.45,0,0,0,1.25,1.39V81.91h-3.46v-.3a7.32,7.32,0,0,1-.95.34v3c0,1.54-.12,2-2.25,2.15L294,85.74c1.48,0,1.51,0,1.51-.75V82.3c-.49.12-1,.25-1.64.38l-.36-1.32c.77-.11,1.41-.24,2-.38V78.31h-1.68V77h1.68V74.55h1.35V77h1.23v1.27h-1.23v2.35c.63-.17,1.19-.38,1.19-.38v.51h8v1.12h-3.39V83h2.63V84.1h-2.63v1.43c.31,0,.7,0,1.12,0,1.1,0,2.35,0,2.35,0ZM298.79,80V75h6.38v5Zm5-3.94h-3.65V77h3.65Zm0,1.87h-3.65v1h3.65Z" transform="translate(-4.21 -21.28)"/><path d="M310.45,78v9.19h-1.38V80a9,9,0,0,1-.85,1.11l-.83-1.54a12.59,12.59,0,0,0,3-5l1.32.39A14.14,14.14,0,0,1,310.45,78Zm.58,4.89V81.6h2.13v-3h-1.61V77.34h1.61V74.72h1.38v2.62h2.15V74.72h1.37v2.62h1.45V78.6h-1.45v3h2.05v1.26Zm1.33,4.3-1.16-1a9.63,9.63,0,0,0,2.24-2.87l1.22.64A13.36,13.36,0,0,1,312.36,87.16Zm4.33-8.56h-2.15v3h2.15Zm2.08,8.56A21,21,0,0,1,316.55,84l1.14-.7a20.26,20.26,0,0,0,2.25,2.9Z" transform="translate(-4.21 -21.28)"/><path d="M329.81,77.82V80a3.31,3.31,0,0,1,.76,1.73c0,.23,0,.47,0,.71,0,2-1.14,4.23-5.55,4.82l-.83-1.42c3.28-.11,4.53-1.27,4.88-2.5a2.75,2.75,0,0,1-2,.77,3.49,3.49,0,0,1-1-.17,2.36,2.36,0,0,1-1.57-2.3,2.62,2.62,0,0,1,1.55-2.41,3.43,3.43,0,0,1,1.36-.29,2.87,2.87,0,0,1,1,.15V77.83l-6.73,0v-1.3l6.73,0V74.8h1.39v1.71l4.06,0v1.31Zm-1.11,3.57a1.17,1.17,0,0,0-1.23-1.22,1.73,1.73,0,0,0-.8.19,1.29,1.29,0,0,0-.75,1.17,1.1,1.1,0,0,0,.71,1.08,2,2,0,0,0,.63.09,1.33,1.33,0,0,0,1.44-1.28Z" transform="translate(-4.21 -21.28)"/><path d="M342.19,87c-2.06,0-3.94-.82-3.94-2.2a1.82,1.82,0,0,1,.11-.63A2,2,0,0,1,340.42,83a4.93,4.93,0,0,1,4,2.21A2.45,2.45,0,0,0,346,83.52a2.37,2.37,0,0,0,.05-.44c0-1.22-1.27-1.92-3-1.92a9,9,0,0,0-6.08,2.66l-.88-1.16a73.92,73.92,0,0,0,6.33-5.84l-4.71.14V75.59l7.1-.14v1.2c-1.2,1.1-2.91,2.66-4.19,3.69a8.49,8.49,0,0,1,2.72-.48c2.47,0,4.16,1.32,4.16,3.24a3.52,3.52,0,0,1-.05.64C347,86,344.47,87,342.19,87Zm-1.78-2.75c-.35,0-.62.11-.7.32a.34.34,0,0,0,0,.16c0,.54,1.15.94,2.48.94a6.42,6.42,0,0,0,.74-.05A3.43,3.43,0,0,0,340.41,84.23Z" transform="translate(-4.21 -21.28)"/><path d="M21,40V30.69c0-1.54.17-5.16.24-6.51h-.12a20.81,20.81,0,0,1-.72,3.87L17,40H13.38L9.85,28.09a24.61,24.61,0,0,1-.77-3.91H9c.09,1.44.24,4.9.24,6.58V40h-3V21.28h4.92l3.53,12c.29,1.05.46,2.93.53,3.21h.07c.07-.26.24-2.18.48-3.19l3.44-12.07h5.08V40Z" transform="translate(-4.21 -21.28)"/><path d="M28.11,24.73V21.28h3.55v3.45ZM28.18,40V26.68h3.44V40Z" transform="translate(-4.21 -21.28)"/><path d="M40.11,40.29a7.35,7.35,0,0,1-5.9-2.57l1.46-2.4a6.31,6.31,0,0,0,4.54,2.35c1.46,0,2.13-.53,2.13-1.37,0-1-.79-1.51-3.07-2-3.29-.67-4.63-2.11-4.63-4.08,0-2.21,1.94-3.84,5.45-3.84,2.42,0,4.46.82,5.42,2.09l-1.37,2.3A5.24,5.24,0,0,0,40,28.86c-1.34,0-2,.53-2,1.28s.45,1.12,2.57,1.56c3.59.74,5.23,2.16,5.23,4.58S43.88,40.29,40.11,40.29Z" transform="translate(-4.21 -21.28)"/><path d="M53.5,40.29a7.35,7.35,0,0,1-5.9-2.57l1.46-2.4a6.31,6.31,0,0,0,4.54,2.35c1.46,0,2.13-.53,2.13-1.37,0-1-.79-1.51-3.07-2C49.38,33.64,48,32.2,48,30.23,48,28,50,26.39,53.48,26.39c2.42,0,4.46.82,5.42,2.09l-1.36,2.3a5.26,5.26,0,0,0-4.11-1.92c-1.34,0-2,.53-2,1.28s.45,1.12,2.57,1.56c3.6.74,5.23,2.16,5.23,4.58S57.27,40.29,53.5,40.29Z" transform="translate(-4.21 -21.28)"/><path d="M61.85,24.73V21.28h3.56v3.45ZM61.93,40V26.68h3.43V40Z" transform="translate(-4.21 -21.28)"/><path d="M74.91,40.29c-4.18,0-6.82-2.74-6.82-6.94s2.64-7,6.82-7,6.79,2.74,6.79,7S79.13,40.29,74.91,40.29Zm0-11.16c-1.94,0-3.36,1.58-3.36,4.22s1.42,4.23,3.36,4.23,3.34-1.59,3.34-4.23S76.93,29.13,74.91,29.13Z" transform="translate(-4.21 -21.28)"/><path d="M93.25,40V31.6a2.27,2.27,0,0,0-2.38-2.47,3.1,3.1,0,0,0-3.07,2.16V40H84.39V26.68h3.12v1.7c.62-1.22,2.11-2,4.32-2a4.61,4.61,0,0,1,4.85,4.73V40Z" transform="translate(-4.21 -21.28)"/><path d="M203.84,327.28V326h12.33v1.33Zm1-9.29v-1.33h10.33V318Zm.61,4.44V321.1h9.11v1.33Z" transform="translate(-4.21 -21.28)"/><path d="M222.63,319.07c0,.77,0,1.46-.08,2.07h6.24c0,6.36-.35,6.71-3.79,6.71l-.56-1.38h1c1.66,0,1.9-.29,1.9-4.07h-5a7,7,0,0,1-3.57,5.64l-1-1.2c3.26-1.84,3.4-4,3.4-7.78H218v-1.26h5.35v-2.14h1.43v2.14H230v1.26Z" transform="translate(-4.21 -21.28)"/><path d="M243.4,328.05a10.6,10.6,0,0,1-5.91-5.17h-3.06v3.31a23.1,23.1,0,0,0,3.64-1.11l.21,1.28a28.55,28.55,0,0,1-6.12,1.65l-.38-1.4s.54,0,1.28-.17v-9.71h4.24v-1.29h1.43v1.29h4.11v6.15H239a7.81,7.81,0,0,0,1.56,1.88,9.47,9.47,0,0,0,1.66-1.84l1.11.82a9,9,0,0,1-1.81,1.8,10.12,10.12,0,0,0,2.78,1.29Zm-1.94-10.13h-7v1.26h7Zm0,2.38h-7v1.39h7Z" transform="translate(-4.21 -21.28)"/><path d="M251.3,327.81c-1.94,0-3.54-1.1-3.54-3.29v-.15c0-1.08.11-4.49.11-6.8,0-.56,0-1.05,0-1.43h1.52c0,2-.15,6.08-.21,8.17v.07a2,2,0,0,0,2.18,2c1.89,0,4.44-1.61,5.18-5l1.31.8A7,7,0,0,1,251.3,327.81Z" transform="translate(-4.21 -21.28)"/><path d="M207.05,367.78l-.91-1.26c5.82-1.49,7.27-4.38,7.7-8.08h-9.2v-1.36h9a1.75,1.75,0,0,0,1.65,1.38C214.71,363.16,212.83,366,207.05,367.78Zm8.29-9.72a1.35,1.35,0,0,1,0-2.69,1.35,1.35,0,1,1,0,2.69Zm0-2a.7.7,0,1,0,.7.7A.7.7,0,0,0,215.34,356Z" transform="translate(-4.21 -21.28)"/><path d="M227.45,367v-.56h-6.89V367h-1.37V357h9.63v10Zm0-8.63h-6.89v6.71h6.89Z" transform="translate(-4.21 -21.28)"/><path d="M235.05,367.62l-.91-1.26c5.82-1.5,7.27-4.39,7.7-8.09h-9.2v-1.36h10.8C243,362.46,241.35,365.71,235.05,367.62Z" transform="translate(-4.21 -21.28)"/><path d="M247.33,366.94v-1.19h4v-5h-3.08v-1.19h7.41v1.19h-3.1v5h4.09v1.19Z" transform="translate(-4.21 -21.28)"/><path d="M262.52,363.19a24.53,24.53,0,0,0-1.17-3.38l1.19-.36a30.55,30.55,0,0,1,1.19,3.35ZM264,367.9l-.8-1.07c5.09-1.08,5.77-2.67,5.91-7.67l1.29.16C270.07,364.88,269.18,366.43,264,367.9Zm1.25-5.51a21,21,0,0,0-.67-3.39l1.24-.17a20.26,20.26,0,0,1,.69,3.35Z" transform="translate(-4.21 -21.28)"/><path d="M278.24,362.27a26.66,26.66,0,0,0-3.92-1.64l.63-1.19a30.41,30.41,0,0,1,4,1.58Zm-2.7,5.43-.47-1.43c6.26-.32,8.31-2.45,9.7-7.52l1.27.85C284.05,365.12,282.38,366.89,275.54,367.7Zm4.34-8.59a35.36,35.36,0,0,0-3.88-1.78l.7-1.17a32.41,32.41,0,0,1,3.93,1.74Z" transform="translate(-4.21 -21.28)"/><path d="M296.62,367.24v-.38H290V365.7h6.58v-2H290.5v-1.19h6.12v-1.88h-6.38v-1.16h7.59v7.8Z" transform="translate(-4.21 -21.28)"/><path d="M309.17,360.84c0,3.36,0,5.25-4.61,7.2l-1.18-1.21c4.37-1.25,4.41-3.22,4.41-5.84v-.15h-5.7v-1.36h5.7v-3.64h1.38v3.64h4.75v1.36Z" transform="translate(-4.21 -21.28)"/><path d="M319.71,357.26c0,.75,0,1.45,0,2.15s0,1.19,0,1.78a9.33,9.33,0,0,1-2.59,6.59l-1.1-1.23c1.41-1.15,2.16-2.7,2.3-5.34,0-.63,0-1.26,0-1.89,0-.85,0-1.7,0-2.62h1.39Zm1.52,10.24V356.19h1.38v9.52a7.29,7.29,0,0,0,4.53-4.83l1.13.9A8.62,8.62,0,0,1,321.23,367.5Z" transform="translate(-4.21 -21.28)"/><path d="M334.79,363v.1c0,1.91,1.82,3.05,4.7,3.05.31,0,.63,0,1,0l-.21,1.49h-.06c-4.63,0-6.82-1.64-6.82-4.43v-.18a5.61,5.61,0,0,1,3.18-4.62c-2.37.14-5,.25-6.43.35l0-1.39c3-.14,8.17-.35,11.42-.49v1.33C337.18,358.36,334.86,360.81,334.79,363Zm5.65-1.3a16.24,16.24,0,0,0-1-1.58l.87-.47a16.31,16.31,0,0,1,1,1.56Zm1.43-.79a10.28,10.28,0,0,0-1-1.52l.87-.45a13.51,13.51,0,0,1,1,1.48Z" transform="translate(-4.21 -21.28)"/><path d="M349.22,358.71c0,.49,0,1,0,1.52a7.79,7.79,0,0,1,1.73-.18l.76,0c2.93.21,4.4,2,4.4,3.89s-1.71,3.95-5.14,3.95l-.67,0-.31-1.43a6.49,6.49,0,0,0,1.13.1c2.29,0,3.56-1.32,3.56-2.65a2.41,2.41,0,0,0-1.32-2.07c-1.45,2.1-5.1,5.39-7.49,5.39a1.93,1.93,0,0,1-1.39-.53,1.9,1.9,0,0,1-.49-1.35c0-1.55,1.32-3.71,3.85-4.73,0-.65,0-1.28.05-1.91l-3.48,0v-1.32l3.55,0c0-.62.08-1.2.15-1.74l1.4.07c-.07.5-.12,1.05-.17,1.65l5.65,0v1.3Zm-1.4,3.35a4.26,4.26,0,0,0-2.47,3.11.7.7,0,0,0,.2.54.63.63,0,0,0,.46.16,4.51,4.51,0,0,0,1.95-.8C347.89,364.16,347.83,363.13,347.82,362.06Zm3.15-.73a7.37,7.37,0,0,0-1.81.21c0,.91,0,1.8.07,2.6a13.6,13.6,0,0,0,2.69-2.76A6.9,6.9,0,0,0,351,361.33Z" transform="translate(-4.21 -21.28)"/><path d="M368.16,367a1.53,1.53,0,0,1-.68-.14c-.73-.35-1-1-1-2s.28-2.61.52-4.79c0-.16,0-.3,0-.42,0-.54-.16-.79-.48-.79a2.09,2.09,0,0,0-1.06.51,28.52,28.52,0,0,0-3.15,2.83c0,1.34-.05,2.69-.05,3.88,0,.65,0,1.23,0,1.76l-1.46,0c0-1.29,0-2.73.07-4.22-.71.74-1.49,1.58-2.35,2.54l-.93-1.15c1.35-1.3,2.45-2.44,3.34-3.36,0-.62,0-1.4,0-2.17l-2.93.18L358,358.4l3-.2c0-.89.05-1.75.07-2.52l1.41,0c-.06,1.12-.11,2.78-.15,4.57a17,17,0,0,1,2.39-2.07,3.54,3.54,0,0,1,2-.75c1,0,1.75.75,1.75,2.25a5.33,5.33,0,0,1,0,.67c-.28,2.31-.49,3.63-.49,4.33,0,.4.07.61.22.68a.46.46,0,0,0,.2.05c.49,0,1.16-.73,1.71-1.64l.69,1.55A3.76,3.76,0,0,1,368.16,367Z" transform="translate(-4.21 -21.28)"/><path d="M206.39,399v9H205v-7.34a11.85,11.85,0,0,1-.74,1.14l-.6-1.41a12.37,12.37,0,0,0,2.83-5l1.19.49A15.83,15.83,0,0,1,206.39,399Zm9-1.57v8.78c0,1.3-.38,1.72-2.75,1.72l-.6-1.26c1.88,0,2-.11,2-.46v-8.78h-6.15v-1.24h8.45v1.24Zm-6,6.82v1.08h-1.35v-6.07h4.56v5Zm1.86-3.83h-1.86v2.67h1.86Z" transform="translate(-4.21 -21.28)"/><path d="M229.37,404v2.62H228V406h-3.27c0,1.34-.43,2.1-3,2.1l-.62-1.36h.49c1.45,0,1.68-.14,1.68-.74h-4.62v-1.11h4.62V404h-5.6v-1h5.6v-.77h-4.63V401.2h4.63v-.7H219v-2.65h4.31v-.68H218V396.1h5.35v-.66h1.43v.66h5.42v1.07h-5.42v.68h4.39v2.65h-4.39v.7h4.64V403h.94v1Zm-6.07-5.29h-2.9v.85h2.9Zm4.4,0h-3v.85h3Zm.3,3.51h-3.27V403H228Zm0,1.78h-3.27v.81H228Z" transform="translate(-4.21 -21.28)"/><path d="M243.47,405.3c0,1.66-1.43,2.46-3.77,2.55a4.18,4.18,0,0,1-.49,0c-2.65,0-3.81-1-3.81-3.07a6.24,6.24,0,0,1,0-.83c.05-.36.12-.93.19-1.63-1.14,0-2.23,0-3.25,0v-1.37c.92.07,2.11.1,3.37.11,0-.52.1-1.06.14-1.64-1,0-1.93,0-2.91-.05V398c.89.05,1.91.07,3,.09,0-.8.08-1.6.09-2.37l1.49.06c0,.71-.1,1.51-.17,2.31,1.5,0,3-.06,4.18-.14l0,1.4c-1.29,0-2.74.07-4.26.07,0,.52-.08,1-.15,1.64,1.81,0,3.73-.07,5-.17v1.39c-1.61.05-3.39.07-5.15.07-.07.74-.14,1.35-.18,1.77a3.76,3.76,0,0,0,0,.56c0,1.31.63,1.83,2.31,1.83a4.18,4.18,0,0,0,.49,0c1.25-.05,2.31-.33,2.31-1.4a4.65,4.65,0,0,0-.88-2.23l1.72.12A5.1,5.1,0,0,1,243.47,405.3Z" transform="translate(-4.21 -21.28)"/><path d="M246,402.21v-1.36h12.07v1.36Z" transform="translate(-4.21 -21.28)"/><path d="M259.84,407.45v-1.29h5.86v-2.75h-4v-1.26h4v-2.57h-3.06a12.34,12.34,0,0,1-1.5,2.1l-1.23-1a11.44,11.44,0,0,0,2.69-4.51l1.4.28a14,14,0,0,1-.73,1.83h2.43v-2.88h1.45v2.88h4.2v1.26h-4.2v2.57h3.64v1.26h-3.64v2.75h5v1.29Z" transform="translate(-4.21 -21.28)"/><path d="M274.91,407.39l-1.2-.82a9.92,9.92,0,0,0,1.56-2.11l1.19.57A10.36,10.36,0,0,1,274.91,407.39Zm.15-3.3-1-.84a4.77,4.77,0,0,0,1.4-1.43l1,.57A9,9,0,0,1,275.06,404.09Zm2.91-2.41v2.43h-1.23v-2.43h-2.49v-5.17h1.21v4.23h4.24v.94ZM276,400.23v-4.49h3.53v4.49Zm6.05,7.44h-3.67c-1.14,0-1.57-.68-1.57-1.65v-1.46h1.43v1.17c0,.54.11.71.6.71h2.86c.52,0,.74,0,.88-1.16l1.41.7C283.74,407.63,282.92,407.67,282.08,407.67Zm-3.62-11.2h-1.34V397h1.34Zm0,1.2h-1.34v.58h1.34Zm0,1.22h-1.34v.63h1.34Zm.56,4.72a10.63,10.63,0,0,0-.85-1.26l.95-.48a8.14,8.14,0,0,1,.94,1.15Zm1.49,2.44a6.65,6.65,0,0,0-1.37-1.29l.91-.91a15.74,15.74,0,0,1,1.47,1.33Zm4.54-4a6.35,6.35,0,0,0-.27-.63,12.83,12.83,0,0,1-1.34.12v2.56H282.2v-2.51c-1.12.06-2,.06-2,.06l-.21-1.07h1.05a7.78,7.78,0,0,0,.85-.78,13.92,13.92,0,0,0-1.8-1.23l.75-1c.18.11.35.23.51.35a6.76,6.76,0,0,0,.82-1c-1.13.07-2.13.08-2.13.08l-.3-1a36.52,36.52,0,0,0,5.51-.46l.37,1a17,17,0,0,1-2.14.32l.15.12a13.86,13.86,0,0,1-1.44,1.64c.16.14.39.37.5.48a8.74,8.74,0,0,0,1.37-1.64l1,.76a21.62,21.62,0,0,1-2.51,2.49c.46,0,1.39-.06,1.83-.1-.08-.15-.33-.54-.44-.7l.95-.43c.64.94,1.32,2.11,1.32,2.11Zm-4.21,2-.92-.76a5,5,0,0,0,1.16-1.49l1,.5A8,8,0,0,1,280.84,404.1Zm4.29,3a11.06,11.06,0,0,0-1.79-2.28l1-.86a16.62,16.62,0,0,1,2,2.31Zm-.32-3.14a13.25,13.25,0,0,0-1.18-1.72l.91-.5a18.11,18.11,0,0,1,1.29,1.62Z" transform="translate(-4.21 -21.28)"/><path d="M299.84,399.87a20.57,20.57,0,0,1-2.21-.9v.7h-7V399a16.44,16.44,0,0,1-2.35.92l-.62-1.39c2.56-.59,4.87-1.9,5.79-3.18h1.1c1.08,1.28,4.08,2.69,5.86,3.13Zm-9.91,6.42V407H288.6v-6.16h4.73v5.48ZM292,402h-2.07v3H292Zm2-5.38a10.69,10.69,0,0,1-2.41,1.81h5.06A16.18,16.18,0,0,1,294,396.66Zm2.93,10.12-.5-1.29c1.61,0,1.71-.24,1.71-.93v-2.48h-2.46v6h-1.33v-7.23h5.12v3.41C299.47,406,299.14,406.72,296.93,406.78Z" transform="translate(-4.21 -21.28)"/><path d="M303.91,404c0,1.23.06,2.4.16,3.38l-1.47.16c-.06-.92-.09-1.92-.09-2.91a59,59,0,0,1,.58-8.31l1.45.21A41.26,41.26,0,0,0,303.91,404Zm6.45,3a16.53,16.53,0,0,1-2-.11c-1.5-.18-2.38-1-2.38-2.1a3.43,3.43,0,0,1,1.1-2.27l1.47.46c-.78.68-1.14,1.25-1.14,1.68s.39.76,1.12.87a10.77,10.77,0,0,0,1.56.1,20.28,20.28,0,0,0,3.65-.36l0,1.5A26.52,26.52,0,0,1,310.36,406.94Zm3-8.15c-.41,0-.91,0-1.47,0-1.66,0-3.74.09-5.1.24l-.07-1.44c1.71-.11,3.9-.17,6-.17h.69Z" transform="translate(-4.21 -21.28)"/><path d="M324.17,399.23a14.12,14.12,0,0,1,.73,1.69l-1.4.53a13.59,13.59,0,0,0-.78-1.92c-.8.2-1.63.47-2.51.77a63.7,63.7,0,0,1,1.89,7.62l-1.47.4a48.54,48.54,0,0,0-1.71-7.58c-.87.31-1.8.64-2.86,1l-.46-1.36c1-.29,1.95-.6,2.9-.91a30.59,30.59,0,0,0-1.22-3l1.33-.42c.37.82.76,1.79,1.18,3q1.15-.39,2.31-.69a14.36,14.36,0,0,0-1.09-1.78l1.39-.49a18.76,18.76,0,0,1,1.14,1.92,12.13,12.13,0,0,1,1.55-.24h.4a2.83,2.83,0,0,1,3,2.81c0,1.74-1.51,3.63-4.87,3.63-.28,0-.58,0-.89,0l-.46-1.56a7.23,7.23,0,0,0,1.63.2c2.13,0,3.12-1.19,3.12-2.21a1.47,1.47,0,0,0-1.62-1.47h-.24C324.86,399.13,324.53,399.17,324.17,399.23Z" transform="translate(-4.21 -21.28)"/><path d="M332.87,404a.82.82,0,0,1-.28-.05c-.66-.19-.9-1.2-.9-2.84a49,49,0,0,1,.35-4.9l1.48.14a36.26,36.26,0,0,0-.46,4.83c0,.63.06,1,.16,1a5.16,5.16,0,0,0,1.38-1.87l1.08.8C334.63,403,333.66,404,332.87,404Zm7.52-1.74c0,3.7-1.84,5.13-6.74,5.62l-.56-1.47c4.85-.07,5.86-1.76,5.86-4.25,0-1.92-.16-3.92-.28-5.92l1.51-.06c.07,2.07.19,4.43.21,5.95Z" transform="translate(-4.21 -21.28)"/><path d="M347.08,402.84v3c0,1.54-.13,2-2.26,2.15l-.61-1.35c1.48,0,1.49-.05,1.49-.76v-2.69c-.49.13-1,.25-1.62.38l-.37-1.32c.77-.11,1.41-.24,2-.38V399.2H344v-1.26h1.66v-2.5h1.38v2.5h1.26v1.26h-1.26v2.35a14.86,14.86,0,0,0,1.52-.5v1.26S348,402.56,347.08,402.84Zm8.58,5.14a10.48,10.48,0,0,1-2.48-1.79,8.68,8.68,0,0,1-2.67,1.86l-.8-1.36a6.62,6.62,0,0,0,2.52-1.43,9.27,9.27,0,0,1-1.36-2.43,12.64,12.64,0,0,1-2.44,4.74l-1-1.16a13.24,13.24,0,0,0,2.93-7.72h-1.65v-1.26h1.75c0-.45,0-.87,0-1.26v-.73h1.36v.73c0,.38,0,.81,0,1.26h4.26v1.26h-4.36a15.25,15.25,0,0,1-.25,1.82h4.1v1a9.39,9.39,0,0,1-1.59,3.77,8,8,0,0,0,2.31,1.37Zm-4-6.27a8.72,8.72,0,0,0,1.4,2.67,8.08,8.08,0,0,0,1.12-2.67Z" transform="translate(-4.21 -21.28)"/><path d="M366.92,408.22c-5.86-4.9-8-5.07-8-6.72s2.18-1.32,7.85-6l1,1.37c-5.59,3.91-7.16,4.17-7.16,4.64s1.5,1,7.4,5.37Z" transform="translate(-4.21 -21.28)"/><path d="M383.59,401.69c-2.11-.49-3.22-1.47-3.55-2.46a5,5,0,0,1-3,2.32l1.25.11a7,7,0,0,1-.46.91h6.47v1.19h-2.65a7.92,7.92,0,0,1-1.57,1.87c1,.29,2.51.75,3.81,1.24l-.91,1.18c-1.41-.59-2.93-1.11-4.13-1.51a14.56,14.56,0,0,1-6.19,1.51l-.61-1.36a16.76,16.76,0,0,0,5.15-.66c-1.08-.29-2.26-.56-3.06-.73a14.22,14.22,0,0,0,1.26-1.54H371.7v-1.19h4.51a5.89,5.89,0,0,0,.49-.94,1.64,1.64,0,0,1-.39.1l-.83-1.09s3.48-.55,3.74-3.15h-1a9.88,9.88,0,0,1-1.59,1.2l-.93-1a5.62,5.62,0,0,0,2.52-2.22l1.26.31a2.73,2.73,0,0,1-.32.57H384v1.08a4.63,4.63,0,0,1-1.32,1.88l-1.07-.72a2.38,2.38,0,0,0,1-1.09h-2v.17c.15,1.12,1,2.29,3.68,2.77Zm-11-.07-.64-1.4a17.55,17.55,0,0,0,3.68-1.78l.58,1.25A31.67,31.67,0,0,1,372.55,401.62Zm2.3-3.45a18.22,18.22,0,0,0-2.63-1.19l.7-1.16a23.75,23.75,0,0,1,2.55,1.19Zm2.19,5.59a8.6,8.6,0,0,1-.73,1c.8.16,1.57.29,2.3.5a6.92,6.92,0,0,0,1.51-1.46Z" transform="translate(-4.21 -21.28)"/><path d="M391.47,399.81h-1.13a1.07,1.07,0,0,1-.58-.21v.6h1.71v.89h-1.71v.6c1.19-.1,2.17-.23,2.17-.23l-.08,1s-2.61.39-5.62.55L386,401.9c.88,0,1.68,0,2.53-.11v-.71h-1.72v-.86c-.18.07-.36.15-.57.22l-.51-1c.95-.2,1.65-.51,1.82-1h-1.39v-1h2.34v-.56h-1.9v-.88h1.9v-.62h1.32v.62h2v.88h-2v.56h2.41v1h-.43l.81.37C392.4,399.62,392.21,399.81,391.47,399.81Zm1.78,8.13-.66-1.32c3.1,0,3.38-.05,3.38-1.9h-4.09c-.69,1.54-2.2,2.7-5.34,3.33l-.81-1.29c2.6-.31,4-1,4.65-2h-3.64v-1.15h4.09a4.79,4.79,0,0,0,.11-.8h1.37a5.77,5.77,0,0,1-.07.8h5.09C397.33,408,397,407.77,393.25,407.94Zm-3.71-9v-.48h-.87a3,3,0,0,1-1.84,1.71h1.67v-.74h1.15A.89.89,0,0,1,389.54,399Zm1.12-.48v.21c0,.2,0,.31.39.31.53,0,.53-.07.6-.52Zm6.37,4.21c-.57,0-1.13-.65-1.26-1.84,0-.55-.07-1.3-.07-1.92s0-1.1,0-1.1H395a10.09,10.09,0,0,1-.26,2.25,8,8,0,0,1,1,1.12l-.62.94a7.53,7.53,0,0,0-.85-1,6.4,6.4,0,0,1-1.34,1.71l-.91-.94a3.92,3.92,0,0,0,1.22-1.55c-.39-.34-.71-.58-.71-.58l.56-.8s.25.21.47.37a6.85,6.85,0,0,0,.14-1.51h-1.16V396.7h1.21v-1.26H395v1.26H397s0,2,0,3.13c0,.82.1,1.31.21,1.31s.25-.43.37-1.42l.91.79C398.24,402,397.63,402.69,397,402.69Z" transform="translate(-4.21 -21.28)"/><path d="M23.5,327.84v-8.58l-1.88.89-.46-1.28a4.37,4.37,0,0,0,2.52-1.95h1.43v10.92Z" transform="translate(-4.21 -21.28)"/><path d="M30.21,327.84v-2H32v2Z" transform="translate(-4.21 -21.28)"/><path d="M43.11,328.1a4.06,4.06,0,0,1-4.1-2.83l1.22-.82a3.15,3.15,0,0,0,2.87,2.25c1.41,0,2.26-.71,2.26-1.7s-.59-1.5-1.9-1.95l-1.58-.54c-1.72-.62-2.46-1.38-2.46-2.86s1.37-3,3.55-3c1.88,0,3.1.68,3.69,2.18l-1.22.87A2.38,2.38,0,0,0,43,318c-1.29,0-2.06.71-2.06,1.57s.45,1.19,1.6,1.57l1.64.53c1.76.6,2.77,1.5,2.77,3.17C47,326.86,45.59,328.1,43.11,328.1Z" transform="translate(-4.21 -21.28)"/><path d="M54.25,327.84v-1A2.84,2.84,0,0,1,51.68,328a2.6,2.6,0,0,1-2.83-2.62V320.1h1.53V325a1.58,1.58,0,0,0,1.68,1.66,2.08,2.08,0,0,0,2.06-1.43V320.1h1.54v7.74Z" transform="translate(-4.21 -21.28)"/><path d="M61.26,328a4,4,0,1,1,2.91-6.95l-.55,1.24a2.71,2.71,0,1,0-2.17,4.45,2.74,2.74,0,0,0,2.26-1.13l.54,1.15A3.65,3.65,0,0,1,61.26,328Z" transform="translate(-4.21 -21.28)"/><path d="M69.32,328a4,4,0,1,1,2.92-6.95l-.55,1.24a2.6,2.6,0,0,0-2.19-1.11,2.79,2.79,0,0,0,0,5.56,2.74,2.74,0,0,0,2.25-1.13l.55,1.15A3.68,3.68,0,0,1,69.32,328Z" transform="translate(-4.21 -21.28)"/><path d="M74.86,324.71a2.33,2.33,0,0,0,2.44,2.06,2.83,2.83,0,0,0,2.55-1.52l.79,1A3.82,3.82,0,0,1,77.2,328c-2.25,0-3.76-1.58-3.76-4.05s1.41-4,3.72-4c2.13,0,3.53,1.47,3.53,3.78V324Zm2.29-3.55a2.24,2.24,0,0,0-2.31,2.38l4.38-.58A2,2,0,0,0,77.15,321.16Z" transform="translate(-4.21 -21.28)"/><path d="M85.06,328a4,4,0,0,1-3.3-1.57l.69-1.16a3.33,3.33,0,0,0,2.63,1.46c1.07,0,1.6-.35,1.6-1s-.6-1.12-2-1.43C82.77,324,82,323.15,82,322.07c0-1.26,1.08-2.14,3-2.14a3.58,3.58,0,0,1,3,1.26l-.65,1.13A2.86,2.86,0,0,0,85,321.13c-.93,0-1.45.33-1.45.89s.35.81,1.66,1.1c2.08.45,3,1.24,3,2.64S87.19,328,85.06,328Z" transform="translate(-4.21 -21.28)"/><path d="M92.59,328a4,4,0,0,1-3.29-1.57l.68-1.16a3.34,3.34,0,0,0,2.64,1.46c1.06,0,1.59-.35,1.59-1s-.6-1.12-2-1.43c-1.86-.39-2.62-1.19-2.62-2.27,0-1.26,1.08-2.14,3-2.14a3.58,3.58,0,0,1,3,1.26l-.65,1.13a2.85,2.85,0,0,0-2.39-1.19c-.93,0-1.44.33-1.44.89s.35.81,1.65,1.1c2.09.45,3,1.24,3,2.64S94.72,328,92.59,328Z" transform="translate(-4.21 -21.28)"/><path d="M104,319.13v1h1.45v1.22h-1.4v6.52h-1.52v-6.52h-1.1V320.1h1.1v-1c0-1.58.56-2.37,2.91-2.42l.27,1.26C104.17,317.94,104,318.29,104,319.13Z" transform="translate(-4.21 -21.28)"/><path d="M110.17,328c-2.34,0-3.84-1.58-3.84-4.05a3.84,3.84,0,1,1,7.68,0C114,326.43,112.55,328,110.17,328Zm0-6.82c-1.29,0-2.28,1-2.28,2.77s1,2.81,2.28,2.81,2.29-1,2.29-2.81S111.52,321.19,110.17,321.19Z" transform="translate(-4.21 -21.28)"/><path d="M119.17,321.3a2,2,0,0,0-2,1.22v5.32h-1.53V320.1H117v.81a3,3,0,0,1,2.47-1l.29,1.43A4.22,4.22,0,0,0,119.17,321.3Z" transform="translate(-4.21 -21.28)"/><path d="M133,327.84l-1.1-3.11h-4.33l-1.14,3.11h-1.62l3.91-10.92h2l3.9,10.92Zm-3.25-9.41h0c-.07.44-1.54,4.45-1.69,4.93h3.43C131.33,322.9,129.84,318.87,129.77,318.43Z" transform="translate(-4.21 -21.28)"/><path d="M135.76,327.84V316.92h1.58v10.92Z" transform="translate(-4.21 -21.28)"/><path d="M139.47,327.84V316.92h1.58v10.92Z" transform="translate(-4.21 -21.28)"/><path d="M148,323.66v-2.11h2.09v2.11Z" transform="translate(-4.21 -21.28)"/><path d="M162,323.66v-2.11h2.09v2.11Z" transform="translate(-4.21 -21.28)"/><path d="M176,323.66v-2.11h2.09v2.11Z" transform="translate(-4.21 -21.28)"/><path d="M190,323.66v-2.11h2.09v2.11Z" transform="translate(-4.21 -21.28)"/><path d="M20.17,367.84v-.74a5.61,5.61,0,0,1,3.36-4.72c1.78-.84,2.45-1.65,2.45-2.59S25.24,358,23.88,358a2.2,2.2,0,0,0-2.14,2.32L20.27,360A3.47,3.47,0,0,1,24,356.67c2.34,0,3.67,1.28,3.67,3.05,0,1.54-.89,2.66-3.15,3.7a3.92,3.92,0,0,0-2.55,3H27.7v1.41Z" transform="translate(-4.21 -21.28)"/><path d="M30.21,367.84v-2H32v2Z" transform="translate(-4.21 -21.28)"/><path d="M43.94,367.84H39.63V356.92h4c2,0,3.35,1.1,3.35,2.7A2.19,2.19,0,0,1,45.26,362v0a2.69,2.69,0,0,1,2.39,2.78C47.65,366.71,46.17,367.84,43.94,367.84Zm-.57-9.62H41.22v3.28h2.37c1,0,1.83-.49,1.83-1.57C45.42,358.7,44.33,358.22,43.37,358.22Zm.33,4.54H41.22v3.74h2.51c1.36,0,2.34-.66,2.34-1.89S44.85,362.76,43.7,362.76Z" transform="translate(-4.21 -21.28)"/><path d="M50.27,364.71a2.32,2.32,0,0,0,2.43,2.06,2.83,2.83,0,0,0,2.55-1.52l.79,1A3.8,3.8,0,0,1,52.61,368c-2.26,0-3.77-1.58-3.77-4.05s1.41-4,3.72-4c2.13,0,3.53,1.47,3.53,3.78V364Zm2.28-3.55a2.24,2.24,0,0,0-2.31,2.38l4.38-.58A2,2,0,0,0,52.55,361.16Z" transform="translate(-4.21 -21.28)"/><path d="M67.07,364H64.41v3.81H62.8V356.92h4.28a3.36,3.36,0,0,1,3.45,3.56A3.3,3.3,0,0,1,67.07,364Zm-.38-5.75H64.38v4.39h2.34a2.2,2.2,0,1,0,0-4.39Z" transform="translate(-4.21 -21.28)"/><path d="M75.71,361.3a2,2,0,0,0-2,1.22v5.32H72.19V360.1h1.34v.81a3,3,0,0,1,2.47-1l.29,1.43A4.23,4.23,0,0,0,75.71,361.3Z" transform="translate(-4.21 -21.28)"/><path d="M81,368c-2.34,0-3.84-1.58-3.84-4.05a3.84,3.84,0,1,1,7.68,0C84.82,366.43,83.36,368,81,368Zm0-6.82c-1.29,0-2.28,1-2.28,2.77s1,2.81,2.28,2.81,2.29-1,2.29-2.81S82.33,361.19,81,361.19Z" transform="translate(-4.21 -21.28)"/><path d="M88.29,359.13v1h1.46v1.22h-1.4v6.52H86.82v-6.52H85.73V360.1h1.09v-1c0-1.58.56-2.37,2.91-2.42l.27,1.26C88.46,357.94,88.29,358.29,88.29,359.13Z" transform="translate(-4.21 -21.28)"/><path d="M92.06,364.71a2.31,2.31,0,0,0,2.43,2.06A2.83,2.83,0,0,0,97,365.25l.79,1A3.82,3.82,0,0,1,94.39,368c-2.25,0-3.76-1.58-3.76-4.05s1.41-4,3.72-4c2.13,0,3.53,1.47,3.53,3.78V364Zm2.28-3.55A2.24,2.24,0,0,0,92,363.54l4.38-.58A2,2,0,0,0,94.34,361.16Z" transform="translate(-4.21 -21.28)"/><path d="M102.25,368A4,4,0,0,1,99,366.44l.68-1.16a3.34,3.34,0,0,0,2.64,1.46c1.06,0,1.59-.35,1.59-1s-.6-1.12-2-1.43c-1.87-.39-2.62-1.19-2.62-2.27,0-1.26,1.08-2.14,3-2.14a3.58,3.58,0,0,1,3,1.26l-.65,1.13a2.85,2.85,0,0,0-2.39-1.19c-.93,0-1.44.33-1.44.89s.35.81,1.65,1.1c2.09.45,3,1.24,3,2.64S104.38,368,102.25,368Z" transform="translate(-4.21 -21.28)"/><path d="M109.78,368a4,4,0,0,1-3.29-1.57l.68-1.16a3.34,3.34,0,0,0,2.64,1.46c1.06,0,1.6-.35,1.6-1s-.61-1.12-2-1.43c-1.86-.39-2.62-1.19-2.62-2.27,0-1.26,1.08-2.14,3-2.14a3.58,3.58,0,0,1,3,1.26l-.64,1.13a2.88,2.88,0,0,0-2.4-1.19c-.92,0-1.44.33-1.44.89s.35.81,1.65,1.1c2.09.45,3,1.24,3,2.64S111.91,368,109.78,368Z" transform="translate(-4.21 -21.28)"/><path d="M114.54,358.75v-1.83h1.62v1.83Zm0,9.09V360.1h1.55v7.74Z" transform="translate(-4.21 -21.28)"/><path d="M121.65,368c-2.34,0-3.84-1.58-3.84-4.05a3.84,3.84,0,1,1,7.68,0C125.49,366.43,124,368,121.65,368Zm0-6.82c-1.29,0-2.28,1-2.28,2.77s1,2.81,2.28,2.81,2.29-1,2.29-2.81S123,361.19,121.65,361.19Z" transform="translate(-4.21 -21.28)"/><path d="M132.4,367.84v-5a1.56,1.56,0,0,0-1.68-1.65,2.06,2.06,0,0,0-2.05,1.43v5.22h-1.53V360.1h1.4v1.06a2.77,2.77,0,0,1,2.58-1.23,2.62,2.62,0,0,1,2.81,2.68v5.23Z" transform="translate(-4.21 -21.28)"/><path d="M142.83,367.93a2.86,2.86,0,0,1-.57.07,1.3,1.3,0,0,1-1.44-1.08A3.5,3.5,0,0,1,138,368c-1.58,0-2.37-.74-2.39-2v-.08c0-1.5,1-2.26,2.68-2.62,1.15-.27,2.18-.69,2.18-1.12,0-.77-.58-1-1.66-1a3.17,3.17,0,0,0-2.41,1.23l-.65-1.12a4,4,0,0,1,3.16-1.33c2,0,3.15.7,3.15,2.34V366c0,.54.27.77.69.77a1.42,1.42,0,0,0,.43-.07Zm-2.33-4.37a4.57,4.57,0,0,1-1.87.8c-1,.23-1.58.53-1.58,1.4v.08c0,.65.43,1,1.23,1a2.45,2.45,0,0,0,2.22-1.25Z" transform="translate(-4.21 -21.28)"/><path d="M144.32,367.84V356.92h1.58v10.92Z" transform="translate(-4.21 -21.28)"/><path d="M152.89,363.66v-2.11H155v2.11Z" transform="translate(-4.21 -21.28)"/><path d="M166.89,363.66v-2.11H169v2.11Z" transform="translate(-4.21 -21.28)"/><path d="M180.89,363.66v-2.11H183v2.11Z" transform="translate(-4.21 -21.28)"/><path d="M194.89,363.66v-2.11H197v2.11Z" transform="translate(-4.21 -21.28)"/><path d="M23.7,408.1c-2.16,0-3.52-1-3.95-2.64l1.4-.54a2.44,2.44,0,0,0,2.52,1.82,2.18,2.18,0,0,0,2.44-2c0-1.16-.9-2-2.53-2H22.23v-1.38H23.4c1.29,0,2.31-.72,2.31-1.73s-.81-1.66-2-1.66a2,2,0,0,0-2.16,1.61l-1.41-.44a3.39,3.39,0,0,1,3.62-2.5c2.15,0,3.52,1.09,3.52,2.78a2.41,2.41,0,0,1-2.1,2.52,2.81,2.81,0,0,1,2.46,2.85C27.67,406.81,26.33,408.1,23.7,408.1Z" transform="translate(-4.21 -21.28)"/><path d="M30.21,407.84v-2H32v2Z" transform="translate(-4.21 -21.28)"/><path d="M44.19,408.1c-2.95,0-5.12-2.06-5.12-5.78,0-3.54,2-5.65,5-5.65a4.29,4.29,0,0,1,4.08,2.17l-1,1A3.13,3.13,0,0,0,44.15,398c-1.95,0-3.46,1.57-3.46,4.28,0,3,1.65,4.42,3.5,4.42a2.83,2.83,0,0,0,2.69-1.33v-2.15H44v-1.37h4.34V406A4.26,4.26,0,0,1,44.19,408.1Z" transform="translate(-4.21 -21.28)"/><path d="M53.75,401.3a2,2,0,0,0-2,1.22v5.32H50.24V400.1h1.34v.81a3,3,0,0,1,2.47-1l.29,1.43A4.22,4.22,0,0,0,53.75,401.3Z" transform="translate(-4.21 -21.28)"/><path d="M55.61,398.75v-1.83h1.63v1.83Zm0,9.09V400.1H57.2v7.74Z" transform="translate(-4.21 -21.28)"/><path d="M62.8,408c-2.23,0-3-.47-3-2.2v-4.49H58.71V400.1h1.15v-2.44h1.47v2.44H62.7v1.22H61.33v4.21c0,1.09.22,1.18,1.79,1.18Z" transform="translate(-4.21 -21.28)"/><path d="M73,408.1a4.06,4.06,0,0,1-4.1-2.83l1.22-.82A3.15,3.15,0,0,0,73,406.7c1.41,0,2.25-.71,2.25-1.7s-.59-1.5-1.89-1.95l-1.58-.54c-1.72-.62-2.47-1.38-2.47-2.86s1.38-3,3.56-3c1.88,0,3.1.68,3.68,2.18l-1.21.87A2.38,2.38,0,0,0,72.88,398c-1.29,0-2.06.71-2.06,1.57s.45,1.19,1.6,1.57l1.63.53c1.77.6,2.78,1.5,2.78,3.17C76.83,406.86,75.44,408.1,73,408.1Z" transform="translate(-4.21 -21.28)"/><path d="M82.21,408c-2.22,0-3-.47-3-2.2v-4.49h-1.1V400.1h1.15v-2.44h1.47v2.44h1.38v1.22H80.74v4.21c0,1.09.23,1.18,1.8,1.18Z" transform="translate(-4.21 -21.28)"/><path d="M90.63,407.93a3,3,0,0,1-.57.07,1.31,1.31,0,0,1-1.45-1.08A3.48,3.48,0,0,1,85.76,408c-1.59,0-2.37-.74-2.4-2v-.08c0-1.5,1-2.26,2.69-2.62,1.15-.27,2.17-.69,2.17-1.12,0-.77-.57-1-1.65-1a3.17,3.17,0,0,0-2.41,1.23l-.66-1.12a4,4,0,0,1,3.17-1.33c2,0,3.15.7,3.15,2.34V406c0,.54.26.77.68.77a1.44,1.44,0,0,0,.44-.07Zm-2.34-4.37a4.52,4.52,0,0,1-1.86.8c-1,.23-1.58.53-1.58,1.4v.08c0,.65.43,1,1.23,1a2.44,2.44,0,0,0,2.21-1.25Z" transform="translate(-4.21 -21.28)"/><path d="M97.32,407.84v-5a1.56,1.56,0,0,0-1.68-1.65,2.08,2.08,0,0,0-2.06,1.43v5.22H92.05V400.1h1.41v1.06A2.75,2.75,0,0,1,96,399.93a2.62,2.62,0,0,1,2.82,2.68v5.23Z" transform="translate(-4.21 -21.28)"/><path d="M104.43,408a4,4,0,1,1,2.92-6.95l-.55,1.24a2.6,2.6,0,0,0-2.19-1.11,2.79,2.79,0,0,0,0,5.56,2.74,2.74,0,0,0,2.25-1.13l.55,1.15A3.67,3.67,0,0,1,104.43,408Z" transform="translate(-4.21 -21.28)"/><path d="M110,404.71a2.33,2.33,0,0,0,2.44,2.06,2.83,2.83,0,0,0,2.55-1.52l.79,1a3.82,3.82,0,0,1-3.44,1.78c-2.25,0-3.76-1.58-3.76-4.05s1.41-4,3.72-4c2.13,0,3.53,1.47,3.53,3.78V404Zm2.29-3.55a2.24,2.24,0,0,0-2.31,2.38l4.38-.58A2,2,0,0,0,112.26,401.16Z" transform="translate(-4.21 -21.28)"/><path d="M122.31,403.66v-2.11h2.09v2.11Z" transform="translate(-4.21 -21.28)"/><path d="M136.31,403.66v-2.11h2.09v2.11Z" transform="translate(-4.21 -21.28)"/><path d="M150.31,403.66v-2.11h2.09v2.11Z" transform="translate(-4.21 -21.28)"/><path d="M164.31,403.66v-2.11h2.09v2.11Z" transform="translate(-4.21 -21.28)"/><path d="M178.31,403.66v-2.11h2.09v2.11Z" transform="translate(-4.21 -21.28)"/><path d="M15.77,275H11.21l-6-18.72H9.09l3.72,12c.1.28.17.57.24.84a20.45,20.45,0,0,1,.49,2.11h.09a28.32,28.32,0,0,1,.7-3l3.67-12h3.74Z" transform="translate(-4.21 -21.28)"/><path d="M35.71,275.17a4.42,4.42,0,0,1-1.08.12c-1.34,0-2.52-.58-2.73-1.71-.82,1.18-2.74,1.71-4.73,1.71-2.72,0-4.11-1.35-4.16-3.58v-.12c0-2.54,1.59-3.89,4.64-4.58,1.8-.39,3.28-.89,3.28-1.63,0-1-.69-1.35-2.27-1.35a5.62,5.62,0,0,0-4,2l-1.39-2.45a7.14,7.14,0,0,1,5.64-2.23c3.7,0,5.59,1.32,5.59,4.23v5.68a1,1,0,0,0,1.18,1.16,3.48,3.48,0,0,0,.69-.08Zm-4.66-7.08a6.18,6.18,0,0,1-2.56,1.1c-1.32.34-2.16.82-2.16,2v.15c0,.86.6,1.32,1.7,1.32s2.71-.68,3-1.88Z" transform="translate(-4.21 -21.28)"/><path d="M38.25,275V256.28h3.49V275Z" transform="translate(-4.21 -21.28)"/><path d="M54.34,275v-1.68c-.68,1.32-2.33,2-4.25,2-2.88,0-4.9-1.87-4.9-4.56v-9.05H48.6v8.26a2.28,2.28,0,0,0,2.4,2.47,3.07,3.07,0,0,0,3-2.16v-8.57h3.41V275Z" transform="translate(-4.21 -21.28)"/><path d="M63.29,269.77c.26,1.82,1.8,2.81,3.72,2.81a4.69,4.69,0,0,0,4.12-2.24l1.69,2.07a6.81,6.81,0,0,1-6,2.88c-4,0-6.65-2.71-6.65-7,0-3.94,2.4-6.94,6.56-6.94,3.84,0,6.24,2.69,6.24,6.79v.36Zm3.38-5.71a3.19,3.19,0,0,0-3.43,3.28l6.48-.86C69.58,265,68.38,264.06,66.67,264.06Z" transform="translate(-4.21 -21.28)"/><path d="M14.77,156.93H10.21l-6-18.72H8.09l3.72,12c.1.29.17.58.24.84a21.19,21.19,0,0,1,.49,2.12h.09a28.32,28.32,0,0,1,.7-3L17,138.21h3.74Z" transform="translate(-4.21 -21.28)"/><path d="M22.73,141.66v-3.45h3.56v3.45Zm.08,15.27V143.61h3.43v13.32Z" transform="translate(-4.21 -21.28)"/><path d="M34.73,157.22a7.35,7.35,0,0,1-5.9-2.57l1.46-2.4a6.31,6.31,0,0,0,4.54,2.35c1.46,0,2.14-.53,2.14-1.37,0-1-.8-1.51-3.08-2-3.28-.67-4.63-2.11-4.63-4.08,0-2.21,1.95-3.84,5.45-3.84,2.42,0,4.46.82,5.43,2.09l-1.37,2.3a5.26,5.26,0,0,0-4.11-1.92c-1.34,0-2,.53-2,1.27s.46,1.13,2.57,1.56c3.6.75,5.23,2.16,5.23,4.59S38.5,157.22,34.73,157.22Z" transform="translate(-4.21 -21.28)"/><path d="M43.09,141.66v-3.45h3.55v3.45Zm.07,15.27V143.61h3.43v13.32Z" transform="translate(-4.21 -21.28)"/><path d="M56.14,157.22c-4.17,0-6.81-2.74-6.81-6.94s2.64-7,6.81-7,6.8,2.74,6.8,7S60.37,157.22,56.14,157.22Zm0-11.16c-1.94,0-3.36,1.58-3.36,4.22s1.42,4.22,3.36,4.22,3.34-1.58,3.34-4.22S58.16,146.06,56.14,146.06Z" transform="translate(-4.21 -21.28)"/><path d="M74.48,156.93v-8.4a2.27,2.27,0,0,0-2.38-2.47A3.09,3.09,0,0,0,69,148.22v8.71H65.62V143.61h3.12v1.7c.63-1.22,2.11-2,4.32-2a4.61,4.61,0,0,1,4.85,4.73v8.88Z" transform="translate(-4.21 -21.28)"/><path d="M21.75,194.41v11.12H20.56V193.37H24.3v1Z" transform="translate(-4.21 -21.28)"/><path d="M31.35,204.49a32.31,32.31,0,0,0-2-2.8,9.32,9.32,0,0,1-2.73,4.13l-.94-1.2a7.17,7.17,0,0,0,2.69-4.54H26.05v-1.2H28.6a18.66,18.66,0,0,0,.06-1.9v-.7h-.9a11,11,0,0,1-.85,1.63l-1.12-.81a10,10,0,0,0,1.62-3.88l1.29.25a15.61,15.61,0,0,1-.45,1.61h3.39v1.2H30s0,.47,0,1,0,1.19-.05,1.57h2v1.2H29.82a2.5,2.5,0,0,1-.07.41,34.48,34.48,0,0,1,2.62,3Zm5.13.95v-1.26H34.17v1.26H32.83V194.58h5v10.86Zm0-9.6H34.17v7.08h2.31Z" transform="translate(-4.21 -21.28)"/><path d="M39.69,205.64v-1h2.55V193.48h1.19v12.17Z" transform="translate(-4.21 -21.28)"/><path d="M60.62,205.32c-3,0-5.5-.55-5.81-2.56a2.32,2.32,0,0,1,0-.45c0-1.26.86-2.51,3.48-3.77a15.38,15.38,0,0,1-.42-4c0-.29,0-.59,0-.87h1.5c0,.39,0,.81,0,1.26a12.87,12.87,0,0,0,.31,3,41,41,0,0,1,4.58-1.42l.5,1.36c-5.7,1.29-8.5,2.83-8.5,4.36a1.34,1.34,0,0,0,0,.2c.17,1,1.87,1.48,4.32,1.48a30.28,30.28,0,0,0,4.47-.39v1.5C63.57,205.19,62,205.32,60.62,205.32Z" transform="translate(-4.21 -21.28)"/><path d="M77.75,194.41v11.12H76.56V193.37H80.3v1Z" transform="translate(-4.21 -21.28)"/><path d="M87.17,198.88a12.3,12.3,0,0,1-1.35,1.51h1.87v-1H89.1v1h4v2.72c0,1.2-.36,1.55-2.52,1.69L90,203.57c1.6,0,1.73-.06,1.73-.6v-1.38H89.1v4.23H87.69v-4.23H85.42V205H84.06v-2.89a14.77,14.77,0,0,1-1.65,1.19L81.69,202a13.14,13.14,0,0,0,3.87-3.09H82v-1.22h4.39a3.83,3.83,0,0,0,.52-1l1.39.28a5.7,5.7,0,0,1-.42.77H94.1v1.22Zm5.28-1.53a24.07,24.07,0,0,0-4-1.53,40.26,40.26,0,0,1-5.57,1.42L82.11,196a28.7,28.7,0,0,0,4.44-.84,22.57,22.57,0,0,0-3.35-.72l.76-1.1a33.48,33.48,0,0,1,4.34,1.17,20,20,0,0,0,3.45-1.31l.89,1a14.8,14.8,0,0,1-2.43.91,23.59,23.59,0,0,1,3.25,1.13Z" transform="translate(-4.21 -21.28)"/><path d="M95.69,205.36v-1.18h5.56v-1h-4v-1h4v-.84H96.6v-1.06h10.79v1.06h-4.67v.84h4.09v1h-4.09v1h5.58v1.18Zm2.21-9.54v1.85c0,.31.17.46.54.46H101v1.14H98.09a1.43,1.43,0,0,1-1.56-1.56v-1.89h-.78v-1.16h2.56v-1.44H99.7v1.44h2.06v1.16Zm9.5,2.52c-.17,1.1-.53,1.63-2.44,1.63l-.39-1.15h.3c.89,0,1.13-.08,1.21-.56,0-.09,0-.17,0-.25h-2.92a7.24,7.24,0,0,1-1.13,2l-1-1.06a5,5,0,0,0,1.27-2.75,24.4,24.4,0,0,0,.15-2.56h5.34A46.63,46.63,0,0,1,107.4,198.34Zm-3.77-2s0,.07,0,.1c0,.24-.08.46-.14.7h2.79c0-.27.07-.53.09-.8Zm.16-1.6s0,.33-.06.73h2.7c0-.24,0-.47.06-.73Z" transform="translate(-4.21 -21.28)"/><path d="M109.69,205.64v-1h2.55V193.48h1.19v12.17Z" transform="translate(-4.21 -21.28)"/><path d="M125.9,201.73c0,1.24.06,2.4.16,3.38l-1.47.17c-.06-.93-.09-1.92-.09-2.92a58.83,58.83,0,0,1,.58-8.3l1.45.21A41.07,41.07,0,0,0,125.9,201.73Zm6.45,3a16.36,16.36,0,0,1-2-.12c-1.5-.18-2.38-1-2.38-2.1a3.45,3.45,0,0,1,1.1-2.27l1.47.47c-.78.67-1.14,1.24-1.14,1.68s.39.75,1.12.87a10.93,10.93,0,0,0,1.56.09,20.28,20.28,0,0,0,3.65-.36l0,1.5A24.94,24.94,0,0,1,132.35,204.72Zm3-8.16-1.47,0c-1.66,0-3.74.08-5.1.23l-.07-1.44c1.71-.11,3.9-.17,6-.17h.69Z" transform="translate(-4.21 -21.28)"/><path d="M143.21,196.48c0,.49,0,1,0,1.53a7.22,7.22,0,0,1,1.73-.19l.76,0c2.93.21,4.4,2.05,4.4,3.9s-1.71,3.95-5.14,3.95l-.67,0-.31-1.43a6.49,6.49,0,0,0,1.13.1c2.29,0,3.56-1.32,3.56-2.65a2.42,2.42,0,0,0-1.32-2.07c-1.45,2.1-5.1,5.39-7.49,5.39a1.93,1.93,0,0,1-1.39-.53,1.88,1.88,0,0,1-.49-1.35c0-1.55,1.32-3.71,3.85-4.73,0-.65,0-1.28.05-1.91l-3.48,0v-1.31l3.55,0c0-.62.08-1.19.15-1.74l1.4.07c-.07.5-.12,1.05-.17,1.65l5.65,0v1.3Zm-1.4,3.35a4.26,4.26,0,0,0-2.47,3.11.69.69,0,0,0,.2.54.59.59,0,0,0,.46.16,4.39,4.39,0,0,0,1.95-.8C141.88,201.93,141.82,200.91,141.81,199.83Zm3.15-.73a7.37,7.37,0,0,0-1.81.21c0,.91,0,1.81.07,2.61a14.13,14.13,0,0,0,2.69-2.76A5.56,5.56,0,0,0,145,199.1Z" transform="translate(-4.21 -21.28)"/><path d="M152.39,204.18l-1-1.27a24.18,24.18,0,0,0,3.24-3.5l1.13.88C155,201.3,153.39,203.2,152.39,204.18Zm8.31-8.36c-1.84.27-2.61,1.05-2.68,1.85v.1c0,1.44,2.58,2.95,2.58,5.07a2.75,2.75,0,0,1-.28,1.2,3,3,0,0,1-2.89,1.43,6.27,6.27,0,0,1-2.35-.49l.24-1.66a4.05,4.05,0,0,0,2.24.77,1.43,1.43,0,0,0,1.36-.65,1.2,1.2,0,0,0,.12-.57c0-1.52-2.5-3-2.5-5a2.09,2.09,0,0,1,0-.25,2.59,2.59,0,0,1,1.42-2.06c-.86,0-1.45-.06-2.19-.06l-1.26,0,.14-1.38c1.86,0,4.29.14,6.19.35Zm2.51,7.92a14.59,14.59,0,0,0-2.47-4.54l1.29-.58a19.32,19.32,0,0,1,2.58,4.37Z" transform="translate(-4.21 -21.28)"/><path d="M176.15,204.8a1.53,1.53,0,0,1-.68-.14c-.73-.35-1-1-1-2s.28-2.61.52-4.79c0-.16,0-.3,0-.42,0-.53-.16-.79-.48-.79a2.09,2.09,0,0,0-1.06.51,28.52,28.52,0,0,0-3.15,2.83c0,1.34-.05,2.69-.05,3.88,0,.66,0,1.23,0,1.76l-1.46,0c0-1.29,0-2.73.07-4.22-.71.75-1.48,1.59-2.35,2.54l-.93-1.15c1.35-1.3,2.45-2.44,3.34-3.36,0-.62,0-1.4,0-2.17l-2.93.18-.08-1.36,3-.19c0-.9.05-1.76.07-2.53l1.41.05c-.05,1.12-.11,2.77-.15,4.56a17,17,0,0,1,2.39-2.07,3.59,3.59,0,0,1,2-.74c1,0,1.75.74,1.75,2.24a5.33,5.33,0,0,1,0,.67c-.28,2.31-.49,3.63-.49,4.33,0,.41.07.62.22.69a.65.65,0,0,0,.2,0c.49,0,1.16-.73,1.71-1.64l.69,1.55A3.76,3.76,0,0,1,176.15,204.8Z" transform="translate(-4.21 -21.28)"/><path d="M184.13,196.86a30.67,30.67,0,0,1-2.65,8.7l-1.38-.72a24.27,24.27,0,0,0,2.63-8h-2.35V195.5h2.52c.08-.7.12-1.43.15-2.19l1.49.07c-.06.69-.13,1.41-.21,2.12h5v1.35Zm5.38,8.35a19.75,19.75,0,0,1-2.58-.16c-1.29-.18-2.07-.81-2.07-1.72a3.05,3.05,0,0,1,1-2l1.42.52c-.61.53-.91,1-.91,1.26s.27.46.79.54a13.12,13.12,0,0,0,2,.14,16.86,16.86,0,0,0,2.72-.21l0,1.5C191.19,205.16,190.35,205.21,189.51,205.21Zm0-5.52c-1.27,0-2.55,0-3.54.11l-.06-1.37c1.65-.06,3.17-.09,4.72-.09h.94l0,1.39C191,199.7,190.22,199.69,189.51,199.69Z" transform="translate(-4.21 -21.28)"/><path d="M199,201.3a13.31,13.31,0,0,1-1.39-1.51v6h-1.35v-5.56a9.51,9.51,0,0,1-2,1.47l-.6-1.22a10.27,10.27,0,0,0,4.34-3.89h-3.6v-1.26h1.83v-2.14h1.35v2.14h1.82v1.25a10.31,10.31,0,0,1-1.47,2.17,14.14,14.14,0,0,0,1.86,1.36Zm0,3.85v-1.26h3.11v-5.15h-2.39v-1.27h2.39V193.2h1.35v4.27H206v1.27h-2.55v5.15h2.83v1.26Z" transform="translate(-4.21 -21.28)"/><path d="M219.77,198a16.9,16.9,0,0,1-5.75-3.61,14.83,14.83,0,0,1-5.78,3.78l-.63-1.37c3-1,5.19-2.65,5.8-3.67h1.1c.72.92,2.59,2.33,5.87,3.53Zm-1.17,7.78c-.33-.43-.64-.83-1-1.18a70.15,70.15,0,0,1-8.76.83l-.25-1.29c.43,0,.8,0,1.19,0a11.5,11.5,0,0,0,2.18-2.86h-3.57v-1.21h11.11v1.21h-5.9a11.15,11.15,0,0,1-2,2.79,42,42,0,0,0,5-.49,11.48,11.48,0,0,0-1.32-1.25l1.12-.75a32.64,32.64,0,0,1,3.11,3.08Zm-8-7.23v-1.2h7.24v1.2Z" transform="translate(-4.21 -21.28)"/><path d="M230.18,200.65v2.41h-1.39v-1.83c-1.45.66-2.49,1.32-2.49,2v.07c.06.56,1.26.8,2.9.8a25.74,25.74,0,0,0,3.58-.28v1.46c-1,.08-2.15.15-3.2.15-2.43,0-4.51-.39-4.68-2a.82.82,0,0,1,0-.22c0-1.54,1.67-2.54,3.88-3.49a1,1,0,0,0-1.09-1c-1,0-2.56,1-4.4,3.48l-1.2-.86a20,20,0,0,0,3.6-5h-3v-1.27l3.57,0a17.51,17.51,0,0,0,.59-1.71l1.54.25-.59,1.45,4.71,0v1.27l-5.28,0a12.84,12.84,0,0,1-.91,1.61,4,4,0,0,1,1.68-.4,2,2,0,0,1,2.08,1.62c1-.39,2.09-.81,3.14-1.3l.72,1.32C232.71,199.7,231.38,200.18,230.18,200.65Z" transform="translate(-4.21 -21.28)"/><path d="M239.15,205.28v.54h-1.26v-3.57a6.86,6.86,0,0,1-1.2,3.15l-1-1.29c.91-1.06,1.06-2.15,1.06-4.38v-3h6.41v4.44H238a5.43,5.43,0,0,1,0,.75h5.53v3.32Zm4.48-8.45a9.69,9.69,0,0,1-2.28-1.18v.61H238.7v-.69a11.42,11.42,0,0,1-2.46,1.4l-.49-1.23a5.32,5.32,0,0,0,3.54-2.52h1.11a7.14,7.14,0,0,0,3.86,2.39Zm-1.82.94H238.1v.75h3.71Zm0,1.62H238.1v.84h3.71Zm-1.89-5.1a5.75,5.75,0,0,1-1,1.1H241A5.93,5.93,0,0,1,239.92,194.29Zm2.34,8.69h-3.11v1.29h3.11Zm2.07-.42v-8.38h1.32v8.38Zm.89,3.11-.56-1.33c1.49,0,1.9,0,1.9-.37V193.22h1.35V204C247.91,205.49,246.81,205.67,245.22,205.67Z" transform="translate(-4.21 -21.28)"/><path d="M256.37,205.64c-2.06,0-3.93-.81-3.93-2.2a1.68,1.68,0,0,1,.11-.63,2,2,0,0,1,2.06-1.15,4.94,4.94,0,0,1,4,2.22,2.46,2.46,0,0,0,1.56-1.7,2.15,2.15,0,0,0,0-.43c0-1.22-1.26-1.92-3-1.92a8.94,8.94,0,0,0-6.08,2.66l-.88-1.16a75.45,75.45,0,0,0,6.33-5.84l-4.71.14v-1.38l7.1-.14v1.21c-1.2,1.09-2.91,2.66-4.19,3.68a8.78,8.78,0,0,1,2.72-.48c2.46,0,4.16,1.32,4.16,3.24a3.74,3.74,0,0,1-.06.65C261.16,204.66,258.66,205.64,256.37,205.64Zm-1.78-2.74c-.35,0-.61.11-.7.32a.41.41,0,0,0,0,.15c0,.55,1.14.94,2.47.94a6.51,6.51,0,0,0,.75,0A3.43,3.43,0,0,0,254.59,202.9Z" transform="translate(-4.21 -21.28)"/><line class="cls-1" x1="104.79" y1="13.72" x2="407.79" y2="13.72"/><line class="cls-1" x1="84.79" y1="130.22" x2="407.79" y2="130.22"/><line class="cls-1" x1="76.79" y1="247.72" x2="407.79" y2="247.72"/><line class="cls-1" x1="88.79" y1="456.22" x2="407.79" y2="456.22"/><path d="M23.16,513.12v17.36H22V512.12h5.25v1Z" transform="translate(-4.21 -21.28)"/><path d="M42.05,539.21A58.48,58.48,0,0,0,37,532.86a18.29,18.29,0,0,1-6.13,9.29l-1.07-1.64A15.73,15.73,0,0,0,36,530.16H30.43v-1.64h5.73c.08-1,.08-2,.08-2.92v-3.52H33.83a12,12,0,0,1-2.66,4.25L30,524.86a16.31,16.31,0,0,0,3.86-8.22l1.67.28a15.67,15.67,0,0,1-1,3.52h7.6v1.64H38v3.38c0,.85,0,1.95,0,3.06h5.13v1.64h-5.3a11.7,11.7,0,0,1-.23,1.31,75.88,75.88,0,0,1,5.64,6.12Zm10.35,2.12v-2.86H46.28v2.86H44.52V519.56h9.64v21.77Zm0-20.1H46.28V536.8H52.4Z" transform="translate(-4.21 -21.28)"/><path d="M79,531.35c0,3.52-2.75,8.59-13.44,9l-.65-1.7h.59c9,0,11.74-4.4,11.74-7.34a4.41,4.41,0,0,0-.2-1.28c-.68-2.15-2.61-3-5.87-3a66.37,66.37,0,0,0-11.71,1.65L59.05,527a70.91,70.91,0,0,1,12.3-1.61c4.28,0,6.49,1.22,7.43,4.14A5.61,5.61,0,0,1,79,531.35Z" transform="translate(-4.21 -21.28)"/><path d="M88.9,531.89V532c0,4.56,3.88,7.2,10.86,7.2.34,0,.7,0,1.07,0l-.28,2C90.77,541,87,537.42,87,532.18V532c.11-5,4.08-9,9.24-10.63l-16.13.88-.06-1.82,23-1,0,1.67C93.66,521.83,88.93,527.5,88.9,531.89Z" transform="translate(-4.21 -21.28)"/><path d="M112,540.6a3.68,3.68,0,0,1-.56-.06c-2.75-.51-3.89-5.33-3.89-11.29a58.56,58.56,0,0,1,.91-10l2,.31a44.06,44.06,0,0,0-1.11,9.92c0,4.71.79,8.79,2.64,9.16,0,0,.11,0,.19,0,1.25,0,3.72-2.3,4.88-4.48l1.13,1.7C116.79,537.9,114.38,540.6,112,540.6Zm17.36-5.08c-1.22-6.12-3.58-10.6-6.3-13.47l1.53-1c3.26,3.46,5,7.37,6.86,13.84Z" transform="translate(-4.21 -21.28)"/><path d="M157.29,534.27c0,5.13-5.65,7.4-10.66,7.4-4.06,0-7.69-1.47-7.69-4.11a2.71,2.71,0,0,1,.12-.82c.42-1.64,1.92-2.41,3.8-2.41a10.31,10.31,0,0,1,8.3,5c2.33-.85,4.17-2.44,4.17-5a7.77,7.77,0,0,0-.08-1.05c-.46-2.49-3.12-3.83-6.58-3.83a20.23,20.23,0,0,0-13.07,5.45l-1.14-1.59c4.06-3.4,10.5-9.19,14.38-13.1l-11.09.26,0-1.73,13.9-.26v1.65A122.71,122.71,0,0,1,140.39,530a18.62,18.62,0,0,1,8.45-2.21c4.42,0,7.77,2,8.33,5.16A6.55,6.55,0,0,1,157.29,534.27ZM142.86,536c-1,0-1.79.37-2,1.14a1.76,1.76,0,0,0-.06.39c0,1.59,2.67,2.5,5.7,2.5a16.66,16.66,0,0,0,2.61-.2A7.87,7.87,0,0,0,142.86,536Z" transform="translate(-4.21 -21.28)"/><path d="M161.41,546.55v-1h4.1V528.18h1.15v18.39Z" transform="translate(-4.21 -21.28)"/><path d="M190.9,531.27v5h-1.81V532c-3.74,1.68-6.44,3.43-6.44,5.22a2.29,2.29,0,0,0,.06.4c.31,1.39,3.35,2,7.23,2a54.11,54.11,0,0,0,6.55-.45l0,2c-1.9.15-3.83.23-5.67.23-5,0-9.24-.71-9.84-3.2a3.77,3.77,0,0,1-.11-.94c0-2.83,3.2-4.82,8.22-7,0-1.9-1.08-2.89-2.69-2.89-2.47,0-6.18,2.27-9.53,7.17l-1.67-1.25a43.59,43.59,0,0,0,7.57-10.88l-6.55.08,0-1.7,7.37-.09a25.39,25.39,0,0,0,1.31-3.62l2.07.34c-.46,1.22-.91,2.29-1.34,3.26l10.38-.12,0,1.7-11.17.15a29.07,29.07,0,0,1-3.4,5.61,8.86,8.86,0,0,1,5.36-2.16,3.89,3.89,0,0,1,4.08,3.63c2.07-.85,4.36-1.75,6.89-2.77l.88,1.72C196,529.31,193.31,530.28,190.9,531.27Z" transform="translate(-4.21 -21.28)"/><path d="M201.23,523.41v-1.67h10.43v1.67Zm2.64,17.36v1.36h-1.7v-8.51h8.59v7.15Zm-1.56-21.38v-1.67h8.28v1.67Zm.14,7.94v-1.62h8v1.62Zm0,3.91v-1.62h8v1.62Zm6.6,4h-5.18v3.85h5.18Zm6,5.24v1.62h-1.7V525.29a18.92,18.92,0,0,1-1.76,2.46l-1-1.36a24.4,24.4,0,0,0,5.39-9.75l1.59.42a25.15,25.15,0,0,1-1.82,4.37h4a20.11,20.11,0,0,0,2.24-4.79l1.61.42a22.77,22.77,0,0,1-2.06,4.37h4.53v1.64h-4.68v4.17h3.92v1.59h-3.92v4.22h3.92v1.59h-3.92v4.23h5.28v1.64Zm4.65-17.44h-4.65v4.17h4.65Zm0,5.76h-4.65v4.22h4.65Zm0,5.81h-4.65v4.23h4.65Z" transform="translate(-4.21 -21.28)"/><path d="M246.82,529.71a49.64,49.64,0,0,1-.51,7.14c-.56,3.26-1.81,4.45-4.42,4.45a18.66,18.66,0,0,1-3.88-.53l.08-2a15.26,15.26,0,0,0,3.63.62c1.9,0,2.38-1,2.78-3a42.56,42.56,0,0,0,.48-6.67c0-1,0-1.92-.11-2.72-.14-1.47-1-2.12-2.5-2.12h-.28c-1.22,0-2.49.11-3.91.19a49.52,49.52,0,0,1-6,16.45l-1.87-1.05a40.88,40.88,0,0,0,6-15.31l-5.9.28-.12-1.76c2.36,0,4.43-.14,6.3-.22a41.3,41.3,0,0,0,.54-6.32l2,0c-.17,2.21-.37,4.28-.68,6.18,1.31-.05,2.5-.11,3.63-.17h.4c2.55,0,4,1.28,4.25,3.63A27.61,27.61,0,0,1,246.82,529.71Zm7.09,3.74c-1-6.07-2.29-9-4.45-11.74l1.67-.79c2.19,2.92,3.46,5.53,4.77,11.94Z" transform="translate(-4.21 -21.28)"/><path d="M263.38,540a3.26,3.26,0,0,1-.54,0c-2.78-.4-4.37-3.74-4.37-7.65,0-6.13,3.91-13.64,13.55-13.64h.52a10.8,10.8,0,0,1,10.83,11.06c0,5.38-3.69,10.77-11.57,11.34l-.71-1.82c7-.11,10.46-5,10.46-9.69a9,9,0,0,0-8.84-9.19C270.89,529,268.31,540,263.38,540Zm-3.09-7.6c0,3,1,5.36,2.89,5.67.08,0,.14,0,.23,0,3,0,5.81-9.81,7.37-17.66C263.32,520.86,260.29,527.44,260.29,532.43Z" transform="translate(-4.21 -21.28)"/><path d="M293.09,523.19a64.21,64.21,0,0,1-5.39,18.17l-1.81-1a55.55,55.55,0,0,0,5.38-17.21l-5.21,0v-1.73l5.47,0c.17-1.56.31-3.12.37-4.65l2,.11c-.14,1.53-.31,3-.51,4.54l10.69,0v1.73ZM305,540.82a38.71,38.71,0,0,1-5.25-.34c-2.46-.37-3.94-1.53-3.94-3.2a5.41,5.41,0,0,1,1.79-3.55l1.81.66c-1.1,1.07-1.67,2-1.67,2.69s.79,1.42,2.3,1.67a27.57,27.57,0,0,0,4.19.29,37,37,0,0,0,5.3-.37l0,2C308.11,540.74,306.55,540.82,305,540.82Zm.28-11.74c-2.32,0-4.93.09-7.2.23l-.06-1.76c3.12-.08,5.64-.17,8.42-.17.8,0,1.59,0,2.44,0l0,1.76C307.83,529.11,306.58,529.08,305.25,529.08Z" transform="translate(-4.21 -21.28)"/><path d="M327.52,521.94a9.74,9.74,0,0,1,9.53,9.87c0,5-3.66,9.89-11.85,10l-.57-1.84h.79c6.67,0,9.67-4.11,9.67-8.22a8,8,0,0,0-7.94-8.2c-2.35,10.1-6,16.85-10.29,16.85a5.24,5.24,0,0,1-.65-.06c-2-.31-3.17-2.67-3.17-5.62a12.94,12.94,0,0,1,4-9.27q-.81-3-1.53-6.29l1.78-.45c.29,1.58.74,3.54,1.25,5.55a14.8,14.8,0,0,1,7-2.32c.31-1.39.57-2.81.83-4.31l1.87.28C328.09,519.28,327.8,520.61,327.52,521.94Zm-9.92,5.5a11.13,11.13,0,0,0-2.75,7.23c0,2.07.68,3.63,1.78,3.86a2.36,2.36,0,0,0,.37,0c1.11,0,2.27-.87,3.41-2.49C319.38,533.25,318.48,530.42,317.6,527.44Zm1.47-1.36c.77,2.84,1.68,5.7,2.53,8a46.48,46.48,0,0,0,3.65-10.38A12,12,0,0,0,319.07,526.08Z" transform="translate(-4.21 -21.28)"/><path d="M342.87,534.16c0,2.35.09,4.59.26,6.55l-2,.23c-.11-1.9-.17-3.92-.17-5.9a122.1,122.1,0,0,1,1.13-16.62l1.93.29A92.63,92.63,0,0,0,342.87,534.16Zm14.21,5.64a30.25,30.25,0,0,1-4-.23c-3-.36-4.68-1.87-4.68-3.88,0-1.39.76-3,2.41-4.71l2,.6c-1.7,1.45-2.55,2.81-2.55,3.91s1.08,2.1,3.12,2.36a28.46,28.46,0,0,0,3.26.17,41.08,41.08,0,0,0,7.09-.63l0,2A51.25,51.25,0,0,1,357.08,539.8Zm3.37-17.35c-3.32,0-7.66.17-10.46.43l-.11-1.85c3.57-.2,9.12-.34,12.92-.34v1.79C362.12,522.45,361.33,522.45,360.45,522.45Z" transform="translate(-4.21 -21.28)"/><path d="M12.68,485.41c-3.75,0-6.27-1.87-7.28-4.87l2.69-1.8a5.09,5.09,0,0,0,4.59,3.62c2.11,0,3.26-1,3.26-2.4s-.82-2.13-2.78-2.85l-2.72-.94c-2.92-1.06-4.27-2.42-4.27-5.09,0-2.9,2.4-5.3,6.36-5.3,3.29,0,5.48,1.17,6.51,3.72l-2.62,1.87a3.81,3.81,0,0,0-3.77-2.64c-2,0-3.05,1-3.05,2.18,0,1,.7,1.68,2.38,2.24l2.88.93c2.95,1,4.7,2.64,4.7,5.52C19.56,483.25,17.09,485.41,12.68,485.41Z" transform="translate(-4.21 -21.28)"/><path d="M22.5,485V466.23H26V485Z" transform="translate(-4.21 -21.28)"/><path d="M35.4,485.24c-4.18,0-6.81-2.73-6.81-6.93s2.63-7,6.81-7,6.79,2.73,6.79,7S39.63,485.24,35.4,485.24Zm0-11.16c-1.94,0-3.36,1.59-3.36,4.23s1.42,4.22,3.36,4.22,3.34-1.58,3.34-4.22S37.42,474.08,35.4,474.08Z" transform="translate(-4.21 -21.28)"/><path d="M49.76,489.85a20.87,20.87,0,0,1-4.25-.45l-.77-3.15a17.55,17.55,0,0,0,4.92.79c2.86,0,3.91-1,3.91-2.76v-1.34A4.62,4.62,0,0,1,50,484.38c-3.44,0-5.93-2.16-5.93-6.43s2.52-6.6,5.78-6.6c2,0,3.39.62,4,1.68l.48-1.4h2.5v12.84C56.84,488,54.8,489.85,49.76,489.85ZM53.57,476a3.1,3.1,0,0,0-3-1.92c-1.82,0-3.22,1.2-3.22,3.91s1.4,4,3.24,4a2.8,2.8,0,0,0,2.93-2.71Z" transform="translate(-4.21 -21.28)"/><path d="M72.15,485.12a4,4,0,0,1-1.08.12c-1.34,0-2.52-.57-2.73-1.7-.82,1.17-2.74,1.7-4.73,1.7-2.72,0-4.11-1.34-4.15-3.57v-.12c0-2.55,1.58-3.89,4.63-4.59,1.8-.38,3.29-.89,3.29-1.63,0-1-.7-1.34-2.28-1.34a5.58,5.58,0,0,0-4,2l-1.39-2.45a7.11,7.11,0,0,1,5.64-2.23c3.69,0,5.59,1.32,5.59,4.22v5.69a1,1,0,0,0,1.18,1.15,3.44,3.44,0,0,0,.69-.07ZM67.49,478a6.17,6.17,0,0,1-2.56,1.11c-1.32.33-2.16.81-2.16,2v.14c0,.87.6,1.32,1.7,1.32s2.71-.67,3-1.87Z" transform="translate(-4.21 -21.28)"/><path d="M83.47,485v-8.41a2.27,2.27,0,0,0-2.37-2.47A3.12,3.12,0,0,0,78,476.24V485h-3.4V471.63h3.12v1.71c.62-1.23,2.11-2,4.32-2a4.6,4.6,0,0,1,4.84,4.72V485Z" transform="translate(-4.21 -21.28)"/></svg>