<svg xmlns="http://www.w3.org/2000/svg" viewBox="0 0 316.36 255.73"><g id="レイヤー_2" data-name="レイヤー 2"><g id="レイヤー_1-2" data-name="レイヤー 1"><polygon points="102.46 80 0 80 0 0 102.46 0 122.39 40 102.46 80" style="fill:#5c5c9b"/><polygon points="316.36 80 108.91 80 128.84 40 108.91 0 316.36 0 316.36 80" style="fill:#f2f2f2"/><path d="M44.77,42.67A8.72,8.72,0,0,0,47.44,45a9.82,9.82,0,0,0,2.75-2.5H42.72V41h9.36v1.43a9.6,9.6,0,0,1-2.94,3.27,21.74,21.74,0,0,0,5.43,1L54,48.37a19.39,19.39,0,0,1-6.5-1.71A22.72,22.72,0,0,1,41,48.3l-.66-1.55a23.23,23.23,0,0,0,5.47-1,9.15,9.15,0,0,1-2.47-2.58Zm-1.9-4.2c-.2-.45-.62-1.31-.86-1.78l.72-.27c-.64,0-1.21,0-1.63,0L40.8,35c.81,0,1.56,0,2.73,0a46.94,46.94,0,0,0,9.7-.9l.83,1.31c-.68.13-1.34.27-2.3.4l1.23.38a22.14,22.14,0,0,1-1.06,2.2h2.22v3.84H52.57V39.9H42.27v2.41H40.69V38.47Zm4,0a14.59,14.59,0,0,0-.76-2.08c-.53,0-1.44,0-2.51,0,.32.67.6,1.36.87,2Zm3.38,0A13.54,13.54,0,0,0,51.28,36c-.91.12-1.17.15-3.52.33a17.11,17.11,0,0,1,.66,2.17Z" style="fill:#fff"/><path d="M57.48,36.76h5.08V38.1H57.48Zm.46-2.15h4.32V36H57.94Zm0,4.33h4.32v1.35H57.94Zm0,2.23h4.32v1.32H57.94Zm0,2.24h4.32V47.7h-3v.6H57.94Zm1.34,1.29v1.72h1.65V44.7Zm12-8.58H69.54v.79h1.24V38H69.54v.86h2V40h-4v.75h3.26v3.94h.7v1.23h-.7v1.23c0,.93-.44,1.13-1.2,1.13H67.86l-.2-1.38h1.55c.34,0,.37-.09.37-.32v-.66H64.44V48.3H63.15V45.94h-.59V44.71h.59V40.77h3.16V40H62.56V38.85h2V38H63.31V36.91h1.25v-.79H62.79V35h1.77v-.75h1.29V35H68.2v-.75h1.34V35h1.77Zm-6.87,5.77v.89h1.87v-.89Zm0,1.91v.91h1.87V43.8Zm1.41-7.68v.79H68.2v-.79Zm0,1.87v.86H68.2V38Zm1.78,3.9v.89h2v-.89Zm0,1.91v.91h2V43.8Z" style="fill:#fff"/><path d="M77.35,38.8a8.76,8.76,0,0,1-1.79,2.42l-1.18-1.16a10.52,10.52,0,0,0,2.83-5.56l1.61.3a15.16,15.16,0,0,1-.76,2.49h2.85V34.23h1.62v3.06h5.61V38.8H82.53v2.79H87.6v1.53H82.53v3.11h6.16v1.54h-14V46.23h6.26V43.12H75.78V41.59h5.13V38.8Z" style="fill:#fff"/><path d="M148,16.78c0,.07-.14.11-.28.08a14.53,14.53,0,0,1-3.15,1.91,4,4,0,0,0-.61-.55,10.41,10.41,0,0,0,3.11-1.86Zm4.26-3A16.84,16.84,0,0,1,155.77,16l-.69.52a9.93,9.93,0,0,0-.94-.75c-1.27.05-2.58.09-3.85.11v3h-.87v-3L144.7,16a.2.2,0,0,1-.18.17l-.36-.93h2.77l1-.52a17.45,17.45,0,0,0-2.59-1.57l.59-.47.91.47a16.8,16.8,0,0,0,1.6-1.3h-3.35V7.29h9.71v4.58H149.5l.22.11c-.05.07-.13.09-.27.09a21.93,21.93,0,0,1-2,1.46,11.51,11.51,0,0,1,1.18.78,28.43,28.43,0,0,0,3.29-2.18l.89.5a.36.36,0,0,1-.3.1,42.58,42.58,0,0,1-4.12,2.5l4.81-.07a17.74,17.74,0,0,0-1.55-.88ZM145.89,8V9.23h3.55V8Zm0,1.91v1.23h3.55V9.92Zm8-.69V8h-3.62V9.23Zm0,1.92V9.92h-3.62v1.23Zm1,7.65a18.65,18.65,0,0,0-3.26-2l.64-.46a20,20,0,0,1,3.32,1.91Z" style="fill:#494991"/><path d="M162,9v.73h-5.2V9Zm-.53,5.31v3.82h-3.28v.61h-.78V14.34Zm-4.05-2.82V10.8h4.09v.72Zm0,1.76v-.71h4.09v.71Zm4.09-6V8h-4V7.3Zm-.84,7.78h-2.48v2.34h2.48Zm8.38-3.72v.86h-3v6.69h-.88V12.22H162v-.86h3.15V6.86l1.14.08c0,.09-.08.16-.26.18v4.24Z" style="fill:#494991"/><path d="M179.35,13l.65.38a.31.31,0,0,1-.18.13,8.57,8.57,0,0,1-3,3.28,17.2,17.2,0,0,0,5,1.35,4.39,4.39,0,0,0-.56.84,16.33,16.33,0,0,1-5.3-1.67A18.51,18.51,0,0,1,170.74,19a3.77,3.77,0,0,0-.52-.82,17.79,17.79,0,0,0,4.84-1.37,9.07,9.07,0,0,1-2.63-2.68l.69-.29H171.8V13h7.38Zm-8.26-1.54v2h-.83V10.65h2.12a8.7,8.7,0,0,0-.9-1.73l.78-.24a8.23,8.23,0,0,1,1,1.8l-.5.17h5.51a17.57,17.57,0,0,0,1.32-2.32l1,.39c0,.08-.15.1-.28.1a18.64,18.64,0,0,1-1.15,1.83h2.35v2.74h-.86v-2Zm9.66-3.83a.2.2,0,0,1-.14,0l-.13,0a74.32,74.32,0,0,1-9.88,1,2.79,2.79,0,0,0-.21-.75,70.6,70.6,0,0,0,9.7-1Zm-7.51,6.19a8,8,0,0,0,2.7,2.51,7.47,7.47,0,0,0,2.66-2.51Zm2.47-5.32a8.74,8.74,0,0,1,.73,1.94l-.85.22a8.63,8.63,0,0,0-.67-2Z" style="fill:#494991"/><path d="M182.82,9.8V9.06h4.38V9.8Zm4.1,4.67v3.82h-2.8v.61h-.75V14.47Zm-.06-3.59v.71h-3.48v-.71Zm-3.48,2.51v-.72h3.48v.72Zm3.44-6.09V8h-3.36V7.3Zm-.67,7.91h-2v2.34h2Zm8.83.86v.74h-.81V18c0,.87-.38.92-2.24.92a2.33,2.33,0,0,0-.23-.72l1,0c.58,0,.64,0,.64-.23V16.81H189v2.1h-.76v-2.1h-.9v-.74h.9V12.71h2.52v-.8h-3.42v-.72h2v-.95h-1.34V9.57h1.34V8.68h-1.6V8h1.6V6.84l1.05.07c0,.08-.07.15-.24.17V8h2.21V6.84l1,.07c0,.08-.08.15-.25.17V8h1.65v.69H193.1v.89h1.41v.67H193.1v.95H195v.72h-3.46v.8h2.68v3.36Zm-4.24-2.7H189v1.06h1.76ZM189,15.07v1h1.76v-1Zm1.11-6.39v.89h2.21V8.68Zm0,1.56v.95h2.21v-.95Zm3.26,3.13h-1.86v1.06h1.86Zm-1.86,2.7h1.86v-1h-1.86Z" style="fill:#494991"/><path d="M202.32,17.63h5.46v.85H196v-.85h5.39V14.14h-4V13.3h4v-3h-3.18a10.55,10.55,0,0,1-1.56,2.41,5.06,5.06,0,0,0-.73-.53,12.64,12.64,0,0,0,2.52-5.1l1.13.31c0,.09-.13.15-.3.15-.19.63-.41,1.28-.67,1.91h2.79V6.84l1.17.06c0,.09-.09.16-.27.18V9.44h4.85v.85h-4.85v3h4.37v.84h-4.37Z" style="fill:#494991"/><path d="M144.83,31.77v-2a13.37,13.37,0,0,0,1.94-.18,2.75,2.75,0,0,0,1.43-.78,2.6,2.6,0,0,0,.57-1.07,2.13,2.13,0,0,0,.11-.59h2.44V42h-3V31.77Z" style="fill:#494991"/><path d="M165.66,29.05a11.5,11.5,0,0,1,1.15,5.68,11.45,11.45,0,0,1-1.15,5.68,5,5,0,0,1-8,0,11.45,11.45,0,0,1-1.15-5.68,11.5,11.5,0,0,1,1.15-5.68,5,5,0,0,1,8,0ZM160,38.66A1.69,1.69,0,0,0,161.68,40a1.68,1.68,0,0,0,1.71-1.36,14.63,14.63,0,0,0,.4-3.93,14.32,14.32,0,0,0-.4-4,1.65,1.65,0,0,0-1.71-1.3,1.67,1.67,0,0,0-1.72,1.3,13.79,13.79,0,0,0-.42,4A14.1,14.1,0,0,0,160,38.66Z" style="fill:#494991"/><path d="M169.68,44.91l-.34-.38c.5-.46,1-.91,1-1.37,0-.21-.09-.33-.19-.35a1,1,0,0,1-.82-1,1,1,0,0,1,1-1.07,1.09,1.09,0,0,1,1.07,1.19A4.55,4.55,0,0,1,169.68,44.91Z" style="fill:#494991"/><path d="M182.91,29.05a11.62,11.62,0,0,1,1.14,5.68,11.57,11.57,0,0,1-1.14,5.68,5,5,0,0,1-8,0,11.57,11.57,0,0,1-1.14-5.68,11.62,11.62,0,0,1,1.14-5.68,5,5,0,0,1,8,0Zm-5.71,9.61A1.7,1.7,0,0,0,178.92,40a1.68,1.68,0,0,0,1.71-1.36,14.56,14.56,0,0,0,.41-3.93,14.24,14.24,0,0,0-.41-4,1.65,1.65,0,0,0-1.71-1.3,1.68,1.68,0,0,0-1.72,1.3,13.79,13.79,0,0,0-.42,4A14.1,14.1,0,0,0,177.2,38.66Z" style="fill:#494991"/><path d="M196.64,38.83H195V42H192.1v-3.2h-5.89V36.27l5.47-9H195v9.29h1.68Zm-4.54-2.29v-6.4l-3.71,6.4Z" style="fill:#494991"/><path d="M201.6,37.46a3.36,3.36,0,0,0,.29,1.48A2,2,0,0,0,203.82,40a2.13,2.13,0,0,0,1.5-.59,2.19,2.19,0,0,0,.64-1.7,1.91,1.91,0,0,0-1.18-2,6.11,6.11,0,0,0-2.13-.28V33.4a5.16,5.16,0,0,0,2-.28,1.69,1.69,0,0,0,1-1.74,1.93,1.93,0,0,0-.49-1.38,1.81,1.81,0,0,0-1.4-.54,1.77,1.77,0,0,0-1.52.66,2.77,2.77,0,0,0-.46,1.75H199a7.36,7.36,0,0,1,.38-2.1,4.64,4.64,0,0,1,1.13-1.61,3.92,3.92,0,0,1,1.36-.8,6,6,0,0,1,1.93-.27,5.13,5.13,0,0,1,3.44,1.1,3.67,3.67,0,0,1,1.31,3,3.26,3.26,0,0,1-.78,2.21,2.65,2.65,0,0,1-1,.77,2.1,2.1,0,0,1,1.15.69A3.65,3.65,0,0,1,209,37.65,4.75,4.75,0,0,1,207.7,41a5,5,0,0,1-3.87,1.43c-2.1,0-3.56-.68-4.38-2.06a6.12,6.12,0,0,1-.72-2.87Z" style="fill:#494991"/><path d="M221,30.29a8.53,8.53,0,0,0-.07,1.16,16.44,16.44,0,0,0,.29,2.82,11.46,11.46,0,0,0,1.67,3.64A11.34,11.34,0,0,0,224.78,40a8.4,8.4,0,0,0,1.51,1,2.71,2.71,0,0,0-.68.82,11.8,11.8,0,0,1-3.44-3.33,11.1,11.1,0,0,1-1.69-4.14,11.24,11.24,0,0,1-.9,2.9,8.76,8.76,0,0,1-1.86,2.67,11.4,11.4,0,0,1-2.39,1.9,2.49,2.49,0,0,0-.71-.77,9.36,9.36,0,0,0,2.66-2A10.69,10.69,0,0,0,220,31.44a8.84,8.84,0,0,0-.05-1.15Z" style="fill:#494991"/><path d="M229.57,31.93a7.31,7.31,0,0,0-.1-1.36h1a8.6,8.6,0,0,0-.08,1.22v.15l.07,6.59c.71-.28,1.14-.48,1.7-.75a17.73,17.73,0,0,0,2-1.09l.17.8a29.31,29.31,0,0,1-5.1,2.44,5.44,5.44,0,0,0-.76.32l-.29-1a11.1,11.1,0,0,0,1.43-.43Zm9-1.38a10.11,10.11,0,0,0-.1,1.29,20.1,20.1,0,0,1-.59,3.43,9.35,9.35,0,0,1-1,2.37A8.26,8.26,0,0,0,240,40.93a3.12,3.12,0,0,0-.59.83,9.72,9.72,0,0,1-2-1.81,8.85,8.85,0,0,1-1.09-1.56,10.36,10.36,0,0,1-4.76,3.47,2.56,2.56,0,0,0-.56-.78,10.68,10.68,0,0,0,2.6-1.29,8.31,8.31,0,0,0,3.55-5.14,14.42,14.42,0,0,0,.42-3.45,6,6,0,0,0,0-.67Zm-5.68.9a18.74,18.74,0,0,1,2.52,3.11l-.78.54a15,15,0,0,0-2.46-3.17Z" style="fill:#494991"/><path d="M247.67,40.45h4.25a12,12,0,0,0,1.46-.08v1a9.66,9.66,0,0,0-1.46-.1h-8.66a10.63,10.63,0,0,0-1.53.1v-1a12.61,12.61,0,0,0,1.53.08h3.49V31.67a9.77,9.77,0,0,0-.09-1.35h1.1a9.66,9.66,0,0,0-.09,1.35v2.66H251a10.09,10.09,0,0,0,1.35-.07v1a10.2,10.2,0,0,0-1.35-.08h-3.29Z" style="fill:#494991"/><polygon points="102.46 167.72 0 167.72 0 87.72 102.46 87.72 122.39 127.72 102.46 167.72" style="fill:#5c5c9b"/><polygon points="316.36 167.72 108.91 167.72 128.84 127.72 108.91 87.72 316.36 87.72 316.36 167.72" style="fill:#f2f2f2"/><path d="M40.38,122.19h5.08v1.33H40.38Zm.46-2.16h4.32v1.35H40.84Zm0,4.33h4.32v1.35H40.84Zm0,2.24h4.32v1.32H40.84Zm0,2.23h4.32v4.29h-3v.6H40.84Zm1.34,1.29v1.73h1.65v-1.73Zm12-8.58H52.44v.8h1.24v1.08H52.44v.85h2.05v1.17h-4v.75h3.26v3.95h.7v1.23h-.7v1.23c0,.93-.44,1.12-1.2,1.12H50.76l-.2-1.38h1.55c.34,0,.37-.09.37-.31v-.66H47.34v2.35H46.05v-2.35h-.59v-1.23h.59v-3.95h3.16v-.75H45.46v-1.17h2v-.85H46.21v-1.08h1.25v-.8H45.69V120.4h1.77v-.75h1.29v.75H51.1v-.75h1.34v.75h1.77Zm-6.87,5.78v.88h1.87v-.88Zm0,1.9v.92h1.87v-.92Zm1.41-7.68v.8H51.1v-.8Zm0,1.88v.85H51.1v-.85Zm1.78,3.9v.88h1.95v-.88Zm0,1.9v.92h1.95v-.92Z" style="fill:#fff"/><path d="M57.87,121.09h1.26a7.39,7.39,0,0,0,.46-1.5l1.73.09a11.71,11.71,0,0,1-.51,1.41h2.1v4.83H59.32v1.53h3.77v5.18H59.32v1H57.87Zm1.45,1.4v2.2h2.24v-2.2Zm0,6.28v2.52h2.42v-2.52Zm4.73,3.53v-8.81h2.77v-1.81h-3.3v-1.46h8.07v1.46H68.28v1.81h2.8v7.8c0,.35,0,1-.81,1H68.82l-.21-1.56h.85c.18,0,.18-.15.18-.27V125H68.28v8.77H66.82V125h-1.3v7.32Z" style="fill:#fff"/><path d="M74.58,122.19h5.09v1.33H74.58ZM75,120h4.32v1.35H75Zm0,4.33h4.32v1.35H75Zm0,2.24h4.32v1.32H75Zm0,2.23h4.32v4.29h-3v.6H75Zm1.34,1.29v1.73H78v-1.73Zm12-8.58H86.64v.8h1.24v1.08H86.64v.85h2v1.17h-4v.75H88v3.95h.7v1.23H88v1.23c0,.93-.44,1.12-1.2,1.12H85l-.2-1.38h1.55c.34,0,.37-.09.37-.31v-.66H81.54v2.35H80.25v-2.35h-.58v-1.23h.58v-3.95h3.16v-.75H79.67v-1.17h2v-.85H80.41v-1.08h1.25v-.8H79.89V120.4h1.77v-.75H83v.75H85.3v-.75h1.34v.75h1.77Zm-6.87,5.78v.88h1.87v-.88Zm0,1.9v.92h1.87v-.92ZM83,121.54v.8H85.3v-.8Zm0,1.88v.85H85.3v-.85Zm1.78,3.9v.88h2v-.88Zm0,1.9v.92h2v-.92Z" style="fill:#fff"/><path d="M98.13,119.64h1.56v1.29h5.92v1.47H94.23v5.41a12.59,12.59,0,0,1-1.4,5.64l-1.32-1.24a9.3,9.3,0,0,0,1.2-4.53v-6.75h5.42ZM99.22,123h1.47v5.73h4.46v1.34h-4.46v1.72h5v1.41H94.23v-1.41h5v-1.72H94.87v-1.34h4.35ZM98,128.26a10.2,10.2,0,0,1-1.23-1.71,7.58,7.58,0,0,1-1.18,1.77l-1.17-.91a8,8,0,0,0,2-4.43l1.46.12a8.74,8.74,0,0,1-.41,1.86A7.38,7.38,0,0,0,99,127.09Zm6.87.11a11.19,11.19,0,0,1-1.81-1.89,8.31,8.31,0,0,1-1.07,1.81l-1.15-.9a9.72,9.72,0,0,0,1.77-4.5l1.47.18c-.12.57-.27,1.2-.48,1.89a8.09,8.09,0,0,0,2.23,2.13Z" style="fill:#fff"/><path d="M148,117.41c0,.07-.14.11-.28.08a14.53,14.53,0,0,1-3.15,1.91,4.6,4.6,0,0,0-.61-.54,10.62,10.62,0,0,0,3.11-1.86Zm4.26-3a16.84,16.84,0,0,1,3.47,2.18l-.69.52a9.93,9.93,0,0,0-.94-.75c-1.27,0-2.58.09-3.85.12v3h-.87v-3l-4.72.12a.19.19,0,0,1-.18.17l-.36-.92,2.77,0,1-.52a17.45,17.45,0,0,0-2.59-1.57l.59-.47.91.47a16.8,16.8,0,0,0,1.6-1.3h-3.35v-4.58h9.71v4.58H149.5l.22.12a.32.32,0,0,1-.27.09,21.93,21.93,0,0,1-2,1.45,13.44,13.44,0,0,1,1.18.78,28.43,28.43,0,0,0,3.29-2.18l.89.51a.39.39,0,0,1-.3.09,44.63,44.63,0,0,1-4.12,2.51l4.81-.08a15.33,15.33,0,0,0-1.55-.87Zm-6.41-5.81v1.22h3.55v-1.22Zm0,1.91v1.23h3.55v-1.23Zm8-.69v-1.22h-3.62v1.22Zm0,1.92v-1.23h-3.62v1.23Zm1,7.65a18.65,18.65,0,0,0-3.26-2l.64-.46a19.37,19.37,0,0,1,3.32,1.92Z" style="fill:#494991"/><path d="M162,109.66v.73h-5.2v-.73Zm-.53,5.31v3.82h-3.28v.61h-.78V115Zm-4.05-2.82v-.72h4.09v.72Zm0,1.77v-.72h4.09v.72Zm4.09-6v.71h-4v-.71Zm-.84,7.77h-2.48v2.34h2.48Zm8.38-3.72v.86h-3v6.7h-.88v-6.7H162V112h3.15v-4.5l1.14.08c0,.09-.08.16-.26.18V112Z" style="fill:#494991"/><path d="M169.82,110.43v-.74h4.38v.74Zm4.1,4.67v3.82h-2.8v.61h-.75V115.1Zm-.06-3.59v.72h-3.48v-.72ZM170.38,114v-.71h3.48V114Zm3.44-6.08v.71h-3.36v-.71Zm-.67,7.9h-2v2.34h2Zm8.83.86v.74h-.81v1.18c0,.87-.38.93-2.24.93a2.39,2.39,0,0,0-.23-.73l1,0c.58,0,.64,0,.64-.23v-1.17H176v2.11h-.76v-2.11h-.9v-.74h.9v-3.36h2.52v-.8h-3.42v-.72h2v-.95h-1.34v-.67h1.34v-.89h-1.6v-.69h1.6v-1.15l1.05.08c0,.07-.07.14-.24.16v.91h2.21v-1.15l1,.08c0,.07-.08.14-.25.16v.91h1.65v.69H180.1v.89h1.41v.67H180.1v.95H182v.72h-3.46v.8h2.68v3.36ZM177.74,114H176v1h1.76ZM176,115.7v1h1.76v-1Zm1.11-6.39v.89h2.21v-.89Zm0,1.56v.95h2.21v-.95Zm3.26,3.14h-1.86v1h1.86Zm-1.86,2.69h1.86v-1h-1.86Z" style="fill:#494991"/><path d="M194.78,109.78H184.67v2.85c0,2-.17,5-1.24,7a3.65,3.65,0,0,0-.74-.49c1-1.9,1.12-4.55,1.12-6.46V109h5v-1.49l1.16.08c0,.09-.08.15-.26.18V109h5.08Zm-4.55,6.57v2.06h4.59v.78H184.74v-.78h4.63v-2.06h-3.68v-.78h3.68v-5.25l1.11.06c0,.09-.08.16-.25.18v5H194v.78Zm-1.68-1.73a14.55,14.55,0,0,0-1.44-1.59,5.1,5.1,0,0,1-1.52,2,3.79,3.79,0,0,0-.61-.5,5.85,5.85,0,0,0,2-3.93l1,.16c0,.09-.09.14-.25.15a10.6,10.6,0,0,1-.37,1.45,15,15,0,0,1,1.7,1.73Zm5.78.28a21.93,21.93,0,0,0-2-1.91,4.85,4.85,0,0,1-1.5,1.8,3.17,3.17,0,0,0-.58-.5,5.47,5.47,0,0,0,2-3.73l1,.17c0,.09-.1.14-.25.16a7.93,7.93,0,0,1-.39,1.39,20.91,20.91,0,0,1,2.21,2Z" style="fill:#494991"/><path d="M197,109.41h8.27l.08,0,.88.67a.34.34,0,0,1-.16.12c-1,4.89-3.31,7.44-7.29,8.94a5.44,5.44,0,0,0-.58-.76,9.85,9.85,0,0,0,6.81-8h-8Zm9.91-2.33a1.42,1.42,0,1,1-1.43,1.43A1.41,1.41,0,0,1,206.94,107.08Zm1,1.43a1,1,0,0,0-1-1,1,1,0,0,0-1,1,1,1,0,0,0,1,1A1,1,0,0,0,207.92,108.51Z" style="fill:#494991"/><path d="M219.38,109.61v8.58h-.94v-.82h-7.16v.85h-.91v-8.61Zm-.94,6.89v-6h-7.16v6Z" style="fill:#494991"/><path d="M233.07,112.94h-4.29l.22.07a.28.28,0,0,1-.26.15,7.51,7.51,0,0,1-4,6,5.55,5.55,0,0,0-.7-.64,6.54,6.54,0,0,0,3.75-5.59h-5v-.87h10.26Zm-1.92-3.55h-7.21v-.87h7.21Zm.17-1.91a9.27,9.27,0,0,1,1.43,2l-.52.36a8.49,8.49,0,0,0-1.41-2.06Zm1.54-.44a10.91,10.91,0,0,1,1.47,2l-.54.33a9.17,9.17,0,0,0-1.43-2Z" style="fill:#494991"/><path d="M245.3,117.39v.75h-8.87v-.75h5.29c.21-1.32.56-3.9.69-5.23h-4.95v-.75h5.21l.16,0,.64.31a.2.2,0,0,1-.16.11c-.17,1.37-.59,4.22-.81,5.61Z" style="fill:#494991"/><path d="M248.38,112.81h10.85v.92H248.87a.61.61,0,0,1-.41.25Z" style="fill:#494991"/><path d="M270.39,109.17a.24.24,0,0,1-.17.14,19.94,19.94,0,0,1-2.6,4.48,47.25,47.25,0,0,1,4.76,4.4l-.8.69a42.68,42.68,0,0,0-4.56-4.37,20.3,20.3,0,0,1-5,4.37,5.56,5.56,0,0,0-.68-.7,18.68,18.68,0,0,0,7.62-8.49h-6.38v-.88h6.89l.16-.07Z" style="fill:#494991"/><path d="M276.65,113.27v-1.71a8.44,8.44,0,0,1-2.39,2,3.06,3.06,0,0,0-.48-.67,6.63,6.63,0,0,0,2.64-2.19h-2.56V110h2.79v-2.5l1.07.07c0,.09-.08.15-.25.16V110h2.76v.74h-2.76v.3c.54.31,1.93,1.21,2.28,1.47l-.51.63a20.73,20.73,0,0,0-1.77-1.4v1.55Zm3.63,2h-1.17a5.55,5.55,0,0,1-.92,2.06,14.49,14.49,0,0,1,1.51.93l-.59.65a10.58,10.58,0,0,0-1.48-1,7.44,7.44,0,0,1-3.23,1.55,2,2,0,0,0-.41-.75,6.39,6.39,0,0,0,2.87-1.2c-.49-.25-1-.49-1.51-.69l-.26.46-.76-.28c.28-.48.63-1.12,1-1.78h-1.47v-.77h1.86c.21-.43.42-.86.59-1.25l1,.24c0,.09-.11.13-.28.11-.13.28-.27.59-.43.9h3.69Zm-5.21-7.47a6.91,6.91,0,0,1,.91,1.73l-.69.33a6.94,6.94,0,0,0-.89-1.76Zm1.14,7.47-.5,1c.58.22,1.17.47,1.72.73a4.52,4.52,0,0,0,.82-1.69Zm1.82-5.72a11.68,11.68,0,0,0,1.05-1.76l.92.41c0,.09-.15.1-.26.09a16,16,0,0,1-1.11,1.57Zm7.89,1.15h-.87a15.17,15.17,0,0,1-1.64,5.37A6.54,6.54,0,0,0,286,118.8a3.86,3.86,0,0,0-.63.76,7.26,7.26,0,0,1-2.52-2.61,8.2,8.2,0,0,1-3.17,2.61,3.61,3.61,0,0,0-.48-.74,7.31,7.31,0,0,0,3.2-2.75,16.35,16.35,0,0,1-1.24-3.77,9,9,0,0,1-.84,1.58,3.69,3.69,0,0,0-.67-.56,15.38,15.38,0,0,0,2-5.85l1.1.23c0,.11-.12.16-.28.16-.13.69-.29,1.39-.47,2.06h3.92Zm-4.16,0,0,.13a17.86,17.86,0,0,0,1.21,4.28,15.15,15.15,0,0,0,1.24-4.41Z" style="fill:#494991"/><path d="M144.72,141.65a8.18,8.18,0,0,1,2.95-3.15,23.39,23.39,0,0,0,2.62-2.07,3.06,3.06,0,0,0,.91-2.14,2.36,2.36,0,0,0-.52-1.57,1.87,1.87,0,0,0-1.5-.62,1.82,1.82,0,0,0-1.81,1,4.77,4.77,0,0,0-.33,1.83H144.2a7.22,7.22,0,0,1,.69-3.07,4.28,4.28,0,0,1,4.15-2.22,5.27,5.27,0,0,1,3.76,1.3,4.55,4.55,0,0,1,1.4,3.47,4.67,4.67,0,0,1-1,2.93,9.73,9.73,0,0,1-2.13,1.9l-1.17.83c-.73.51-1.23.89-1.5,1.12a3.49,3.49,0,0,0-.68.81h6.49v2.58H144A7,7,0,0,1,144.72,141.65Z" style="fill:#494991"/><path d="M159.32,140a3.36,3.36,0,0,0,.29,1.48,2,2,0,0,0,1.93,1.08A2.17,2.17,0,0,0,163,142a2.19,2.19,0,0,0,.64-1.7,1.92,1.92,0,0,0-1.19-2,6.09,6.09,0,0,0-2.12-.27v-2.1a5.46,5.46,0,0,0,2-.27,1.71,1.71,0,0,0,1-1.75,1.92,1.92,0,0,0-.5-1.38,2.1,2.1,0,0,0-2.91.12,2.85,2.85,0,0,0-.47,1.76h-2.72a7,7,0,0,1,.38-2.11,4.84,4.84,0,0,1,1.12-1.61,4.29,4.29,0,0,1,1.36-.8,6.09,6.09,0,0,1,1.94-.27,5.13,5.13,0,0,1,3.44,1.1,3.66,3.66,0,0,1,1.3,3,3.26,3.26,0,0,1-.78,2.21,2.62,2.62,0,0,1-1,.77,2.1,2.1,0,0,1,1.15.69,3.68,3.68,0,0,1,1.12,2.83,4.79,4.79,0,0,1-1.31,3.32,5,5,0,0,1-3.87,1.43q-3.15,0-4.38-2.06a6.19,6.19,0,0,1-.72-2.88Z" style="fill:#494991"/><path d="M178.18,131.6a14.58,14.58,0,0,1,0,11.35,5,5,0,0,1-8,0,14.58,14.58,0,0,1,0-11.35,5,5,0,0,1,8,0Zm-5.7,9.6a1.69,1.69,0,0,0,1.72,1.36,1.68,1.68,0,0,0,1.71-1.36,14.55,14.55,0,0,0,.4-3.92,14.4,14.4,0,0,0-.4-4A1.66,1.66,0,0,0,174.2,132a1.67,1.67,0,0,0-1.72,1.29,13.87,13.87,0,0,0-.42,4A14,14,0,0,0,172.48,141.2Z" style="fill:#494991"/><path d="M186.38,138.6c0-.53,0-1,.05-1.56a9.72,9.72,0,0,1-1.37,2,2.36,2.36,0,0,0-.52-.75,12.75,12.75,0,0,0,2.51-4.11,8.2,8.2,0,0,0,.45-1.68l.91.27c-.06.18-.1.3-.21.59a18.09,18.09,0,0,1-1,2.43v7.11c0,.6,0,1.08.07,1.52h-1a10.29,10.29,0,0,0,.08-1.56Zm5.63-4.48a7.63,7.63,0,0,0-.09-1.31h1a7.42,7.42,0,0,0-.09,1.31v1.45h1.89a8.76,8.76,0,0,0,1.33-.07v.91a12.57,12.57,0,0,0-1.31-.08h-1.91v2.83h2.44a8.41,8.41,0,0,0,1.35-.08V140a11.1,11.1,0,0,0-1.34-.08h-2.45v3.12a7.82,7.82,0,0,0,.09,1.35h-1a8.12,8.12,0,0,0,.09-1.35v-3.12h-2.6a9.77,9.77,0,0,0-1.35.08v-.93a8,8,0,0,0,1.35.08H192v-2.83h-2.17a11.19,11.19,0,0,1-1.17,2,2.67,2.67,0,0,0-.74-.51A9.44,9.44,0,0,0,189.5,135a6.74,6.74,0,0,0,.44-1.73l.9.26c-.08.22-.12.35-.23.71-.2.63-.29.88-.46,1.33H192Z" style="fill:#494991"/><path d="M199.81,134.47a7.31,7.31,0,0,0-.1-1.36h1a8.6,8.6,0,0,0-.08,1.22v.15l.06,6.59c.72-.28,1.15-.48,1.71-.75a17.73,17.73,0,0,0,2-1.09l.17.8a29.67,29.67,0,0,1-5.1,2.44,5.64,5.64,0,0,0-.77.32l-.28-.95a11.59,11.59,0,0,0,1.43-.43Zm9-1.38a11.21,11.21,0,0,0-.11,1.29,19.18,19.18,0,0,1-.58,3.43,9.72,9.72,0,0,1-1,2.37,8.3,8.3,0,0,0,3.18,3.29,3.09,3.09,0,0,0-.58.83,9.46,9.46,0,0,1-2-1.81,8.89,8.89,0,0,1-1.1-1.56,10.33,10.33,0,0,1-4.75,3.47,2.74,2.74,0,0,0-.56-.78,11,11,0,0,0,2.6-1.28,8.36,8.36,0,0,0,3.55-5.15,14.36,14.36,0,0,0,.41-3.45,4.3,4.3,0,0,0,0-.67Zm-5.68.9a19.81,19.81,0,0,1,2.52,3.11l-.78.54a15,15,0,0,0-2.46-3.17Z" style="fill:#494991"/><path d="M217.91,143h4.25a12.08,12.08,0,0,0,1.46-.08v1a9.66,9.66,0,0,0-1.46-.1H213.5a10.53,10.53,0,0,0-1.53.1v-1a12.61,12.61,0,0,0,1.53.08H217v-8.78a8.43,8.43,0,0,0-.09-1.35H218a8.35,8.35,0,0,0-.09,1.35v2.66h3.29a10.19,10.19,0,0,0,1.35-.07v1a10.2,10.2,0,0,0-1.35-.08h-3.29Z" style="fill:#494991"/><polygon points="102.46 255.73 0 255.73 0 175.73 102.46 175.73 122.39 215.73 102.46 255.73" style="fill:#5c5c9b"/><polygon points="316.36 255.73 108.91 255.73 128.84 215.73 108.91 175.73 316.36 175.73 316.36 255.73" style="fill:#f2f2f2"/><path d="M40.41,215h2.92v4.42c.12,1.11,1.7,2.06,3.81,2.06h7.55l-.2,1.45H47.08a5.15,5.15,0,0,1-4.17-1.54,9.33,9.33,0,0,1-1.87,2l-.84-1.65a12.42,12.42,0,0,0,1.62-1.26v-3.94H40.41Zm1.12-5.52A14,14,0,0,1,43.74,212l-1.26,1a27.43,27.43,0,0,0-2-2.61Zm2.45.09H54.21v2.62H52.77v.56h-3v.72h3.91v4.63H49.8v.69h4.69v1.19H49.8v1.11H48.37v-1.11H43.9v-1.19h4.47v-.69h-3.9v-4.63h3.9v-.72h-3v-.56H44Zm1.44,2.07h2.95v-.86H45.42Zm.51,2.88v.79h2.44v-.79Zm0,1.72v.8h2.44v-.8Zm6.81-5.46H49.8v.86h2.94Zm-2.94,3.74v.79h2.46v-.79Zm0,1.72v.8h2.46v-.8Z" style="fill:#fff"/><path d="M69.18,218.75H65.52v4.44H64v-4.44H60.46a7.87,7.87,0,0,1-1.77,4.47l-1.23-1.38a5.74,5.74,0,0,0,1.08-1.72,9.54,9.54,0,0,0,.59-3.09v-7.16H70.75V222a1.17,1.17,0,0,1-1.29,1.29h-2l-.18-1.56h1.53a.32.32,0,0,0,.36-.35Zm-8.54-3.67v1.71c0,.09,0,.43,0,.49H64v-2.2Zm0-3.69v2.19H64v-2.19Zm4.88,0v2.19h3.66v-2.19Zm0,3.69v2.2h3.66v-2.2Z" style="fill:#fff"/><path d="M74.54,217.84a9.61,9.61,0,0,0,2.75-1.46,12.57,12.57,0,0,1-1-1.27,6,6,0,0,1-1,.82l-.72-1A7.71,7.71,0,0,0,76.42,213H75.17v-2.7h2.35V209.2h1.53v1.11h2.43V213h-.56v1.24a9.12,9.12,0,0,1-1.59,2.19,7.87,7.87,0,0,0,2.45,1.4l-.39,1.45c-.15-.06-.3-.1-.47-.18v3.6H76.73v.6H75.3v-4.18l-.27.12Zm5.6.88a10.08,10.08,0,0,1-1.84-1.33,10.92,10.92,0,0,1-2.11,1.33ZM80.08,213V211.6H76.59v1.18a4.36,4.36,0,0,0,.48-.88l1.14.54c-.14.3-.2.4-.29.57Zm-3.35,6.9v1.6h2.8v-1.6Zm.55-5.72a7.59,7.59,0,0,0,1,1.29,6.45,6.45,0,0,0,1-1.29Zm7.45,7.1a10.86,10.86,0,0,1-2.58,2.07l-1-1.16a7.74,7.74,0,0,0,2.43-1.83Zm4-11.64v1.48h-3a7.88,7.88,0,0,1-.33,1h2.91v8.22H82.06v-8.22h1.83a4.6,4.6,0,0,0,.32-1H81.73v-1.48Zm-5.13,3.78v1h3.18v-1Zm0,2.2v1h3.18v-1Zm0,2.24V219h3.18v-1.14Zm4.5,5.46a12.32,12.32,0,0,1-2.4-2l1-1a9.71,9.71,0,0,0,2.25,1.68Z" style="fill:#fff"/><path d="M145.75,205.81c0,.07-.14.1-.29.08a14.7,14.7,0,0,1-3.14,1.91,5.32,5.32,0,0,0-.61-.55,10.49,10.49,0,0,0,3.1-1.86Zm4.25-3a16.57,16.57,0,0,1,3.47,2.18l-.69.52a9.65,9.65,0,0,0-.93-.75c-1.28,0-2.59.09-3.85.11v3h-.87v-3l-4.72.12a.2.2,0,0,1-.18.17l-.37-.93h2.77l1-.52A18,18,0,0,0,143,202.2l.58-.47.91.47a14.62,14.62,0,0,0,1.6-1.3h-3.35v-4.58h9.71v4.58h-5.26l.22.11c-.05.07-.13.09-.28.09a21.93,21.93,0,0,1-2,1.46,11.73,11.73,0,0,1,1.19.78,30.27,30.27,0,0,0,3.29-2.18l.88.5a.32.32,0,0,1-.3.09,40.65,40.65,0,0,1-4.12,2.51l4.81-.07a16.39,16.39,0,0,0-1.55-.88ZM143.59,197v1.23h3.55V197Zm0,1.92v1.23h3.55V199Zm8-.69V197H148v1.23Zm0,1.92V199H148v1.23Zm1,7.65a18.4,18.4,0,0,0-3.27-2l.64-.46a20.16,20.16,0,0,1,3.33,1.91Z" style="fill:#494991"/><path d="M159.72,198.06v.73h-5.2v-.73Zm-.53,5.31v3.82h-3.27v.61h-.78v-4.43Zm-4-2.82v-.72h4.08v.72Zm0,1.76v-.71h4.08v.71Zm4.08-6v.72h-4v-.72Zm-.83,7.78h-2.48v2.34h2.48Zm8.37-3.72v.86h-3v6.69h-.88v-6.69h-3.15v-.86h3.15v-4.5L164,196c0,.09-.07.15-.26.18v4.24Z" style="fill:#494991"/><path d="M168.73,197.8H177l.08,0,.88.68a.31.31,0,0,1-.15.12c-1.06,4.88-3.32,7.43-7.3,8.94a6.2,6.2,0,0,0-.58-.77,9.83,9.83,0,0,0,6.81-8h-8Zm9.91-2.32a1.42,1.42,0,1,1-1.43,1.43A1.42,1.42,0,0,1,178.64,195.48Zm1,1.43a1,1,0,1,0-2,0,1,1,0,1,0,2,0Z" style="fill:#494991"/><path d="M191.08,198v8.58h-.93v-.82H183v.85h-.91V198Zm-.93,6.89v-6H183v6Z" style="fill:#494991"/><path d="M198.87,202V205c0,.69.32,1.15,1.27,1.15h2.39a11.67,11.67,0,0,0,1.58-.09c0,.25,0,.69,0,.89a13.87,13.87,0,0,1-1.6.07h-2.45c-1.59,0-2.15-.83-2.15-2V202h-3.72v-.86h3.72V198h-2.78v-.86h8.37V198h-4.65v3.21h5.89V202Z" style="fill:#494991"/><path d="M207.08,201.21h10.86v.92H207.58a.63.63,0,0,1-.42.25Z" style="fill:#494991"/><path d="M220.6,200a18.39,18.39,0,0,1,3.5,1.17l-.39.82a18.6,18.6,0,0,0-3.5-1.2Zm.78,6.36c4.23-1.42,7.12-3.67,8.84-7.57.2.17.6.44.8.57a14.31,14.31,0,0,1-8.75,7.69.31.31,0,0,1-.16.32Zm.65-9.58a21.1,21.1,0,0,1,3.49,1.27l-.43.79a21.6,21.6,0,0,0-3.45-1.31Z" style="fill:#494991"/><path d="M241.72,199.62v7.91h-.78V207H235.1v-.72h5.84v-2.64h-5.32v-.73h5.32v-2.52h-5.52v-.72Z" style="fill:#494991"/><path d="M247.1,197.28a16.29,16.29,0,0,1,3.87,1.77l-.49.82a17,17,0,0,0-3.8-1.81Zm0,9c4.61-1.43,7.68-4,9.24-7.62a5.65,5.65,0,0,0,.84.54,14.88,14.88,0,0,1-9.2,7.8.45.45,0,0,1-.18.3Z" style="fill:#494991"/><path d="M261.18,201.07v4.27c1,1.55,2.91,1.55,5.35,1.55,1.43,0,3.1,0,4.11-.09a2.8,2.8,0,0,0-.27.86c-.9,0-2.33.05-3.62.05-2.86,0-4.65,0-5.94-1.61-.6.58-1.21,1.15-1.71,1.6a.18.18,0,0,1-.11.2l-.5-.92c.55-.42,1.23-1,1.84-1.55V201.9h-1.71v-.83Zm-1.75-4.88a9.55,9.55,0,0,1,2.15,2.17l-.72.55a9,9,0,0,0-2.1-2.24Zm6.23,10.34v-1.37H261.8v-.69h3.86v-.88h-2.87v-3.73h2.87V199h-3.35v-.68h3.35v-1l1.11.06c0,.09-.09.16-.26.18v.78h3.38V199h-3.38v.86h2.91v3.73h-2.91v.88h3.92v.69h-3.92v1.37ZM262.85,197v1h-.79v-1.71h8.11V198h-.82v-1Zm.72,3.5v.94h2.09v-.94Zm0,2.48h2.09v-1h-2.09Zm5.06-2.48h-2.12v.94h2.12Zm0,2.48v-1h-2.12v1Z" style="fill:#494991"/><path d="M282.65,196.8v9.88c0,1.2-.57,1.21-3,1.18a3.31,3.31,0,0,0-.31-.84l1.33,0c1.08,0,1.14,0,1.14-.37v-2.82H278v3.95h-.85v-3.95h-3.42a7.55,7.55,0,0,1-1.66,4.15,3.4,3.4,0,0,0-.66-.59c1.45-1.64,1.6-4,1.6-5.83V196.8Zm-8.75,4.79c0,.45,0,.93,0,1.44h3.34v-2.28H273.9Zm3.29-4H273.9v2.3h3.29Zm4.59,2.3v-2.3H278v2.3ZM278,203h3.74v-2.28H278Z" style="fill:#494991"/><path d="M289.71,204c-.1-.11-.22-.22-.35-.34v3.42h-3.09v.62h-.77V204c-.2.11-.39.2-.59.29a3.5,3.5,0,0,0-.48-.63,8.47,8.47,0,0,0,2.72-1.83c-.44-.34-.9-.66-1.31-1a6.4,6.4,0,0,1-.86.75,5.51,5.51,0,0,0-.56-.5,7.31,7.31,0,0,0,2.39-3l.93.3c0,.08-.12.12-.28.12-.09.19-.19.39-.3.58H289l.14,0,.53.27a.32.32,0,0,1-.13.13,7.58,7.58,0,0,1-1.26,2.24,19.9,19.9,0,0,1,2,1.66Zm-4.2-6.13v1.28h-.74v-2H287v-1.29l1.08.07c0,.09-.08.16-.24.18v1h2.27v2h-.77v-1.28Zm3.82,5.76c-.44-.4-1-.86-1.58-1.32a9.93,9.93,0,0,1-1.6,1.32Zm-.75,2.72v-2h-2.31v2Zm-1.85-6.55c-.13.19-.27.37-.41.56.41.28.87.59,1.32.92a6.48,6.48,0,0,0,.91-1.48Zm6.08,6.39a.39.39,0,0,1-.24.09,7.78,7.78,0,0,1-2.57,1.63,6.71,6.71,0,0,0-.6-.59,7.26,7.26,0,0,0,2.56-1.57Zm-2-7.58h1.77c.1-.41.22-.92.28-1.35h-2.57v-.78h6.34v.78h-2.88c-.08.39-.21.9-.34,1.35h2.65v6.84h-5.25Zm4.42,2.06v-1.35h-3.61v1.35Zm0,2v-1.37h-3.61v1.37Zm0,2.05v-1.38h-3.61v1.38Zm.9,3.22a15.9,15.9,0,0,0-2.24-1.74l.65-.43a16,16,0,0,1,2.29,1.69Z" style="fill:#494991"/><path d="M144.51,226.11a3.35,3.35,0,0,0,.28,1.47,2,2,0,0,0,1.94,1.08,2.17,2.17,0,0,0,1.5-.59,2.22,2.22,0,0,0,.64-1.7,1.93,1.93,0,0,0-1.19-2,6.16,6.16,0,0,0-2.13-.27v-2.09a5.71,5.71,0,0,0,2-.28,1.72,1.72,0,0,0,1-1.74,2,2,0,0,0-.5-1.39,1.84,1.84,0,0,0-1.4-.53,1.77,1.77,0,0,0-1.51.65,2.8,2.8,0,0,0-.47,1.76H141.9a7.72,7.72,0,0,1,.38-2.11,4.74,4.74,0,0,1,1.13-1.6,3.86,3.86,0,0,1,1.36-.8,5.76,5.76,0,0,1,1.94-.28,5.15,5.15,0,0,1,3.43,1.1,3.69,3.69,0,0,1,1.31,3,3.26,3.26,0,0,1-.78,2.21,2.55,2.55,0,0,1-1,.77,2.1,2.1,0,0,1,1.15.69,3.65,3.65,0,0,1,1.12,2.83,4.75,4.75,0,0,1-1.31,3.32,5,5,0,0,1-3.86,1.43q-3.17,0-4.39-2.06a6,6,0,0,1-.71-2.87Z" style="fill:#494991"/><path d="M163.37,217.7a14.7,14.7,0,0,1,0,11.35,5,5,0,0,1-8,0,14.7,14.7,0,0,1,0-11.35,5,5,0,0,1,8,0Zm-5.71,9.6a1.69,1.69,0,0,0,1.72,1.36,1.67,1.67,0,0,0,1.71-1.36,14.48,14.48,0,0,0,.41-3.92,14.32,14.32,0,0,0-.41-4,1.66,1.66,0,0,0-1.71-1.29,1.68,1.68,0,0,0-1.72,1.29,13.87,13.87,0,0,0-.42,4A14,14,0,0,0,157.66,227.3Z" style="fill:#494991"/><path d="M171.35,225.15c0-.64,0-1.38.05-1.91a9.05,9.05,0,0,1-1.15,1.78,4,4,0,0,0-.5-.76,11.54,11.54,0,0,0,2.25-4,9.63,9.63,0,0,0,.43-1.68l.89.22a5.92,5.92,0,0,0-.22.65,22.87,22.87,0,0,1-1,2.54v6.94c0,.78,0,1.17.05,1.62h-.92a11.24,11.24,0,0,0,.08-1.59Zm3.25,2.36a8.17,8.17,0,0,1-1.24,2.7l-.69-.47a5.31,5.31,0,0,0,1.23-2.46Zm5.44-7.74a9.05,9.05,0,0,0,1.32-.07v.76a12.23,12.23,0,0,0-1.32-.06h-.35a11.12,11.12,0,0,1-.58,1.24h1.39a7.29,7.29,0,0,0,1.31-.07v.8a7.69,7.69,0,0,0-1.31-.07h-6.34a7.64,7.64,0,0,0-1.28.07v-.8a7,7,0,0,0,1.28.07h1.35a7.05,7.05,0,0,0-.56-1.24h-.16a10.84,10.84,0,0,0-1.28.06v-.76a8.45,8.45,0,0,0,1.28.07h2v-.21a4.06,4.06,0,0,0-.06-.85h.95a4.07,4.07,0,0,0-.07.86v.2Zm-5,6.93a11.31,11.31,0,0,0-1.33.05,11.33,11.33,0,0,0,0-1.32v-1.22a8.31,8.31,0,0,0,0-1.14,9.8,9.8,0,0,0,1.27.05h4.51a10.27,10.27,0,0,0,1.28-.05,8.22,8.22,0,0,0-.05,1.14v1.22a11,11,0,0,0,.05,1.32,11.09,11.09,0,0,0-1.34-.05Zm-.51-2.12H180v-.84h-5.41Zm0,1.49H180v-.88h-5.41Zm1.58,1.08a4.31,4.31,0,0,0-.07,1v1.15c0,.31.17.37,1.37.37.93,0,1.38-.06,1.5-.2s.16-.41.17-1.06a3,3,0,0,0,.71.22c-.06.88-.17,1.25-.4,1.43a4.6,4.6,0,0,1-2.21.27c-1.55,0-1.91-.16-1.91-.82v-1.35a5.92,5.92,0,0,0-.08-1Zm2.15-5.51a7.93,7.93,0,0,0,.56-1.24h-3.06c.16.32.34.76.54,1.24Zm-1.24,5.24a10.68,10.68,0,0,1,1.58,1.41l-.57.5a8.58,8.58,0,0,0-1.51-1.5Zm3.2.35a13.13,13.13,0,0,1,1.69,2.43l-.67.45a10.19,10.19,0,0,0-1.63-2.5Z" style="fill:#494991"/><path d="M185.17,229.05a8.09,8.09,0,0,0,.06,1.38h-1a9.8,9.8,0,0,0,.07-1.42v-8.36a9.7,9.7,0,0,0,0-1.16,9.61,9.61,0,0,0,1.2.06h7.93a9.07,9.07,0,0,0,1.2-.06,9.72,9.72,0,0,0-.06,1.2v8.53c0,.78-.28,1-1.54,1-.52,0-1.24,0-1.86-.08a3.14,3.14,0,0,0-.21-.84,19.72,19.72,0,0,0,2,.15c.58,0,.69,0,.69-.3v-4h-8.47Zm3.7-8.71h-3.7v3.95h3.7Zm4.77,3.95v-3.95h-3.92v3.95Z" style="fill:#494991"/><path d="M198.52,220.57a7.35,7.35,0,0,0-.11-1.36h1a8.73,8.73,0,0,0-.07,1.22v.16l.06,6.59c.72-.29,1.14-.48,1.7-.76a14.76,14.76,0,0,0,2-1.09l.17.81a30.32,30.32,0,0,1-5.09,2.43,5.64,5.64,0,0,0-.77.32l-.29-.95a10.64,10.64,0,0,0,1.43-.43Zm9-1.38a10.34,10.34,0,0,0-.1,1.29,19.93,19.93,0,0,1-.59,3.43,9.2,9.2,0,0,1-1,2.37,8.26,8.26,0,0,0,3.19,3.29,3.36,3.36,0,0,0-.59.83,9.72,9.72,0,0,1-2-1.81,8.85,8.85,0,0,1-1.09-1.56,10.31,10.31,0,0,1-4.76,3.47,2.56,2.56,0,0,0-.56-.78,10.86,10.86,0,0,0,2.6-1.28,8.32,8.32,0,0,0,3.55-5.15,13.88,13.88,0,0,0,.42-3.45,4.38,4.38,0,0,0,0-.67Zm-5.68.9a18.74,18.74,0,0,1,2.52,3.11l-.78.54a14.94,14.94,0,0,0-2.45-3.17Z" style="fill:#494991"/><path d="M216.61,229.09h4.25a11.84,11.84,0,0,0,1.46-.08v1a9.62,9.62,0,0,0-1.46-.09h-8.65a10.82,10.82,0,0,0-1.54.09v-1a12.79,12.79,0,0,0,1.54.08h3.48v-8.78a9.87,9.87,0,0,0-.09-1.35h1.1a9.66,9.66,0,0,0-.09,1.35V223h3.29a9.87,9.87,0,0,0,1.35-.08v1a10.2,10.2,0,0,0-1.35-.08h-3.29Z" style="fill:#494991"/></g><g id="Layer_1" data-name="Layer 1"><polyline points="24.3 123.19 24.3 118.34 21.07 115.11 7.33 115.11 7.33 138.54 24.3 138.54 24.3 126.42" style="fill:none;stroke:#fff;stroke-linecap:round;stroke-linejoin:round;stroke-width:0.807947001050117px"/><polygon points="17.83 129.65 17.03 132.08 19.45 131.27 28.34 122.38 26.72 120.77 17.83 129.65" style="fill:none;stroke:#fff;stroke-linecap:round;stroke-linejoin:round;stroke-width:0.807947001050117px"/><line x1="25.51" y1="121.98" x2="27.12" y2="123.59" style="fill:none;stroke:#fff;stroke-linecap:round;stroke-linejoin:round;stroke-width:0.807947001050117px"/><line x1="20.26" y1="133.69" x2="10.56" y2="133.69" style="fill:none;stroke:#fff;stroke-linecap:round;stroke-linejoin:round;stroke-width:0.807947001050117px"/><line x1="10.56" y1="131.27" x2="15.41" y2="131.27" style="fill:none;stroke:#fff;stroke-linecap:round;stroke-linejoin:round;stroke-width:0.807947001050117px"/><line x1="10.56" y1="128.85" x2="15.41" y2="128.85" style="fill:none;stroke:#fff;stroke-linecap:round;stroke-linejoin:round;stroke-width:0.807947001050117px"/><line x1="10.56" y1="126.42" x2="17.83" y2="126.42" style="fill:none;stroke:#fff;stroke-linecap:round;stroke-linejoin:round;stroke-width:0.807947001050117px"/><line x1="10.56" y1="124" x2="20.26" y2="124" style="fill:none;stroke:#fff;stroke-linecap:round;stroke-linejoin:round;stroke-width:0.807947001050117px"/><line x1="10.56" y1="121.57" x2="20.26" y2="121.57" style="fill:none;stroke:#fff;stroke-linecap:round;stroke-linejoin:round;stroke-width:0.807947001050117px"/><polyline points="21.07 115.11 21.07 118.34 24.3 118.34" style="fill:none;stroke:#fff;stroke-linecap:round;stroke-linejoin:round;stroke-width:0.807947001050117px"/></g><g id="瀧_1" data-name="瀧 1"><path d="M24.85,50a.43.43,0,0,1-.43-.43V47.4c0-2.77-1.83-4.78-4.34-4.78H17.47c-2.51,0-4.34,2-4.34,4.78v2.17a.43.43,0,0,1-.43.43.44.44,0,0,1-.44-.43V47.4a5.32,5.32,0,0,1,5.21-5.65h2.61a5.32,5.32,0,0,1,5.21,5.65v2.17A.44.44,0,0,1,24.85,50Z" style="fill:#fff"/><path d="M18.78,40.89c-1.82,0-3-1.4-3-3.48s1.22-3.47,3-3.47,3,1.39,3,3.47S20.59,40.89,18.78,40.89Zm0-6.08c-1.61,0-2.18,1.4-2.18,2.6S17.17,40,18.78,40,21,38.61,21,37.41,20.38,34.81,18.78,34.81Z" style="fill:#fff"/><path d="M30.93,50a.43.43,0,0,1-.43-.43V47.7a3.82,3.82,0,0,0-3.85-3.77h-.49a.44.44,0,0,1-.44-.44.44.44,0,0,1,.44-.43h.49a4.69,4.69,0,0,1,4.72,4.64v1.87A.44.44,0,0,1,30.93,50Z" style="fill:#fff"/><path d="M25.71,42.19c-1.56,0-2.6-1.22-2.6-3s1-3,2.6-3,2.61,1.22,2.61,3S27.27,42.19,25.71,42.19Zm0-5.21C24.43,37,24,38.1,24,39.15s.45,2.17,1.73,2.17,1.74-1.12,1.74-2.17S27,37,25.71,37Z" style="fill:#fff"/><path d="M6.62,50a.44.44,0,0,1-.44-.43V47.7a4.69,4.69,0,0,1,4.72-4.64h.49a.44.44,0,0,1,.44.43.44.44,0,0,1-.44.44H10.9A3.82,3.82,0,0,0,7.05,47.7v1.87A.43.43,0,0,1,6.62,50Z" style="fill:#fff"/><path d="M11.84,42.19c-1.56,0-2.61-1.22-2.61-3s1-3,2.61-3,2.6,1.22,2.6,3S13.4,42.19,11.84,42.19Zm0-5.21c-1.28,0-1.74,1.12-1.74,2.17s.46,2.17,1.74,2.17,1.73-1.12,1.73-2.17S13.12,37,11.84,37Z" style="fill:#fff"/><path d="M6.89,218.58h0v2.5c0,1,2.28,1.93,4.89,1.93a9.19,9.19,0,0,0,2.44-.26s0,0,0,.06,0,.1,0,.11a10.13,10.13,0,0,1-2.46.25c-2.4,0-4.89-.78-4.89-2.09v-2.5h0m0-.46a.43.43,0,0,0-.39.47v2.5c0,1.62,2.66,2.47,5.28,2.47a10.37,10.37,0,0,0,2.55-.26.47.47,0,0,0,.3-.55.41.41,0,0,0-.38-.37h-.08a9.47,9.47,0,0,1-2.39.25c-2.71,0-4.51-.93-4.51-1.55v-2.5a.43.43,0,0,0-.38-.47Z" style="fill:#fff"/><path d="M11.78,214.06a11.26,11.26,0,0,1,2.4.25.14.14,0,0,1,0,.11s0,.05,0,.05a11,11,0,0,0-2.42-.26c-2.61,0-4.89.9-4.89,1.93s2.28,1.93,4.89,1.93a10.25,10.25,0,0,0,2.45-.28.08.08,0,0,1,0,.05.2.2,0,0,1,0,.11,10.58,10.58,0,0,1-2.46.28c-2.4,0-4.89-.78-4.89-2.09s2.49-2.08,4.89-2.08m0-.39c-2.62,0-5.28.85-5.28,2.47s2.66,2.47,5.28,2.47a11.38,11.38,0,0,0,2.55-.28.47.47,0,0,0,.3-.55.41.41,0,0,0-.38-.37h-.07a10.64,10.64,0,0,1-2.4.26c-2.71,0-4.51-.92-4.51-1.54s1.8-1.54,4.51-1.54a10.27,10.27,0,0,1,2.35.25h.07a.41.41,0,0,0,.38-.38.47.47,0,0,0-.3-.54,11.61,11.61,0,0,0-2.5-.27Z" style="fill:#fff"/><path d="M6.89,216.14h0v2.51c0,1,2.28,1.92,4.89,1.92a10.29,10.29,0,0,0,2.39-.26s0,0,0,.06,0,.1,0,.1a10.79,10.79,0,0,1-2.41.26c-2.4,0-4.89-.78-4.89-2.08v-2.51h0m0-.46a.43.43,0,0,0-.39.46v2.51c0,1.62,2.66,2.47,5.28,2.47a11.45,11.45,0,0,0,2.49-.27.47.47,0,0,0,.31-.54.41.41,0,0,0-.38-.38h-.07a10.86,10.86,0,0,1-2.35.25c-2.71,0-4.51-.93-4.51-1.54v-2.51a.43.43,0,0,0-.38-.46Z" style="fill:#fff"/><path d="M31.4,218.58h0v2.5c0,1.31-2.49,2.09-4.9,2.09a9.74,9.74,0,0,1-2.42-.28.13.13,0,0,1,0-.11.11.11,0,0,0,0,0,10,10,0,0,0,2.44.28c2.61,0,4.9-.9,4.9-1.93v-2.5h0m0-.46a.43.43,0,0,0-.39.47v2.5c0,.62-1.8,1.55-4.51,1.55a9.39,9.39,0,0,1-2.37-.28h-.08a.42.42,0,0,0-.38.37.48.48,0,0,0,.3.55,10.27,10.27,0,0,0,2.53.29c2.62,0,5.28-.85,5.28-2.47v-2.5a.43.43,0,0,0-.38-.47Z" style="fill:#fff"/><path d="M26.5,214.06c2.41,0,4.9.78,4.9,2.08s-2.49,2.09-4.9,2.09a11,11,0,0,1-2.37-.25.15.15,0,0,1,0-.12s0,0,0-.05a10.68,10.68,0,0,0,2.39.26c2.61,0,4.9-.9,4.9-1.93s-2.29-1.93-4.9-1.93a9.22,9.22,0,0,0-2.41.28.1.1,0,0,1,0-.06c0-.06,0-.11,0-.11a10.18,10.18,0,0,1,2.43-.26m0-.39A10.4,10.4,0,0,0,24,214a.47.47,0,0,0-.3.54.41.41,0,0,0,.38.37h.07a10.2,10.2,0,0,1,2.37-.25c2.71,0,4.51.93,4.51,1.54s-1.8,1.54-4.51,1.54a10.59,10.59,0,0,1-2.32-.24H24.1a.4.4,0,0,0-.37.37.46.46,0,0,0,.3.54,10.81,10.81,0,0,0,2.47.27c2.62,0,5.28-.85,5.28-2.47s-2.66-2.47-5.28-2.47Z" style="fill:#fff"/><path d="M31.4,216.14h0v2.51c0,1.3-2.49,2.08-4.9,2.08a11.07,11.07,0,0,1-2.38-.25.13.13,0,0,1,0-.11s0,0,0-.05a10.78,10.78,0,0,0,2.4.25c2.61,0,4.9-.9,4.9-1.92v-2.51h0m0-.46a.43.43,0,0,0-.39.46v2.51c0,.61-1.8,1.54-4.51,1.54a10.24,10.24,0,0,1-2.34-.25h-.07a.41.41,0,0,0-.37.38.46.46,0,0,0,.3.54,11.42,11.42,0,0,0,2.48.27c2.62,0,5.28-.85,5.28-2.47v-2.51a.43.43,0,0,0-.38-.46Z" style="fill:#fff"/><path d="M14.24,219.82h0c0,1.08,2.25,2,4.9,2s4.87-.91,4.9-2c0,1.39-2.54,2.13-4.9,2.13s-4.9-.75-4.9-2.15h0m9.8-.46a.44.44,0,0,0-.39.46c0,.66-1.75,1.61-4.51,1.61s-4.51-1-4.51-1.61a.39.39,0,1,0-.77,0c0,1.67,2.66,2.54,5.28,2.54s5.28-.87,5.28-2.54a.43.43,0,0,0-.38-.46Z" style="fill:#fff"/><path d="M14.24,219.82h0v2.59c0,1.08,2.25,2,4.9,2s4.87-.91,4.9-2c0,1.39-2.54,2.13-4.9,2.13s-4.9-.75-4.9-2.15v-2.59h0m9.8-.46a.44.44,0,0,0-.39.46v2.59c0,.66-1.75,1.61-4.51,1.61s-4.51-1-4.51-1.61v-2.59a.39.39,0,1,0-.77,0v2.59c0,1.67,2.66,2.54,5.28,2.54s5.28-.87,5.28-2.54v-2.59a.43.43,0,0,0-.38-.46Z" style="fill:#fff"/><path d="M14.24,217.29h0c0,1.08,2.25,2,4.9,2s4.87-.9,4.9-2c0,1.38-2.54,2.13-4.9,2.13s-4.9-.76-4.9-2.15h0m9.8-.45a.43.43,0,0,0-.39.46c0,.65-1.75,1.61-4.51,1.61s-4.51-1-4.51-1.61a.39.39,0,1,0-.77,0c0,1.66,2.66,2.53,5.28,2.53s5.28-.87,5.28-2.53a.42.42,0,0,0-.38-.46Z" style="fill:#fff"/><path d="M14.24,217.29h0v2.59c0,1.08,2.25,2,4.9,2s4.87-.9,4.9-2c0,1.38-2.54,2.13-4.9,2.13s-4.9-.76-4.9-2.15V217.3h0m9.8-.45a.43.43,0,0,0-.39.46v2.59c0,.65-1.75,1.61-4.51,1.61s-4.51-1-4.51-1.61V217.3a.39.39,0,1,0-.77,0v2.59c0,1.66,2.66,2.53,5.28,2.53s5.28-.87,5.28-2.53V217.3a.42.42,0,0,0-.38-.46Z" style="fill:#fff"/><path d="M14.24,214.77h0c0,1.08,2.25,2,4.9,2s4.87-.9,4.9-2c0,1.39-2.54,2.13-4.9,2.13s-4.9-.75-4.9-2.15h0m9.8-.46a.44.44,0,0,0-.39.46c0,.66-1.75,1.61-4.51,1.61s-4.51-.95-4.51-1.61a.39.39,0,1,0-.77,0c0,1.67,2.66,2.54,5.28,2.54s5.28-.87,5.28-2.54a.43.43,0,0,0-.38-.46Z" style="fill:#fff"/><path d="M14.24,214.77h0v2.59c0,1.08,2.25,2,4.9,2s4.87-.9,4.9-2c0,1.39-2.54,2.13-4.9,2.13s-4.9-.75-4.9-2.15v-2.59h0m9.8-.46a.44.44,0,0,0-.39.46v2.59c0,.66-1.75,1.61-4.51,1.61s-4.51-.95-4.51-1.61v-2.59a.39.39,0,1,0-.77,0v2.59c0,1.67,2.66,2.54,5.28,2.54s5.28-.87,5.28-2.54v-2.59a.43.43,0,0,0-.38-.46Z" style="fill:#fff"/><path d="M14.24,212.21h0c0,1.08,2.25,2,4.9,2s4.87-.9,4.9-2c0,1.38-2.54,2.13-4.9,2.13s-4.9-.75-4.9-2.15h0m9.8-.46a.43.43,0,0,0-.39.46c0,.65-1.75,1.61-4.51,1.61s-4.51-1-4.51-1.61a.39.39,0,1,0-.77,0c0,1.66,2.66,2.53,5.28,2.53s5.28-.87,5.28-2.53a.42.42,0,0,0-.38-.46Z" style="fill:#fff"/><path d="M14.24,212.21h0v2.59c0,1.08,2.25,2,4.9,2s4.87-.9,4.9-2c0,1.38-2.54,2.13-4.9,2.13s-4.9-.75-4.9-2.15v-2.59h0m9.8-.46a.43.43,0,0,0-.39.46v2.59c0,.65-1.75,1.61-4.51,1.61s-4.51-1-4.51-1.61v-2.59a.39.39,0,1,0-.77,0v2.59c0,1.66,2.66,2.53,5.28,2.53s5.28-.87,5.28-2.53v-2.59a.42.42,0,0,0-.38-.46Z" style="fill:#fff"/><path d="M19.14,207.53c2.36,0,4.88.75,4.9,2.13,0-1.07-2.26-2-4.9-2s-4.9.91-4.9,2,2.25,2,4.9,2,4.87-.91,4.9-2c0,1.39-2.54,2.13-4.9,2.13s-4.9-.75-4.9-2.15,2.53-2.15,4.9-2.15m0-.38c-2.62,0-5.28.87-5.28,2.53s2.66,2.54,5.28,2.54,5.28-.87,5.28-2.54-2.66-2.53-5.28-2.53Zm0,4.14c-2.75,0-4.51-.95-4.51-1.61s1.76-1.61,4.51-1.61,4.51,1,4.51,1.61-1.75,1.61-4.51,1.61Z" style="fill:#fff"/><path d="M14.24,209.68h0v2.59c0,1.08,2.25,2,4.9,2s4.87-.91,4.9-2c0,1.39-2.54,2.13-4.9,2.13s-4.9-.75-4.9-2.15v-2.59h0m9.8-.46a.44.44,0,0,0-.39.46v2.59c0,.66-1.75,1.61-4.51,1.61s-4.51-.95-4.51-1.61v-2.59a.39.39,0,1,0-.77,0v2.59c0,1.67,2.66,2.54,5.28,2.54s5.28-.87,5.28-2.54v-2.59a.43.43,0,0,0-.38-.46Z" style="fill:#fff"/></g><g id="_レイヤー_" data-name="&lt;レイヤー&gt;"><path d="M147.3,53.49a5.54,5.54,0,0,0,0-.59c.21,0,.43,0,.71,0h2.16V51.3H147.8a8.23,8.23,0,0,1-1.66,2,1.57,1.57,0,0,0-.48-.48,6.52,6.52,0,0,0,2-2.69,4,4,0,0,0,.25-.73l.71.2-.13.27-.38.81h4.95a5.24,5.24,0,0,0,.9,0v.68a5.46,5.46,0,0,0-.9-.05H150.8v1.63h1.81a5.4,5.4,0,0,0,.89,0v.66a7.24,7.24,0,0,0-.88,0H150.8v2h2.52a6.73,6.73,0,0,0,1-.06v.72a7.21,7.21,0,0,0-1-.06H150.8v1.65a4.56,4.56,0,0,0,.07.93h-.79a4.45,4.45,0,0,0,.06-.93V56.06h-3.6a7.21,7.21,0,0,0-1,.06V55.4a6.91,6.91,0,0,0,1,.06h.76Zm2.84,2v-2H148v2Z" style="fill:#494991"/><path d="M156.57,57.46a7.2,7.2,0,0,0,.06,1.12h-.74a7.47,7.47,0,0,0,.06-1.12V51c0-.49,0-.78,0-1.1a9.26,9.26,0,0,0,1.05,0h1.43a8.77,8.77,0,0,0,1,0c0,.28,0,.58,0,1v1.24c0,.4,0,.68,0,.93-.27,0-.61,0-1,0h-1.83Zm0-6.23h2.24v-.8h-2.24Zm0,1.28h2.24V51.7h-2.24Zm5.24,3.79c0,.38,0,.65,0,.91-.28,0-.61,0-1,0h-2.18v.7H158a6.17,6.17,0,0,0,0-.94V54.72c0-.36,0-.65,0-.94a9,9,0,0,0,1,0h1.82a8.86,8.86,0,0,0,1,0c0,.28,0,.54,0,.94Zm-3.17-1.09h2.6v-.89h-2.6Zm0,1.47h2.6v-1h-2.6Zm5.35.93c0,.66-.21.83-1,.83-.21,0-.75,0-1,0a2.3,2.3,0,0,0-.18-.64,10.87,10.87,0,0,0,1.1.1c.41,0,.49,0,.49-.29V53h-2c-.42,0-.74,0-1,0,0-.26,0-.56,0-.93V50.85c0-.35,0-.65,0-1a8.66,8.66,0,0,0,1,0H163a9.26,9.26,0,0,0,1,0,9.46,9.46,0,0,0,0,1.1Zm-3.07-6.38h2.46v-.8h-2.46Zm0,1.28h2.46V51.7h-2.46Z" style="fill:#494991"/><path d="M167.94,58.18a6.43,6.43,0,0,0,.06-1V50.92a5.93,5.93,0,0,0-.06-1h.86a6.28,6.28,0,0,0-.05,1v1.87a25.06,25.06,0,0,1,4.44,2.11l-.43.74a20.61,20.61,0,0,0-3.72-2,1.1,1.1,0,0,1-.31-.17h0a3.49,3.49,0,0,1,0,.59v3a6.8,6.8,0,0,0,.05,1.06Z" style="fill:#494991"/><path d="M175.85,53.62a7.07,7.07,0,0,0,1.24.06h5.8a7.89,7.89,0,0,0,1.21,0v.81a11.44,11.44,0,0,0-1.22,0h-5.79a10.92,10.92,0,0,0-1.24,0Z" style="fill:#494991"/><path d="M190,49.84a5,5,0,0,0-.35.66c-.09.19-.19.36-.3.55.13,0,.13,0,3.08,0a1.73,1.73,0,0,0,.58-.1l.45.45a2.24,2.24,0,0,0-.29.66,11.38,11.38,0,0,1-2.61,4.3,11,11,0,0,1-3.15,2.06,1.78,1.78,0,0,0-.49-.62A9,9,0,0,0,189,56.66a7,7,0,0,0,1.72-1.58,12.51,12.51,0,0,0-2.23-1.62l.46-.51a14.71,14.71,0,0,1,2.2,1.55,11.94,11.94,0,0,0,1.39-2.9l-3.49,0a9.93,9.93,0,0,1-2.38,2.66,1.83,1.83,0,0,0-.58-.48A8.7,8.7,0,0,0,188.63,51a5.46,5.46,0,0,0,.59-1.37Z" style="fill:#494991"/><path d="M198.5,50.3a5,5,0,0,0-.06.86c-.08,2.71-.16,3.45-.54,4.46a6.11,6.11,0,0,1-1.73,2.47,1.85,1.85,0,0,0-.6-.54,5,5,0,0,0,1.69-2.3,13.64,13.64,0,0,0,.45-4.29,4.45,4.45,0,0,0,0-.71Zm2.47-.11a3.88,3.88,0,0,0-.06.88l-.06,6A4.62,4.62,0,0,0,202.71,56a5,5,0,0,0,1.18-2,2.8,2.8,0,0,0,.56.58,5.68,5.68,0,0,1-2,2.57,6.59,6.59,0,0,1-1.43.73l-.32.12-.23.11-.4-.46a1.69,1.69,0,0,0,.07-.68l.06-5.85a4,4,0,0,0,0-.89Z" style="fill:#494991"/><path d="M205.58,51.3a4.27,4.27,0,0,0,.8.05h1.93a4,4,0,0,0,.8-.05V52a4.57,4.57,0,0,0-.73,0h-2a6,6,0,0,0-.8,0Zm.42,7.29c0-.3.05-.66.05-1V56.25a6.93,6.93,0,0,0,0-.82,3.32,3.32,0,0,0,.64,0h1.53a4.21,4.21,0,0,0,.61,0,7.82,7.82,0,0,0,0,.79v1.11a6.75,6.75,0,0,0,0,.68l-.58,0h-1.57v.59Zm0-5.88a4,4,0,0,0,.68,0h1.4a3.78,3.78,0,0,0,.66,0v.62a4.24,4.24,0,0,0-.66,0h-1.4a4.12,4.12,0,0,0-.68,0Zm0,1.38a4,4,0,0,0,.68,0h1.39a3.69,3.69,0,0,0,.67,0v.62a4.14,4.14,0,0,0-.67,0h-1.4a4.14,4.14,0,0,0-.67,0Zm0-4.18a3.62,3.62,0,0,0,.72.05h1.33a3.68,3.68,0,0,0,.72-.05v.63a5.29,5.29,0,0,0-.72,0h-1.33a5.1,5.1,0,0,0-.72,0Zm.58,7.56h1.58V56h-1.58Zm3.52-3.09a5.27,5.27,0,0,0-.68,0c0-.19,0-.41,0-.68V52.27a5.65,5.65,0,0,0,0-.78,6.25,6.25,0,0,0,.84,0h1.77a8.14,8.14,0,0,0,.87-1.94l.65.24a10.43,10.43,0,0,1-.88,1.7h.59a5.82,5.82,0,0,0,.79,0c0,.24,0,.46,0,.72v1.57a5.85,5.85,0,0,0,0,.64,6.08,6.08,0,0,0-.71,0h-.72V57.6c0,.25.07.29.56.29s.56,0,.63-.16a3.46,3.46,0,0,0,.19-1.37,1.8,1.8,0,0,0,.59.28c-.14,1.66-.28,1.83-1.42,1.83s-1.16-.09-1.16-.73V54.38h-.91a7,7,0,0,1-.36,2.46,3.3,3.3,0,0,1-1.54,1.8,1.71,1.71,0,0,0-.48-.49,2.68,2.68,0,0,0,1.54-1.76,6.82,6.82,0,0,0,.23-2Zm.48-3a6,6,0,0,0-.84-1.53l.55-.28a7.6,7.6,0,0,1,.86,1.5Zm-.55,2.41h3.39V52.1h-3.39Z" style="fill:#494991"/><path d="M215.93,51.24a8.06,8.06,0,0,0,0-1c.32,0,.57,0,1.24,0h1.09c.48,0,.66,0,.9,0,0,.24,0,.42,0,1v4.21c0,.48,0,.68,0,1h-.64V56h-1.93v.78h-.68a7.94,7.94,0,0,0,.06-1.05Zm.62,1.51h1.93V50.88h-1.93Zm0,2.65h1.93V53.31h-1.93Zm4-.08a5.85,5.85,0,0,1-.63,1.89,4.55,4.55,0,0,1-1.2,1.43,1.69,1.69,0,0,0-.52-.47,4,4,0,0,0,1.42-1.79c.38-.91.5-2,.5-4.62A15.2,15.2,0,0,0,220,50a8.47,8.47,0,0,0,1,0h2.16a7.56,7.56,0,0,0,1,0,8.12,8.12,0,0,0,0,1v6.57a.82.82,0,0,1-.25.72,1.34,1.34,0,0,1-.78.14c-.22,0-.37,0-1-.05a2.18,2.18,0,0,0-.17-.69,6.66,6.66,0,0,0,1.24.13c.25,0,.32-.07.32-.34V55.32Zm.19-2.4c0,.87-.06,1.23-.12,1.84h2.86V52.92Zm2.74-2.27h-2.73v1.71h2.73Z" style="fill:#494991"/><path d="M230.31,49.6A6.72,6.72,0,0,0,232,51.39a10.8,10.8,0,0,0,2.76,1.6,2.12,2.12,0,0,0-.39.64,13.74,13.74,0,0,1-2.78-1.74,8.3,8.3,0,0,1-1.6-1.71,8.28,8.28,0,0,1-1.49,1.64,11,11,0,0,1-2.7,1.76,2,2,0,0,0-.42-.57A10.49,10.49,0,0,0,228,51.38a7.1,7.1,0,0,0,1.58-1.78Zm-3.37,5.58a8.58,8.58,0,0,0-1.14.06v-.72a8.58,8.58,0,0,0,1.14.06h6.15a8.47,8.47,0,0,0,1.14-.06v.72a8.68,8.68,0,0,0-1.14-.06H229.5a14.3,14.3,0,0,1-1.24,2.36c1.37-.09,2.41-.19,3.89-.37-.6-.65-.78-.83-1.22-1.24l.52-.32a21.63,21.63,0,0,1,2.42,2.64l-.55.41c-.39-.55-.52-.72-.73-1-1.78.24-3.28.4-4.84.52a12,12,0,0,0-1.69.18l-.12-.76a4.63,4.63,0,0,0,.51,0l1.06-.06a15.08,15.08,0,0,0,1.27-2.41Zm.64-2.49a5.28,5.28,0,0,0,.79,0h3.22a6.06,6.06,0,0,0,.84,0v.67a6.16,6.16,0,0,0-.84,0h-3.23a5.75,5.75,0,0,0-.78,0Z" style="fill:#494991"/><path d="M237.79,50.67c-.72.1-1.09.13-1.85.19a1.35,1.35,0,0,0-.25-.53,12.67,12.67,0,0,0,4.16-.69l.44.51-.5.12a12.78,12.78,0,0,1-1.42.31v.79h1.19a4.58,4.58,0,0,0,.88,0v.6a4.33,4.33,0,0,0-.79,0h-1.28v.62h1c.38,0,.63,0,.87,0a5.31,5.31,0,0,0,0,.88v1.16a6.78,6.78,0,0,0,0,1c-.24,0-.5,0-.91,0h-1v.67h1a5.87,5.87,0,0,0,.9,0v.6a5,5,0,0,0-.82,0h-1.09v.72c.64-.08,1-.13,1.85-.28v.53c-1.39.24-2.39.37-4.09.54a4.67,4.67,0,0,0-.53.08l-.13-.69.42,0c.31,0,.88,0,1.9-.14v-.78h-1.11a8.61,8.61,0,0,0-.91.05v-.62a5.51,5.51,0,0,0,.92.05h1.1v-.67h-.95c-.42,0-.69,0-.93,0,0-.22,0-.44,0-.94V53.35a6.66,6.66,0,0,0,0-.88c.26,0,.53,0,1,0h.93v-.62h-1.36a5.46,5.46,0,0,0-.9,0v-.62a5.67,5.67,0,0,0,.91.06h1.35ZM236.51,53v.73h1.28V53Zm0,1.19V55h1.28v-.78Zm1.86-.46h1.32V53h-1.32Zm0,1.24h1.32v-.78h-1.32Zm5-3.11a7.31,7.31,0,0,0,.89,0c0,.22,0,.42,0,1.05-.07,3-.2,4.43-.47,5.08-.14.36-.41.49-1,.49a9.84,9.84,0,0,1-1.06-.08,2.68,2.68,0,0,0-.11-.67,5.54,5.54,0,0,0,1.08.14c.37,0,.48-.07.55-.37a25.44,25.44,0,0,0,.36-5h-1.23a15,15,0,0,1-.41,3.21,6.92,6.92,0,0,1-1.57,2.94,2.23,2.23,0,0,0-.57-.43A5.17,5.17,0,0,0,241,56.52a10.57,10.57,0,0,0,.77-4.1h-.26a6.11,6.11,0,0,0-.93,0v-.68a5.26,5.26,0,0,0,.89.05h.33c0-.34,0-.63,0-1a5.59,5.59,0,0,0-.06-1.15h.74a3,3,0,0,0-.06.76c0,.71,0,1,0,1.39Z" style="fill:#494991"/><path d="M248.82,57.37a6.44,6.44,0,0,1-1.44.82,11.64,11.64,0,0,1-1.53.51,2,2,0,0,0-.45-.58A6.17,6.17,0,0,0,248.29,57Zm-2.43-3.78a9.84,9.84,0,0,0,0-1.09,11.18,11.18,0,0,0,1.13,0h5c.5,0,.83,0,1.13,0a9.5,9.5,0,0,0,0,1.09v3c0,.07,0,.15,0,.34a11.05,11.05,0,0,0-1.13,0h-5a11.18,11.18,0,0,0-1.13,0,6.92,6.92,0,0,0,0-1Zm6.81-2.36a4.81,4.81,0,0,0,0,.7c-.3,0-.67,0-1.13,0h-4.26c-.46,0-.82,0-1.12,0a5.08,5.08,0,0,0,0-.7V50.6a5.79,5.79,0,0,0,0-.72,8.22,8.22,0,0,0,1.14,0h4.23a8.31,8.31,0,0,0,1.14,0,5.2,5.2,0,0,0,0,.72ZM247,53.83h5.93v-.76H247Zm0,1.28h5.93v-.78H247Zm0,1.3h5.93v-.8H247Zm.39-5.95v.93h5.16v-.93Zm4.16,6.5a7.48,7.48,0,0,0,3,1.19,2,2,0,0,0-.43.56,8.14,8.14,0,0,1-3-1.36Z" style="fill:#494991"/><path d="M259.6,51.59a3.5,3.5,0,0,0,.66,0v.6a3.82,3.82,0,0,0-.68,0h-1a4,4,0,0,0,1.21,1,2,2,0,0,0-.38.48,3.89,3.89,0,0,1-1.2-1.3,4.81,4.81,0,0,1,0,.58v.56a1.87,1.87,0,0,0,0,.42h-.65a1.84,1.84,0,0,0,0-.41v-.56a4.68,4.68,0,0,1,0-.58,5.47,5.47,0,0,1-1.88,2,1.84,1.84,0,0,0-.44-.48,5.66,5.66,0,0,0,1.48-1.14,3.69,3.69,0,0,0,.4-.52h-.92a4.09,4.09,0,0,0-.79,0v-.62a4.2,4.2,0,0,0,.81.05h1.3V50.25a3.58,3.58,0,0,0,0-.67h.67a3.39,3.39,0,0,0-.05.67v1.34Zm-.27,6.34a6.57,6.57,0,0,0-1.09-.69,6.13,6.13,0,0,1-2.42,1.33,2,2,0,0,0-.32-.55A5.72,5.72,0,0,0,257.7,57c-.45-.21-.72-.32-1.53-.62a8.67,8.67,0,0,0,.71-1.08h-.61a3.33,3.33,0,0,0-.71.05v-.63a3.17,3.17,0,0,0,.71,0h.89a4.41,4.41,0,0,0,.3-.79l.6.14c-.13.33-.17.43-.27.65h1.81a3.07,3.07,0,0,0,.7,0v.63a3.44,3.44,0,0,0-.72-.05h-.18a3.92,3.92,0,0,1-.76,1.53,7.9,7.9,0,0,1,1,.59Zm-2.92-8.15a7,7,0,0,1,.75,1.32l-.54.22A5,5,0,0,0,255.9,50Zm1.11,5.48c-.16.28-.26.43-.51.82.54.21.73.28,1.11.46a3.22,3.22,0,0,0,.68-1.28ZM260.09,50a7.58,7.58,0,0,1-.86,1.43l-.5-.25a5,5,0,0,0,.83-1.43Zm4.47,2.12a4,4,0,0,0-.85,0,9.07,9.07,0,0,1-.34,2.18,6.59,6.59,0,0,1-.78,1.8,6.19,6.19,0,0,0,2.22,1.89,2.61,2.61,0,0,0-.37.62,7,7,0,0,1-2.22-2,7.91,7.91,0,0,1-2.53,2.06,2.19,2.19,0,0,0-.41-.56,6.5,6.5,0,0,0,2.58-2,7.75,7.75,0,0,1-1-2.94,5.81,5.81,0,0,1-.73,1.16,1.54,1.54,0,0,0-.5-.39,6.76,6.76,0,0,0,1.23-2.16,7.75,7.75,0,0,0,.51-2.15l.68.15a6.19,6.19,0,0,0-.18.63c-.13.49-.2.77-.33,1.16h2.12a4.57,4.57,0,0,0,.93-.06Zm-3.26,0c0,.09,0,.11-.09.22a8.63,8.63,0,0,0,1,3.18,8,8,0,0,0,.87-3.4Z" style="fill:#494991"/><path d="M145.86,66.87a2.28,2.28,0,0,0,.36,0l.51,0c.37-.44.47-.57.76-1A9.92,9.92,0,0,0,146,64.39l.37-.47.43.41a7.61,7.61,0,0,0,1-1.84l.62.28a2.79,2.79,0,0,0-.23.38,16.43,16.43,0,0,1-1,1.56c.3.3.46.48.67.73A10.24,10.24,0,0,0,149,63.55l.59.35-.29.41a21.9,21.9,0,0,1-1.85,2.53c.75,0,.93-.06,1.62-.15a8.41,8.41,0,0,0-.4-.79l.46-.18a10.83,10.83,0,0,1,.88,1.9l-.51.23c-.1-.32-.13-.41-.23-.67l-.25,0-.69.08v3.29a7.26,7.26,0,0,0,.06,1h-.73a7.42,7.42,0,0,0,.06-1V67.35l-1.12.1a3.62,3.62,0,0,0-.61.07Zm1.23,1.24a8.86,8.86,0,0,1-.66,2.83l-.55-.26a7.4,7.4,0,0,0,.66-2.68Zm2.27-.17a15.92,15.92,0,0,1,.59,2.38l-.58.19a13.19,13.19,0,0,0-.51-2.41ZM151,64.78a7.33,7.33,0,0,1-1,1.56,1.82,1.82,0,0,0-.52-.39,6.23,6.23,0,0,0,1.11-1.71,6,6,0,0,0,.56-1.64l.68.17c-.08.18-.08.18-.26.68-.08.22-.16.42-.29.74h2.5a5.41,5.41,0,0,0,.81,0,15.05,15.05,0,0,0-.05,1.54,25,25,0,0,1-.43,4.53c-.23,1-.48,1.17-1.44,1.17-.29,0-.66,0-1.06-.06a2.41,2.41,0,0,0-.17-.69,7.89,7.89,0,0,0,1.33.13c.47,0,.58-.12.72-.76a28,28,0,0,0,.43-5.23Zm1.06,4a9.69,9.69,0,0,0-1.37-2.48l.52-.3a12,12,0,0,1,1.42,2.44Z" style="fill:#494991"/><path d="M158.39,69a1.51,1.51,0,0,0,.61.94,2.21,2.21,0,0,0,1.29.36c1.15,0,1.88-.6,1.88-1.55s-.71-1.53-2-1.53a7,7,0,0,0-.8,0v-.78a5.62,5.62,0,0,0,.74.05,2,2,0,0,0,1.45-.46,1.38,1.38,0,0,0,.4-1c0-.86-.6-1.36-1.6-1.36a1.57,1.57,0,0,0-1.33.53,1.88,1.88,0,0,0-.32.72l-.83-.19a2.28,2.28,0,0,1,.54-1,2.6,2.6,0,0,1,2-.73c1.44,0,2.36.76,2.36,2a1.76,1.76,0,0,1-.7,1.46,2.05,2.05,0,0,1-.94.36,2.14,2.14,0,0,1,1.23.43A1.83,1.83,0,0,1,163,68.8c0,1.35-1,2.19-2.7,2.19a2.82,2.82,0,0,1-2.24-.82,2.6,2.6,0,0,1-.51-1Z" style="fill:#494991"/><path d="M165.68,70.78c0,.74-.12,1-.63,1.29l-.27-.33c.41-.19.48-.34.48-1h-.58v-1h1Z" style="fill:#494991"/><path d="M168.14,70.28a2.48,2.48,0,0,1-.6-.92,6.91,6.91,0,0,1-.38-2.31,5.85,5.85,0,0,1,.58-2.72,2.69,2.69,0,0,1,4.06-.52,2.52,2.52,0,0,1,.6.92,6.88,6.88,0,0,1,.38,2.32,5.21,5.21,0,0,1-.7,2.89A2.44,2.44,0,0,1,170,71,2.5,2.5,0,0,1,168.14,70.28Zm.58-6a2,2,0,0,0-.45.73,6.2,6.2,0,0,0-.31,2,5.53,5.53,0,0,0,.47,2.38,1.7,1.7,0,0,0,1.55.87,1.64,1.64,0,0,0,1.22-.47,2,2,0,0,0,.47-.78,6.2,6.2,0,0,0,.31-2,5.67,5.67,0,0,0-.45-2.33,1.67,1.67,0,0,0-1.56-.91A1.63,1.63,0,0,0,168.72,64.3Z" style="fill:#494991"/><path d="M176.74,70.28a2.48,2.48,0,0,1-.6-.92,6.91,6.91,0,0,1-.38-2.31,5.85,5.85,0,0,1,.58-2.72,2.69,2.69,0,0,1,4.06-.52,2.52,2.52,0,0,1,.6.92,6.88,6.88,0,0,1,.38,2.32,5.21,5.21,0,0,1-.7,2.89,2.44,2.44,0,0,1-2.12,1A2.49,2.49,0,0,1,176.74,70.28Zm.58-6a2,2,0,0,0-.45.73,6.2,6.2,0,0,0-.31,2,5.53,5.53,0,0,0,.47,2.38,1.7,1.7,0,0,0,1.54.87,1.67,1.67,0,0,0,1.23-.47,2,2,0,0,0,.47-.78,6.2,6.2,0,0,0,.31-2,5.67,5.67,0,0,0-.45-2.33,1.69,1.69,0,0,0-1.57-.91A1.62,1.62,0,0,0,177.32,64.3Z" style="fill:#494991"/><path d="M185.34,70.28a2.48,2.48,0,0,1-.6-.92,6.91,6.91,0,0,1-.38-2.31,5.85,5.85,0,0,1,.58-2.72,2.69,2.69,0,0,1,4.06-.52,2.52,2.52,0,0,1,.6.92,6.88,6.88,0,0,1,.38,2.32,5.21,5.21,0,0,1-.7,2.89,2.44,2.44,0,0,1-2.11,1A2.5,2.5,0,0,1,185.34,70.28Zm.58-6a2,2,0,0,0-.45.73,6.2,6.2,0,0,0-.31,2,5.53,5.53,0,0,0,.47,2.38,1.7,1.7,0,0,0,1.54.87,1.67,1.67,0,0,0,1.23-.47,2,2,0,0,0,.47-.78,6.2,6.2,0,0,0,.31-2,5.67,5.67,0,0,0-.45-2.33,1.69,1.69,0,0,0-1.56-.91A1.63,1.63,0,0,0,185.92,64.3Z" style="fill:#494991"/><path d="M194.31,65.12a8.51,8.51,0,0,1,1.46,1.07,12.05,12.05,0,0,0,1.93-2.13h-3A11,11,0,0,1,192,66.33a1.69,1.69,0,0,0-.42-.48A9.35,9.35,0,0,0,194,63.93a5.91,5.91,0,0,0,1.11-1.58l.67.26c-.45.64-.45.64-.64.89h2.19a7.88,7.88,0,0,0,.93,0l.36.43a5,5,0,0,0-.34.43,14.72,14.72,0,0,1-3.21,3.19h3.66a4.75,4.75,0,0,0,.72,0,4.75,4.75,0,0,0,0,.8v2.42a5.75,5.75,0,0,0,.06.89h-.7V71h-4.17v.56h-.7a6.54,6.54,0,0,0,.06-.89V68.26a16.26,16.26,0,0,1-2.23,1.17,1.82,1.82,0,0,0-.4-.59,13.56,13.56,0,0,0,3.94-2.25,7.42,7.42,0,0,0-1.45-1.11Zm.31,5.33h4.17V68.08h-4.17Z" style="fill:#494991"/><path d="M202.4,63.91a5.82,5.82,0,0,0-.08-1h.8a6.55,6.55,0,0,0-.06.94v.12l.05,5.07c.55-.22.88-.37,1.31-.58a11.33,11.33,0,0,0,1.52-.84l.13.62a22.35,22.35,0,0,1-3.91,1.87,4.54,4.54,0,0,0-.59.25l-.22-.73a9.19,9.19,0,0,0,1.1-.33Zm6.91-1a7.42,7.42,0,0,0-.08,1,15.3,15.3,0,0,1-.45,2.64,7.32,7.32,0,0,1-.8,1.82,6.33,6.33,0,0,0,2.45,2.53,2.46,2.46,0,0,0-.45.64,7.4,7.4,0,0,1-1.54-1.39,7,7,0,0,1-.84-1.2A8,8,0,0,1,204,71.55a2,2,0,0,0-.43-.6,8.66,8.66,0,0,0,2-1,6.43,6.43,0,0,0,2.72-4,10.93,10.93,0,0,0,.32-2.65,4.05,4.05,0,0,0,0-.52Zm-4.36.68a14.37,14.37,0,0,1,1.93,2.39l-.6.42a11.35,11.35,0,0,0-1.88-2.44Z" style="fill:#494991"/><path d="M215.92,70.46h3.26a8.89,8.89,0,0,0,1.12-.06v.76a7.92,7.92,0,0,0-1.12-.07h-6.65a8.81,8.81,0,0,0-1.18.07V70.4a9.48,9.48,0,0,0,1.18.06h2.68V63.71a6.85,6.85,0,0,0-.07-1H216a8.28,8.28,0,0,0-.06,1v2.05h2.52a7.47,7.47,0,0,0,1-.06v.77a7.68,7.68,0,0,0-1-.06h-2.52Z" style="fill:#494991"/></g></g></svg>