<svg xmlns="http://www.w3.org/2000/svg" viewBox="0 0 827 468.68"><g id="レイヤー_2" data-name="レイヤー 2"><g id="レイヤー_1-2" data-name="レイヤー 1"><polygon points="267.84 141.73 0 141.73 0 0 267.84 0 319.94 70.87 267.84 141.73" style="fill:#5c5c9b"/><polygon points="827 141.73 290 141.73 341.59 70.87 290 0 827 0 827 141.73" style="fill:#f2f2f2"/><text transform="translate(120.11 89.11)" style="font-size:30px;fill:#fff;font-family:ShinGoPro-Bold-83pv-RKSJ-H, A-OTF Shin Go Pro;letter-spacing:0.14000651041666667em">受講生</text><text transform="translate(393.11 41.61)" style="font-size:28px;fill:#494991;font-family:KozGoPr6N-Regular-83pv-RKSJ-H, Kozuka Gothic Pr6N">累計受講生<tspan style="font-size:53.23231887817383px;font-family:Helvetica-Bold, Helvetica;font-weight:700"><tspan x="0" y="56.67" style="letter-spacing:0.04000191192353051em">10</tspan><tspan x="63.47" y="57.74" style="font-family:RyuminPro-Light-83pv-RKSJ-H, A-OTF Ryumin Pro;font-weight:400;letter-spacing:0.04000191192353051em">,</tspan><tspan x="75.45" y="56.67" style="letter-spacing:0.04000191192353051em">043</tspan><tspan x="178.15" y="52.91" style="font-size:30px;font-family:HiraKakuPro-W3-83pv-RKSJ-H, Hiragino Kaku Gothic Pro;font-weight:400;letter-spacing:0.04000651041666667em">人以上</tspan><tspan x="271.75" y="57.74" style="font-family:KozGoPr6N-Regular-83pv-RKSJ-H, Kozuka Gothic Pr6N;font-weight:400;letter-spacing:0.039992739276907364em">　</tspan><tspan x="327.11" y="48.15" style="font-size:28px;font-family:KozGoPr6N-Regular-83pv-RKSJ-H, Kozuka Gothic Pr6N;font-weight:400">　　</tspan></tspan><tspan style="font-size:18px;font-family:HiraKakuPro-W3-83pv-RKSJ-H, Hiragino Kaku Gothic Pro"><tspan x="-9" y="83.36">（年間トータル説明会動員数 約</tspan><tspan x="248.99" y="83.36" style="letter-spacing:-0.13997395833333334em">３,０００</tspan><tspan x="312.71" y="83.36">名以上</tspan><tspan x="366.71" y="83.36" style="letter-spacing:-0.5em">）</tspan></tspan></text><polygon points="267.84 297.85 0 297.85 0 156.11 267.84 156.11 319.94 226.98 267.84 297.85" style="fill:#5c5c9b"/><polygon points="827 297.85 284.69 297.85 336.79 226.98 284.69 156.11 827 156.11 827 297.85" style="fill:#f2f2f2"/><text transform="translate(120.11 239.22)" style="font-size:30px;fill:#fff;font-family:ShinGoPro-Bold-83pv-RKSJ-H, A-OTF Shin Go Pro;letter-spacing:0.14000651041666667em">講師講座</text><text transform="translate(393.11 202.72)" style="font-size:28px;fill:#494991;font-family:KozGoPr6N-Regular-83pv-RKSJ-H, Kozuka Gothic Pr6N">累計講座プロデュース数<tspan style="font-size:53.23231887817383px;font-family:Helvetica-Bold, Helvetica;font-weight:700"><tspan x="0" y="72.13" style="letter-spacing:0.04000191192353051em">230</tspan><tspan x="102.7" y="68.38" style="font-size:30px;font-family:HiraKakuPro-W3-83pv-RKSJ-H, Hiragino Kaku Gothic Pro;font-weight:400;letter-spacing:0.04000651041666667em">件以上</tspan><tspan x="196.3" y="63.62" style="font-size:28px;font-family:KozGoPr6N-Regular-83pv-RKSJ-H, Kozuka Gothic Pr6N;font-weight:400">　　　</tspan></tspan></text><polygon points="267.84 454.73 0 454.73 0 313 267.84 313 319.94 383.87 267.84 454.73" style="fill:#5c5c9b"/><polygon points="827 454.73 284.69 454.73 336.79 383.87 284.69 313 827 313 827 454.73" style="fill:#f2f2f2"/><text transform="translate(120.11 400.11)" style="font-size:30px;fill:#fff;font-family:ShinGoPro-Bold-83pv-RKSJ-H, A-OTF Shin Go Pro;letter-spacing:0.14000651041666667em">運用額</text><text transform="translate(387.11 360.61)" style="font-size:28px;fill:#494991;font-family:KozGoPr6N-Regular-83pv-RKSJ-H, Kozuka Gothic Pr6N">累計プロモーション運用額<tspan style="font-size:53.23231887817383px;font-family:Helvetica-Bold, Helvetica;font-weight:700;letter-spacing:0.04000191192353051em"><tspan x="0" y="66.13">30</tspan><tspan x="70.97" y="62.38" style="font-size:30px;font-family:HiraKakuPro-W3-83pv-RKSJ-H, Hiragino Kaku Gothic Pro;font-weight:400;letter-spacing:0.04000651041666667em">億円以上</tspan></tspan></text></g><g id="Layer_1" data-name="Layer 1"><polyline points="63.52 215.14 63.52 202.47 55.07 194.02 19.16 194.02 19.16 255.27 63.52 255.27 63.52 223.59" style="fill:none;stroke:#fff;stroke-linecap:round;stroke-linejoin:round;stroke-width:2.11206897823448px"/><polygon points="46.62 232.04 44.51 238.37 50.84 236.26 74.08 213.03 69.85 208.8 46.62 232.04" style="fill:none;stroke:#fff;stroke-linecap:round;stroke-linejoin:round;stroke-width:2.11206897823448px"/><line x1="66.68" y1="211.97" x2="70.91" y2="216.2" style="fill:none;stroke:#fff;stroke-linecap:round;stroke-linejoin:round;stroke-width:2.11206897823448px"/><line x1="52.96" y1="242.6" x2="27.61" y2="242.6" style="fill:none;stroke:#fff;stroke-linecap:round;stroke-linejoin:round;stroke-width:2.11206897823448px"/><line x1="27.61" y1="236.26" x2="40.28" y2="236.26" style="fill:none;stroke:#fff;stroke-linecap:round;stroke-linejoin:round;stroke-width:2.11206897823448px"/><line x1="27.61" y1="229.92" x2="40.28" y2="229.92" style="fill:none;stroke:#fff;stroke-linecap:round;stroke-linejoin:round;stroke-width:2.11206897823448px"/><line x1="27.61" y1="223.59" x2="46.62" y2="223.59" style="fill:none;stroke:#fff;stroke-linecap:round;stroke-linejoin:round;stroke-width:2.11206897823448px"/><line x1="27.61" y1="217.25" x2="52.96" y2="217.25" style="fill:none;stroke:#fff;stroke-linecap:round;stroke-linejoin:round;stroke-width:2.11206897823448px"/><line x1="27.61" y1="210.92" x2="52.96" y2="210.92" style="fill:none;stroke:#fff;stroke-linecap:round;stroke-linejoin:round;stroke-width:2.11206897823448px"/><polyline points="55.07 194.02 55.07 202.47 63.52 202.47" style="fill:none;stroke:#fff;stroke-linecap:round;stroke-linejoin:round;stroke-width:2.11206897823448px"/></g><g id="瀧_1" data-name="瀧 1"><path d="M65,97a1.14,1.14,0,0,1-1.13-1.14V90.21c0-7.24-4.78-12.49-11.35-12.49H45.68c-6.58,0-11.36,5.25-11.36,12.49v5.67a1.14,1.14,0,1,1-2.27,0V90.21c0-8.41,5.86-14.76,13.63-14.76h6.81c7.76,0,13.62,6.35,13.62,14.76v5.67A1.14,1.14,0,0,1,65,97Z" style="fill:#fff"/><path d="M49.08,73.18c-4.75,0-7.94-3.65-7.94-9.08S44.33,55,49.08,55s8,3.65,8,9.08S53.83,73.18,49.08,73.18Zm0-15.89c-4.19,0-5.67,3.67-5.67,6.81s1.48,6.81,5.67,6.81,5.68-3.67,5.68-6.81S53.27,57.29,49.08,57.29Z" style="fill:#fff"/><path d="M80.86,97a1.14,1.14,0,0,1-1.13-1.14V91a10,10,0,0,0-10.07-9.87H68.38a1.14,1.14,0,1,1,0-2.27h1.28A12.25,12.25,0,0,1,82,91v4.88A1.14,1.14,0,0,1,80.86,97Z" style="fill:#fff"/><path d="M67.22,76.59c-4.08,0-6.81-3.2-6.81-8s2.73-7.94,6.81-7.94S74,63.89,74,68.64,71.29,76.59,67.22,76.59Zm0-13.62c-3.35,0-4.54,2.93-4.54,5.67s1.19,5.68,4.54,5.68,4.54-2.93,4.54-5.68S70.56,63,67.22,63Z" style="fill:#fff"/><path d="M17.3,97a1.14,1.14,0,0,1-1.14-1.14V91A12.25,12.25,0,0,1,28.5,78.86h1.28a1.14,1.14,0,1,1,0,2.27H28.5A10,10,0,0,0,18.43,91v4.88A1.14,1.14,0,0,1,17.3,97Z" style="fill:#fff"/><path d="M31,76.59c-4.08,0-6.82-3.2-6.82-8S26.87,60.7,31,60.7s6.81,3.19,6.81,7.94S35,76.59,31,76.59ZM31,63c-3.35,0-4.55,2.93-4.55,5.67s1.2,5.68,4.55,5.68,4.54-2.93,4.54-5.68S34.29,63,31,63Z" style="fill:#fff"/><path d="M18,391.32v6.55c0,2.69,6,5,12.8,5a25.73,25.73,0,0,0,6.4-.65.33.33,0,0,1,0,.12.62.62,0,0,1,0,.29,25.93,25.93,0,0,1-6.41.66c-6.29,0-12.8-2-12.8-5.46v-6.55m0-1.21a1.12,1.12,0,0,0-1,1.21v6.55c0,4.24,6.94,6.46,13.8,6.46a27,27,0,0,0,6.66-.69,1.23,1.23,0,0,0,.77-1.43,1.06,1.06,0,0,0-1-1l-.21,0a25.13,25.13,0,0,1-6.25.64c-7.09,0-11.8-2.43-11.8-4v-6.55a1.12,1.12,0,0,0-1-1.21Z" style="fill:#fff"/><path d="M30.8,379.48a28.63,28.63,0,0,1,6.26.66.39.39,0,0,1,.06.3.24.24,0,0,1,0,.12,28.46,28.46,0,0,0-6.28-.67c-6.82,0-12.8,2.36-12.8,5,0-3.41,6.51-5.45,12.8-5.45M18,384.93c0,2.68,6,5,12.8,5a28,28,0,0,0,6.41-.7.23.23,0,0,1,0,.12.59.59,0,0,1,0,.29,28.31,28.31,0,0,1-6.42.71c-6.29,0-12.8-2-12.8-5.45m12.8-6.45c-6.86,0-13.8,2.21-13.8,6.45s6.94,6.45,13.8,6.45a29.28,29.28,0,0,0,6.66-.74,1.22,1.22,0,0,0,.78-1.42,1.06,1.06,0,0,0-1-1l-.19,0a27.56,27.56,0,0,1-6.27.69c-7.09,0-11.8-2.42-11.8-4s4.71-4,11.8-4a27.12,27.12,0,0,1,6.14.67l.19,0a1.07,1.07,0,0,0,1-1,1.22,1.22,0,0,0-.79-1.42,29.36,29.36,0,0,0-6.52-.7Z" style="fill:#fff"/><path d="M18,384.93v6.55c0,2.69,6,5,12.8,5a28.1,28.1,0,0,0,6.27-.67.23.23,0,0,1,0,.12.59.59,0,0,1,0,.29,28.33,28.33,0,0,1-6.28.67c-6.29,0-12.8-2-12.8-5.45v-6.55m0-1.21a1.12,1.12,0,0,0-1,1.21v6.55c0,4.24,6.94,6.45,13.8,6.45a29.27,29.27,0,0,0,6.51-.7,1.22,1.22,0,0,0,.79-1.42,1.06,1.06,0,0,0-1-1,.65.65,0,0,0-.19,0,27.56,27.56,0,0,1-6.13.66c-7.09,0-11.8-2.43-11.8-4v-6.55a1.12,1.12,0,0,0-1-1.21Z" style="fill:#fff"/><path d="M82.07,391.32v0m0,6.55c0,3.42-6.5,5.46-12.8,5.46a26.38,26.38,0,0,1-6.33-.72.41.41,0,0,1-.07-.3.55.55,0,0,1,0-.12,26.94,26.94,0,0,0,6.36.72c6.82,0,12.8-2.35,12.8-5m0-7.76a1.12,1.12,0,0,0-1,1.21v6.55c0,1.61-4.7,4-11.8,4a25.54,25.54,0,0,1-6.2-.71l-.21,0a1.06,1.06,0,0,0-1,1,1.22,1.22,0,0,0,.78,1.42,26.78,26.78,0,0,0,6.6.77c6.86,0,13.8-2.22,13.8-6.46v-6.55a1.11,1.11,0,0,0-1-1.21Z" style="fill:#fff"/><path d="M69.27,379.48c6.3,0,12.8,2,12.8,5.45,0-2.68-6-5-12.8-5a26.74,26.74,0,0,0-6.33.69.68.68,0,0,1,0-.13.6.6,0,0,1,0-.28,26.49,26.49,0,0,1,6.34-.69m12.8,5.45c0,3.41-6.5,5.45-12.8,5.45a28.52,28.52,0,0,1-6.18-.65.33.33,0,0,1-.07-.3.34.34,0,0,1,0-.12,28.51,28.51,0,0,0,6.21.65c6.82,0,12.8-2.35,12.8-5m-12.8-6.45a27.32,27.32,0,0,0-6.57.72,1.22,1.22,0,0,0-.79,1.42,1.07,1.07,0,0,0,1,1,.69.69,0,0,0,.2,0,26.19,26.19,0,0,1,6.18-.67c7.1,0,11.8,2.43,11.8,4s-4.7,4-11.8,4a27.77,27.77,0,0,1-6.07-.64.62.62,0,0,0-.19,0,1.07,1.07,0,0,0-1,1,1.22,1.22,0,0,0,.8,1.41,29.3,29.3,0,0,0,6.44.69c6.86,0,13.8-2.22,13.8-6.45s-6.94-6.45-13.8-6.45Z" style="fill:#fff"/><path d="M82.07,384.93v0m0,6.55c0,3.42-6.5,5.45-12.8,5.45a28.89,28.89,0,0,1-6.22-.65A.37.37,0,0,1,63,396a.4.4,0,0,1,0-.12,28.94,28.94,0,0,0,6.25.66c6.82,0,12.8-2.35,12.8-5m0-7.76a1.12,1.12,0,0,0-1,1.21v6.55c0,1.61-4.7,4-11.8,4a27.42,27.42,0,0,1-6.1-.66l-.19,0a1.07,1.07,0,0,0-1,1,1.22,1.22,0,0,0,.79,1.42,29.6,29.6,0,0,0,6.48.69c6.86,0,13.8-2.21,13.8-6.45v-6.55a1.11,1.11,0,0,0-1-1.21Z" style="fill:#fff"/><path d="M62.84,394.55c0,2.73-4.49,5.63-12.8,5.63s-12.8-2.9-12.8-5.63c0,2.83,5.86,5.21,12.8,5.21s12.8-2.38,12.8-5.21m0-1.2a1.11,1.11,0,0,0-1,1.2c0,1.72-4.6,4.21-11.8,4.21s-11.8-2.49-11.8-4.21a1,1,0,1,0-2,0c0,4.35,6.94,6.63,13.8,6.63s13.8-2.28,13.8-6.63a1.12,1.12,0,0,0-1-1.2Z" style="fill:#fff"/><path d="M62.84,394.55v0m0,6.77c0,2.73-4.49,5.63-12.8,5.63s-12.8-2.9-12.8-5.63c0,2.83,5.86,5.21,12.8,5.21s12.8-2.38,12.8-5.21m0-8a1.11,1.11,0,0,0-1,1.2v6.77c0,1.72-4.6,4.21-11.8,4.21s-11.8-2.49-11.8-4.21v-6.77a1,1,0,1,0-2,0v6.77c0,4.35,6.94,6.63,13.8,6.63s13.8-2.28,13.8-6.63v-6.77a1.12,1.12,0,0,0-1-1.2Z" style="fill:#fff"/><path d="M62.84,388c0,2.73-4.49,5.63-12.8,5.63s-12.8-2.9-12.8-5.63c0,2.83,5.86,5.21,12.8,5.21s12.8-2.38,12.8-5.21m0-1.21a1.11,1.11,0,0,0-1,1.21c0,1.72-4.6,4.21-11.8,4.21s-11.8-2.49-11.8-4.21a1,1,0,1,0-2,0c0,4.35,6.94,6.63,13.8,6.63s13.8-2.28,13.8-6.63a1.12,1.12,0,0,0-1-1.21Z" style="fill:#fff"/><path d="M62.84,388v0m0,6.77c0,2.73-4.49,5.63-12.8,5.63s-12.8-2.9-12.8-5.63c0,2.83,5.86,5.21,12.8,5.21s12.8-2.38,12.8-5.21m0-8a1.11,1.11,0,0,0-1,1.21v6.77c0,1.72-4.6,4.21-11.8,4.21s-11.8-2.49-11.8-4.21V388a1,1,0,1,0-2,0v6.77c0,4.35,6.94,6.63,13.8,6.63s13.8-2.28,13.8-6.63V388a1.12,1.12,0,0,0-1-1.21Z" style="fill:#fff"/><path d="M62.84,381.35c0,2.73-4.49,5.62-12.8,5.62s-12.8-2.89-12.8-5.62c0,2.82,5.86,5.21,12.8,5.21s12.8-2.39,12.8-5.21m0-1.21a1.11,1.11,0,0,0-1,1.21c0,1.72-4.6,4.21-11.8,4.21s-11.8-2.49-11.8-4.21a1,1,0,1,0-2,0c0,4.35,6.94,6.62,13.8,6.62s13.8-2.27,13.8-6.62a1.12,1.12,0,0,0-1-1.21Z" style="fill:#fff"/><path d="M62.84,381.35v0m0,6.77c0,2.73-4.49,5.63-12.8,5.63s-12.8-2.9-12.8-5.63c0,2.82,5.86,5.21,12.8,5.21s12.8-2.39,12.8-5.21m0-8a1.11,1.11,0,0,0-1,1.21v6.77c0,1.72-4.6,4.21-11.8,4.21s-11.8-2.49-11.8-4.21v-6.77a1,1,0,1,0-2,0v6.77c0,4.35,6.94,6.63,13.8,6.63s13.8-2.28,13.8-6.63v-6.77a1.12,1.12,0,0,0-1-1.21Z" style="fill:#fff"/><path d="M62.84,374.65c0,2.73-4.49,5.62-12.8,5.62s-12.8-2.89-12.8-5.62c0,2.82,5.86,5.21,12.8,5.21s12.8-2.39,12.8-5.21m0-1.21a1.11,1.11,0,0,0-1,1.21c0,1.71-4.6,4.21-11.8,4.21s-11.8-2.5-11.8-4.21a1,1,0,1,0-2,0c0,4.35,6.94,6.62,13.8,6.62s13.8-2.27,13.8-6.62a1.12,1.12,0,0,0-1-1.21Z" style="fill:#fff"/><path d="M62.84,374.65v0m0,6.77c0,2.73-4.49,5.62-12.8,5.62s-12.8-2.89-12.8-5.62c0,2.82,5.86,5.21,12.8,5.21s12.8-2.39,12.8-5.21m0-8a1.11,1.11,0,0,0-1,1.21v6.77c0,1.72-4.6,4.21-11.8,4.21s-11.8-2.49-11.8-4.21v-6.77a1,1,0,1,0-2,0v6.77c0,4.35,6.94,6.62,13.8,6.62s13.8-2.27,13.8-6.62v-6.77a1.12,1.12,0,0,0-1-1.21Z" style="fill:#fff"/><path d="M50,362.42c8.31,0,12.8,2.9,12.8,5.63,0-2.83-5.87-5.21-12.8-5.21s-12.8,2.38-12.8,5.21c0-2.73,4.48-5.63,12.8-5.63m12.8,5.63c0,2.72-4.49,5.62-12.8,5.62s-12.8-2.9-12.8-5.62c0,2.82,5.86,5.21,12.8,5.21s12.8-2.39,12.8-5.21M50,361.42c-6.86,0-13.8,2.28-13.8,6.63s6.94,6.62,13.8,6.62,13.8-2.27,13.8-6.62-7-6.63-13.8-6.63Zm0,10.84c-7.21,0-11.8-2.5-11.8-4.21s4.59-4.21,11.8-4.21,11.8,2.49,11.8,4.21-4.6,4.21-11.8,4.21Z" style="fill:#fff"/><path d="M62.84,368.05v0m0,6.77c0,2.72-4.49,5.62-12.8,5.62s-12.8-2.9-12.8-5.62c0,2.82,5.86,5.21,12.8,5.21s12.8-2.39,12.8-5.21m0-8a1.11,1.11,0,0,0-1,1.21v6.77c0,1.71-4.6,4.21-11.8,4.21s-11.8-2.5-11.8-4.21v-6.77a1,1,0,1,0-2,0v6.77c0,4.35,6.94,6.62,13.8,6.62s13.8-2.27,13.8-6.62v-6.77a1.12,1.12,0,0,0-1-1.21Z" style="fill:#fff"/></g><g id="もじ"><rect x="268" y="105.42" width="52" height="22" style="fill:none"/></g></g></svg>