<svg id="レイヤー_1" data-name="レイヤー 1" xmlns="http://www.w3.org/2000/svg" viewBox="0 0 1051 194.73"><defs><style>.cls-1{fill:#e6e6e6;}.cls-2{fill:#f2f2f2;}.cls-3{fill:#dbdada;}.cls-4{fill:#0071bc;}.cls-5{fill:#fff;}.cls-6{fill:#46b8e0;}</style></defs><rect class="cls-1" width="529" height="151"/><rect class="cls-2" x="522" width="529" height="151"/><polygon class="cls-3" points="12 161.99 1037.54 161.99 1037.54 194.73 12 194.73 24.41 179 12 161.99"/><polygon class="cls-4" points="11.84 87.8 88.61 87.8 97.06 104.13 88.61 119.73 11.84 119.73 11.84 87.8"/><path class="cls-5" d="M45.62,97v7.64h2v1.62h-2v2.58H43.84v-2.58H36.9v-2L43.15,97Zm-1.78,1.53-5.15,6.11h5.15Z"/><path class="cls-5" d="M62.9,105.17H55.8a8.42,8.42,0,0,1-2.13,5L52.24,109a8.29,8.29,0,0,0,2-6.1V96.63h10.3v12a1.43,1.43,0,0,1-1.43,1.51H60.24L60,108.47h2.52c.12,0,.38-.07.38-.49Zm-7-5.11h7v-2h-7Zm0,3.63h7V101.5h-7Z"/><polygon class="cls-4" points="98.06 87.8 174.83 87.8 183.28 104.13 174.83 119.73 98.06 119.73 106.51 104.13 98.06 87.8"/><path class="cls-5" d="M132.86,97v1.62h-7.11l-.1,3.19c.37-.32,1.1-.92,3.35-.92s4.33.65,4.33,3.94c0,2.8-1,4.13-4.87,4.13-3.43,0-4.8-.91-4.86-3.8h1.79c0,1.11,0,2.18,3,2.18,2.28,0,3.14-.43,3.14-2.27,0-1.4-.09-2.58-2.9-2.58-2.44,0-2.83.63-3,1.15h-1.67l.15-6.64Z"/><path class="cls-5" d="M149.12,105.17H142a8.42,8.42,0,0,1-2.14,5L138.46,109a8.25,8.25,0,0,0,2-6.1V96.63h10.3v12a1.42,1.42,0,0,1-1.43,1.51h-2.87l-.24-1.66h2.52c.12,0,.38-.07.38-.49Zm-7-5.11h7v-2h-7Zm0,3.63h7V101.5h-7Z"/><polygon class="cls-4" points="184.28 87.8 261.05 87.8 269.51 104.13 261.05 119.73 184.28 119.73 192.74 104.13 184.28 87.8"/><path class="cls-5" d="M217.55,100.24c0-.74,0-1.79-2.66-1.79-2.06,0-2.59.54-2.87,1.31a7.32,7.32,0,0,0-.33,2.78,4.21,4.21,0,0,1,3.43-1.27c2,0,4.38.61,4.38,3.73,0,2.81-1.41,3.92-4.78,3.92-4,0-4.85-1.59-4.85-6,0-5.51,1.88-6,5-6,1.37,0,4.43,0,4.4,3.4Zm-5.82,4.91c0,1.94,1.57,2.14,3,2.14,2.57,0,2.95-.77,2.95-2.27,0-1.31-.49-2.17-2.92-2.17C212.13,102.85,211.73,103.86,211.73,105.15Z"/><path class="cls-5" d="M235.34,105.17h-7.09a8.42,8.42,0,0,1-2.14,5L224.69,109a8.28,8.28,0,0,0,2-6.1V96.63H237v12a1.42,1.42,0,0,1-1.43,1.51h-2.87l-.24-1.66H235c.12,0,.37-.07.37-.49Zm-7-5.11h7v-2h-7Zm0,3.63h7V101.5h-7Z"/><polygon class="cls-4" points="270.51 87.8 347.28 87.8 355.73 104.13 347.28 119.73 270.51 119.73 278.96 104.13 270.51 87.8"/><path class="cls-5" d="M305.83,97v1.67l-5.78,10.17h-2.17L304,98.58h-8V97Z"/><path class="cls-5" d="M321.56,105.17h-7.09a8.48,8.48,0,0,1-2.13,5L310.91,109a8.29,8.29,0,0,0,2-6.1V96.63H323.2v12a1.42,1.42,0,0,1-1.43,1.51H318.9l-.24-1.66h2.53c.12,0,.37-.07.37-.49Zm-7-5.11h7v-2h-7Zm0,3.63h7V101.5h-7Z"/><polygon class="cls-4" points="356.73 87.8 433.5 87.8 441.95 104.13 433.5 119.73 356.73 119.73 365.18 104.13 356.73 87.8"/><path class="cls-5" d="M382.45,100c0-3.06,3-3.2,4.69-3.2s4.67.14,4.67,3.2a2.7,2.7,0,0,1-1.59,2.6c1.85.51,1.85,2.65,1.85,3,0,2.92-2.54,3.32-4.93,3.32s-4.94-.39-4.94-3.32c0-.79.19-2.51,1.86-3A2.7,2.7,0,0,1,382.45,100Zm1.49,5.37c0,1.35.57,1.94,3.2,1.94s3.19-.65,3.19-2c0-1.55-.95-2-3.19-2C384.66,103.39,383.94,103.92,383.94,105.41Zm.25-5.23c0,1.63,1.34,1.77,3.06,1.77,2.07,0,2.82-.47,2.82-1.83s-.71-1.72-2.93-1.72C384.65,98.4,384.19,99,384.19,100.18Z"/><path class="cls-5" d="M407.79,105.17h-7.1a8.42,8.42,0,0,1-2.13,5L397.13,109a8.29,8.29,0,0,0,2-6.1V96.63h10.3v12a1.43,1.43,0,0,1-1.43,1.51h-2.87l-.24-1.66h2.52c.12,0,.38-.07.38-.49Zm-7-5.11h7v-2h-7Zm0,3.63h7V101.5h-7Z"/><polygon class="cls-4" points="442.95 87.8 519.72 87.8 528.17 104.13 519.72 119.73 442.95 119.73 451.4 104.13 442.95 87.8"/><path class="cls-5" d="M470.22,105.38c0,1.08.12,1.94,2.83,1.94,1.85,0,2.67-.27,3.05-1.31a7.63,7.63,0,0,0,.34-2.78,4,4,0,0,1-3.42,1.26c-2.59,0-4.39-1-4.39-3.76,0-2.94,1.64-3.89,4.78-3.89,3.94,0,4.85,1.56,4.85,6,0,5.71-2,6.07-5.24,6.07-2.06,0-4.59-.15-4.56-3.54Zm6.18-4.78c0-1.9-1.52-2.12-3-2.12-2.59,0-3,.75-3,2.28s.78,2.15,3,2.15C476.2,102.91,476.4,101.66,476.4,100.6Z"/><path class="cls-5" d="M494,105.17h-7.09a8.48,8.48,0,0,1-2.14,5L483.35,109a8.25,8.25,0,0,0,2-6.1V96.63h10.3v12a1.42,1.42,0,0,1-1.43,1.51h-2.87l-.24-1.66h2.52c.12,0,.38-.07.38-.49Zm-7-5.11h7v-2h-7Zm0,3.63h7V101.5h-7Z"/><polygon class="cls-6" points="529.17 87.8 605.94 87.8 614.39 104.13 605.94 119.73 529.17 119.73 537.63 104.13 529.17 87.8"/><path class="cls-5" d="M555.34,97V108.8h-1.8V98.58h-2.3V97Z"/><path class="cls-5" d="M570.25,103.05c0,4.33-.86,5.87-5,5.87s-5-1.39-5-6,.93-6,5-6S570.25,98.31,570.25,103.05Zm-8.13-.14c0,3.74.34,4.39,3.27,4.39,2.71,0,3.05-.78,3.05-4.33,0-3.94-.4-4.51-3.17-4.51S562.12,99.12,562.12,102.91Z"/><path class="cls-5" d="M585.93,105.17h-7.09a8.48,8.48,0,0,1-2.13,5L575.28,109a8.29,8.29,0,0,0,2-6.1V96.63h10.29v12a1.42,1.42,0,0,1-1.43,1.51h-2.87l-.24-1.66h2.53c.12,0,.37-.07.37-.49Zm-7-5.11h7v-2h-7Zm0,3.63h7V101.5h-7Z"/><polygon class="cls-6" points="615.39 87.8 692.16 87.8 700.62 104.13 692.16 119.73 615.39 119.73 623.85 104.13 615.39 87.8"/><path class="cls-5" d="M641.56,97V108.8h-1.8V98.58h-2.3V97Z"/><path class="cls-5" d="M653,97V108.8h-1.81V98.58h-2.3V97Z"/><path class="cls-5" d="M672.16,105.17h-7.1a8.48,8.48,0,0,1-2.13,5L661.5,109a8.29,8.29,0,0,0,2-6.1V96.63h10.29v12a1.42,1.42,0,0,1-1.42,1.51H669.5l-.25-1.66h2.53c.12,0,.38-.07.38-.49Zm-7-5.11h7v-2h-7Zm0,3.63h7V101.5h-7Z"/><polygon class="cls-6" points="701.62 87.8 778.39 87.8 786.84 104.13 778.39 119.73 701.62 119.73 710.07 104.13 701.62 87.8"/><path class="cls-5" d="M727.78,97V108.8H726V98.58h-2.3V97Z"/><path class="cls-5" d="M736.51,104.58c-1,.17-1.86.39-1.86,2.27v.33h7.89v1.62h-9.68v-1.3c0-1.87.15-4.06,3-4.48l2.94-.44c1.33-.19,2-.55,2-2s-.69-2.09-2.91-2.09c-2.51,0-3.06.59-3.07,2.47h-1.77c0-2.56.76-4.09,4.73-4.09,2.27,0,4.8.28,4.8,3.71a3,3,0,0,1-1.31,2.86,5,5,0,0,1-1.91.72Z"/><path class="cls-5" d="M758.38,105.17h-7.1a8.42,8.42,0,0,1-2.13,5L747.72,109a8.29,8.29,0,0,0,2-6.1V96.63H760v12a1.43,1.43,0,0,1-1.43,1.51h-2.87l-.24-1.66H758c.12,0,.38-.07.38-.49Zm-7-5.11h7v-2h-7Zm0,3.63h7V101.5h-7Z"/><polygon class="cls-6" points="787.84 87.8 864.61 87.8 873.06 104.13 864.61 119.73 787.84 119.73 796.29 104.13 787.84 87.8"/><path class="cls-5" d="M819.71,97V108.8H817.9V98.58h-2.29V97Z"/><path class="cls-5" d="M838.9,105.17h-7.1a8.42,8.42,0,0,1-2.13,5L828.24,109a8.29,8.29,0,0,0,2-6.1V96.63h10.3v12a1.43,1.43,0,0,1-1.43,1.51h-2.87l-.24-1.66h2.52c.12,0,.38-.07.38-.49Zm-7-5.11h7v-2h-7Zm0,3.63h7V101.5h-7Z"/><polygon class="cls-6" points="874.06 87.8 950.83 87.8 959.28 104.13 950.83 119.73 874.06 119.73 882.51 104.13 874.06 87.8"/><path class="cls-5" d="M903.26,104.58c-1,.17-1.87.39-1.87,2.27v.33h7.89v1.62H899.6v-1.3c0-1.87.15-4.06,3-4.48l2.94-.44c1.33-.19,2-.55,2-2s-.69-2.09-2.91-2.09c-2.51,0-3,.59-3.07,2.47H899.8c0-2.56.77-4.09,4.73-4.09,2.27,0,4.8.28,4.8,3.71a3,3,0,0,1-1.31,2.86,5,5,0,0,1-1.91.72Z"/><path class="cls-5" d="M925.12,105.17H918a8.42,8.42,0,0,1-2.14,5L914.46,109a8.25,8.25,0,0,0,2-6.1V96.63h10.3v12a1.42,1.42,0,0,1-1.43,1.51h-2.87l-.24-1.66h2.52c.12,0,.38-.07.38-.49Zm-7-5.11h7v-2h-7Zm0,3.63h7V101.5h-7Z"/><polygon class="cls-6" points="960.28 87.8 1037.06 87.8 1037.06 119.73 960.28 119.73 968.74 104.13 960.28 87.8"/><path class="cls-5" d="M987.58,104.76c0,1.49,0,2.54,3.13,2.54,2.13,0,3.1-.33,3.1-1.94,0-.81-.09-1.94-2.3-1.94h-1.87V102h1.87c.75,0,2.15,0,2.15-1.7,0-1.36-.8-1.81-2.59-1.81-3.2,0-3.21,1-3.23,2.17H986c.1-3.35,1.87-3.79,4.94-3.79,1.4,0,4.47,0,4.47,3.22,0,2.1-1.33,2.46-1.69,2.57a2.6,2.6,0,0,1,1.84,2.81c0,3.3-2.83,3.48-4.68,3.48-4.25,0-5.13-1.27-5.13-4.16Z"/><path class="cls-5" d="M1011.34,105.17h-7.09a8.42,8.42,0,0,1-2.14,5l-1.42-1.18a8.29,8.29,0,0,0,2-6.1V96.63H1013v12a1.42,1.42,0,0,1-1.43,1.51h-2.87l-.24-1.66H1011c.12,0,.37-.07.37-.49Zm-7-5.11h7v-2h-7Zm0,3.63h7V101.5h-7Z"/><path d="M371.21,171.76h1.84v3.11h2.76v1.66h-2.76v1.32c0,1-.17,4-2.22,5.73a11.46,11.46,0,0,1-5.19,2l-.75-1.66c1.55-.23,3.75-.65,5-1.94s1.29-3.3,1.29-4.15v-1.33h-5.12v4.17h-1.84v-4.17h-2.71v-1.66h2.71v-3h1.84v3h5.12Z"/><path d="M377.66,183.71a8.85,8.85,0,0,0,2.38-6l1.75.19c-.31,3.8-1.08,5.51-2.56,7.21Zm7.82-11.62v2.52h5.17v1.68h-5.17v9.4h-1.82v-9.4h-5.54v-1.68h5.54v-2.52Zm3.73,5.52a10.93,10.93,0,0,0,2.45,6.29L390,185.08a14.36,14.36,0,0,1-2.57-7.23Zm2.69-4.85a1.67,1.67,0,0,1-3.33,0,1.67,1.67,0,1,1,3.33,0Zm-2.43,0a.76.76,0,0,0,.77.77.77.77,0,0,0,0-1.54A.76.76,0,0,0,389.47,172.76Z"/><path d="M407.84,177.69v1.93H393.63v-1.93Z"/><path d="M415.71,171.78v4.1a35.2,35.2,0,0,1,8,3.47l-.86,1.84a33.33,33.33,0,0,0-7.14-3.41v8.13h-1.92V171.78Z"/><path d="M428.63,182.84a10.63,10.63,0,0,1-2.54,3.44L425,185.05a10.68,10.68,0,0,0,2.2-2.85Zm-2.3-11.6h1.52v1.44h3v-1.44h1.52v1.44h.95v1.52h-.95v6.29h.95V182h-8.23v-1.47h1.2V174.2h-.91v-1.52h.91Zm1.52,3v1.13h3V174.2Zm0,2.48v1.18h3v-1.18Zm0,2.46v1.35h3v-1.35Zm2.91,3.08a8.14,8.14,0,0,1,1.65,2l-1.17,1a16.35,16.35,0,0,0-1.58-2.2Zm7.38-.67h-2.88a10.64,10.64,0,0,1-1.9,4.73l-1.4-1.09c1.14-1.6,2-3.12,2-8.26v-5.2h5.73V185c0,1.28-.87,1.28-1.36,1.28h-2.05l-.26-1.61h1.57c.37,0,.51-.13.51-.48Zm-2.59-4.18-.11,2.64h2.7v-2.64Zm0-4.13v2.64h2.59v-2.64Z"/><path d="M441.78,171.89h6.09v5.85h-4.5v8.51h-1.59Zm1.59,1.32v1h2.94v-1Zm0,2.14v1.06h2.94v-1.06Zm9,3.3v5.94H445v-5.94Zm-5.93,1.29v1.11h4.41v-1.11Zm0,2.18v1.15h4.41v-1.15Zm7.56-4.38h-4.74v-5.85h6.34v12.86c0,.44,0,1.5-1.07,1.5h-2.45l-.26-1.6h1.81c.19,0,.37-.06.37-.38Zm-3.19-4.53v1H454v-1Zm0,2.14v1.06H454v-1.06Z"/><path d="M480.09,171.17a9.87,9.87,0,0,0,0,15.18h-1.95a10.31,10.31,0,0,1,0-15.18Z"/><path d="M481.18,173.94h5.42v1.43h-5.42Zm.49-2.3h4.61v1.44h-4.61Zm0,4.62h4.61v1.44h-4.61Zm0,2.39h4.61v1.41h-4.61Zm0,2.38h4.61v4.58H483.1v.64h-1.43Zm1.43,1.38v1.84h1.76v-1.84Zm12.83-9.16h-1.88v.85h1.33v1.15h-1.33v.92h2.19v1.25H492v.8h3.48v4.21h.75v1.31h-.75v1.31c0,1-.47,1.2-1.28,1.2h-2l-.2-1.47h1.64c.37,0,.4-.1.4-.34v-.7H488.6v2.51h-1.37v-2.51h-.63v-1.31h.63v-4.21h3.37v-.8h-4v-1.25h2.13v-.92H487.4V174.1h1.33v-.85h-1.89V172h1.89v-.8h1.38v.8h2.51v-.8h1.43v.8h1.88Zm-7.33,6.17v.94h2v-.94Zm0,2v1h2v-1Zm1.51-8.2v.85h2.51v-.85Zm0,2v.92h2.51v-.92Zm1.9,4.17v.94h2.08v-.94Zm0,2v1h2.08v-1Z"/><path d="M504.06,171.22h1.66v1.38h6.33v1.57H499.9v5.77a13.57,13.57,0,0,1-1.49,6L497,184.63a9.9,9.9,0,0,0,1.28-4.83v-7.2h5.78Zm1.17,3.57h1.57v6.11h4.75v1.43H506.8v1.84h5.37v1.5H499.9v-1.5h5.33v-1.84h-4.64V180.9h4.64Zm-1.31,5.63a10.38,10.38,0,0,1-1.32-1.82,7.75,7.75,0,0,1-1.26,1.89l-1.25-1a8.49,8.49,0,0,0,2.1-4.72l1.55.13a9.55,9.55,0,0,1-.43,2,8.08,8.08,0,0,0,1.68,2.28Zm7.33.12a11.55,11.55,0,0,1-1.94-2,9.23,9.23,0,0,1-1.14,1.94l-1.23-1a10.32,10.32,0,0,0,1.89-4.81l1.57.2c-.13.6-.29,1.28-.51,2a8.73,8.73,0,0,0,2.38,2.28Z"/><path d="M513.8,171.75h6.08v5.43h-4.51v9H513.8Zm1.6,1.18v1h3v-1Zm0,2v1h3v-1Zm2.85,6.18a1.46,1.46,0,0,0,0-.29v-1.39h-1.78v-1.33H525v1.33h-1.57v1.68h1.87v1.31h-1.87V186H521.9v-3.57h-2.29a5.84,5.84,0,0,1-2.29,3.54l-1.05-1.14a4.47,4.47,0,0,0,1.76-2.4h-1.88v-1.31Zm3.65,0v-1.68h-2.14v1.68Zm-.42-9.38h6.17v13.12a1.18,1.18,0,0,1-1.2,1.36h-2.26l-.3-1.61h1.79c.27,0,.38-.1.38-.32v-7.12h-4.58Zm1.57,1.18v1h3v-1Zm0,2v1h3v-1Z"/><path d="M530.92,174c.07-.63.13-1.29.21-2.79l1.58.14c0,.85-.11,1.64-.22,2.65h2.59a27.7,27.7,0,0,1-1.33,7.57c.89.78,1.19,1.07,1.57,1.45l-1.1,1.36c-.39-.4-.72-.76-1.25-1.24a11.61,11.61,0,0,1-2.83,3.12l-1.09-1.4a7.62,7.62,0,0,0,2.7-2.83,14.24,14.24,0,0,0-2.37-1.68,22.77,22.77,0,0,0,1.35-4.79h-1.51V174Zm1.35,1.56a33.69,33.69,0,0,1-1,4,10.32,10.32,0,0,1,1.2.86,17.62,17.62,0,0,0,1-4.9Zm2.83.88,1.15-.06a30.58,30.58,0,0,0,1.65-5.25l1.75.21a36.87,36.87,0,0,1-1.72,4.94c1.35-.08,1.59-.09,3.84-.28a17,17,0,0,0-1.31-2l1.39-.82a20.83,20.83,0,0,1,2.61,4.5l-1.52.86c-.13-.33-.22-.64-.41-1.07-1.33.21-5.67.59-7.3.65Zm8.53,2.68v7.14H542v-.8h-4.58v.8h-1.57v-7.14Zm-6.18,1.42V184H542v-3.48Z"/><path d="M550.75,171.89c-.07.69-.15,1.33-.35,2.84h1.93c3.22,0,3.43,2.88,3.43,4.46a13.76,13.76,0,0,1-.84,4.76,2.86,2.86,0,0,1-2.84,1.6,19.38,19.38,0,0,1-2.42-.2l-.1-1.71a10,10,0,0,0,2.16.24c1,0,1.52-.27,1.81-1.25a17.44,17.44,0,0,0,.47-3.82c0-1.65-.47-2.42-1.89-2.4h-2c-1,5.65-2.37,8.12-2.84,9l-1.79-.72a24.78,24.78,0,0,0,2.83-8.26l-2.44,0v-1.74h2.72c.16-1.2.24-2.1.3-3Zm7.41,8.82c-.43-4.37-1.78-5.94-2.37-6.62l1.38-.87c.88.88,2.37,2.53,2.86,7.2Z"/><path d="M565.61,174.28a24.78,24.78,0,0,0-.42,4.06,10.08,10.08,0,0,1,5.48-1.63c2.9,0,4.32,1.76,4.32,3.91,0,4.8-5.62,5-8.8,5a18.52,18.52,0,0,1-2.6-.13l-.06-1.7c.56.05,2,.2,3.39.2s4.33-.16,5.64-1.57a3.08,3.08,0,0,0,.62-1.8c0-1.26-1-2.24-2.86-2.24a7.76,7.76,0,0,0-5.13,2c0,.17,0,.25,0,.43l-1.78,0a30.9,30.9,0,0,1,.42-6.59Zm7.17.22a28.84,28.84,0,0,0-6.91-1.07l.27-1.67a33.06,33.06,0,0,1,7,1Z"/><path d="M588.35,172.23v12.61h-1.92V174H584v-1.73Z"/><path d="M601.21,174.42a12,12,0,0,1-2.91,3.28l-1.14-1.42a9.53,9.53,0,0,0,3.55-5.12l1.83.44a11.4,11.4,0,0,1-.47,1.2h9.69v1.62H606.6v2.18h4.65v1.57H606.6v2.89h5.78v1.62H606.6v3.6h-1.68v-3.6h-7.57v-1.62h2.39V176.6h5.18v-2.18Zm.24,3.75v2.89h3.47v-2.89Z"/><path d="M613.93,171.89H620v5.85h-4.5v8.51h-1.58Zm1.58,1.32v1h3v-1Zm0,2.14v1.06h3v-1.06Zm9,3.3v5.94h-7.43v-5.94Zm-5.92,1.29v1.11H623v-1.11Zm0,2.18v1.15H623v-1.15Zm7.55-4.38h-4.73v-5.85h6.33v12.86c0,.44,0,1.5-1.07,1.5h-2.45l-.25-1.6h1.81c.19,0,.36-.06.36-.38ZM623,173.21v1h3.18v-1Zm0,2.14v1.06h3.18v-1.06Z"/><path d="M629.22,179.18a12.24,12.24,0,0,0,4.42-4.69h-4.3V172.9h5.07a9.29,9.29,0,0,0,.59-1.76l1.86.08a13.8,13.8,0,0,1-.59,1.68h8.15v1.59h-8.87a15.64,15.64,0,0,1-.8,1.37h8v9a1.23,1.23,0,0,1-1.23,1.37h-2.77l-.34-1.55h2.37c.34,0,.34-.24.34-.43v-1.41H634v3.46h-1.64v-7.46a15.79,15.79,0,0,1-2.09,1.79ZM634,177.4v1.36h7.09V177.4Zm0,2.74v1.37h7.09v-1.37Z"/><path d="M648.92,175.59a10.43,10.43,0,0,1-2.74,3.28l-1-1.28a8.57,8.57,0,0,0,2.42-2.72Zm-3.78,9.3A10.34,10.34,0,0,0,649,181.4a19.9,19.9,0,0,0-2.22-1.63l1-1.12a12.82,12.82,0,0,1,2,1.31,11,11,0,0,0,.72-2.08l1.62.48a17,17,0,0,1-1,2.72,8.41,8.41,0,0,1,1.61,1.86l-1.18,1.23a15.19,15.19,0,0,0-1.3-1.57,13.19,13.19,0,0,1-4,3.71Zm6.76,0c2.14-1.94,3.2-3.2,3.42-8.87h-1.77v-1.63h-8.12v-1.55h3.49v-1.57h1.6v1.57h3v1.55h1.78v-3.12h1.55v3.12h3c-.12,7.06-.12,7.55-.4,9.38s-.49,2.46-1.9,2.46h-1.92l-.26-1.61h1.67c.48,0,.62-.19.81-1.35a53.78,53.78,0,0,0,.39-7.25h-1.44c-.21,5.28-1.09,7.72-3.75,10.21Zm-.23-10a9.89,9.89,0,0,1,2.26,2.58l-1.25,1a14.16,14.16,0,0,0-2.3-2.83Z"/><path d="M661.48,186.35a9.85,9.85,0,0,0,0-15.18h1.95a10.31,10.31,0,0,1,0,15.18Z"/><path d="M21.17,49.56h5l-4,3,1.55,5-4.24-3.05L15.24,57.6l1.56-5-4-3h5l1.69-5Z"/><path d="M26.89,46.87h4.75v1.25H26.89Zm.43-2h4v1.26h-4Zm0,4h4v1.26h-4Zm0,2.09h4v1.23h-4Zm0,2.09h4v4H28.57v.56H27.32Zm1.25,1.2v1.61h1.54V54.28Zm11.23-8H38.15V47h1.16v1H38.15v.8h1.92v1.09h-3.7v.7h3V54.3h.66v1.14h-.66v1.15c0,.87-.41,1-1.12,1H36.58l-.18-1.28h1.44c.32,0,.35-.09.35-.3v-.62h-4.8v2.2H32.18v-2.2h-.54V54.3h.54V50.61h3v-.7h-3.5V48.82H33.5V48H32.34V47H33.5v-.74H31.85V45.2H33.5v-.7h1.2v.7h2.2v-.7h1.25v.7H39.8Zm-6.41,5.39v.83h1.75v-.83Zm0,1.78v.86h1.75v-.86Zm1.31-7.17V47h2.2v-.74Zm0,1.75v.8h2.2V48Zm1.67,3.64v.83h1.82v-.83Zm0,1.78v.86h1.82v-.86Z"/><path d="M46.91,44.49h1.46V45.7H53.9v1.37H43.27v5A11.78,11.78,0,0,1,42,57.39l-1.24-1.16A8.66,8.66,0,0,0,41.85,52V45.7h5.06Zm1,3.12h1.38V53h4.16v1.25H49.31v1.61H54v1.32H43.27V55.82h4.66V54.21H43.87V53h4.06Zm-1.14,4.93A9.07,9.07,0,0,1,45.64,51a7,7,0,0,1-1.11,1.65l-1.09-.85a7.46,7.46,0,0,0,1.83-4.14l1.36.12a7.73,7.73,0,0,1-.38,1.73,7,7,0,0,0,1.47,2Zm6.41.1a10.3,10.3,0,0,1-1.69-1.76,7.93,7.93,0,0,1-1,1.69l-1.08-.84a9.07,9.07,0,0,0,1.66-4.2l1.37.17c-.11.53-.25,1.12-.45,1.76a7.37,7.37,0,0,0,2.09,2Z"/><path d="M55.43,45h5.33V49.7H56.81v7.93H55.43Zm1.41,1v.85h2.59V46Zm0,1.76v.89h2.59v-.89Zm2.49,5.41a2.26,2.26,0,0,0,0-.25V51.69H57.79V50.53h7.44v1.16H63.85v1.47h1.64v1.15H63.85v3.12H62.52V54.31h-2a5.15,5.15,0,0,1-2,3.09l-.93-1a3.89,3.89,0,0,0,1.54-2.1H57.49V53.16Zm3.19,0V51.69H60.65v1.47ZM62.16,45h5.39V56.44a1,1,0,0,1-1,1.19h-2l-.27-1.42h1.57c.24,0,.33-.08.33-.28V49.7h-4Zm1.37,1v.85h2.61V46Zm0,1.76v.89h2.61v-.89Z"/><path d="M70.42,46.93c0-.55.11-1.12.18-2.44l1.38.13c0,.74-.09,1.43-.19,2.31h2.27a24.48,24.48,0,0,1-1.17,6.62c.77.69,1,.94,1.38,1.28L73.3,56c-.34-.35-.63-.67-1.09-1.09a10.22,10.22,0,0,1-2.48,2.73l-1-1.22A6.89,6.89,0,0,0,71.14,54a13,13,0,0,0-2.07-1.47,20.8,20.8,0,0,0,1.18-4.19H68.93V46.93Zm1.17,1.37a28,28,0,0,1-.87,3.53,9.08,9.08,0,0,1,1,.76,15.24,15.24,0,0,0,.87-4.29Zm2.48.77,1,0a27,27,0,0,0,1.44-4.6l1.53.18a31.86,31.86,0,0,1-1.5,4.33c1.18-.07,1.39-.08,3.36-.25a15.32,15.32,0,0,0-1.15-1.75L80,46.21a19,19,0,0,1,2.29,3.94l-1.34.76c-.11-.3-.19-.56-.36-.94-1.16.18-5,.52-6.39.57Zm7.47,2.34v6.25h-1.4V57h-4v.7H74.76V51.41Zm-5.41,1.25v3h4v-3Z"/><path d="M21.67,65.47h1.61v2.71h2.41v1.46H23.28v1.15c0,.87-.15,3.49-2,5a9.88,9.88,0,0,1-4.53,1.78l-.66-1.45c1.36-.2,3.28-.56,4.4-1.7a5.49,5.49,0,0,0,1.13-3.63V69.64H17.19v3.64H15.58V69.64H13.21V68.18h2.37V65.55h1.61v2.63h4.48Z"/><path d="M25.91,75.92A7.79,7.79,0,0,0,28,70.66l1.52.17c-.26,3.32-.94,4.82-2.24,6.3Zm6.85-10.17V68h4.52v1.47H32.76v8.22h-1.6V69.43H26.31V68h4.85V65.75ZM36,70.58a9.5,9.5,0,0,0,2.15,5.5l-1.49,1a12.58,12.58,0,0,1-2.24-6.33Zm2.36-4.25a1.46,1.46,0,1,1-1.46-1.45A1.46,1.46,0,0,1,38.38,66.33Zm-2.13,0a.67.67,0,0,0,.67.68.68.68,0,0,0,0-1.35A.66.66,0,0,0,36.25,66.33Z"/><path d="M50.92,70.65v1.69H38.48V70.65Z"/><path d="M54.72,65.48v3.59a30.39,30.39,0,0,1,7,3L61,73.72a28.83,28.83,0,0,0-6.25-3v7.12H53V65.48Z"/><path d="M62.15,65.45h5.33V70.2h-4v7.93H62.15Zm1.41,1v.85h2.59v-.85Zm0,1.76v.89h2.59v-.89Zm2.49,5.41a2.26,2.26,0,0,0,0-.25V72.19H64.51V71H72v1.16H70.57v1.47h1.64v1.15H70.57v3.12H69.24V74.81h-2a5.15,5.15,0,0,1-2,3.09l-.93-1a3.89,3.89,0,0,0,1.54-2.1H64.21V73.66Zm3.19,0V72.19H67.37v1.47Zm-.36-8.21h5.39V76.94a1,1,0,0,1-1,1.19h-2L71,76.71h1.57c.24,0,.33-.08.33-.28V70.2h-4Zm1.37,1v.85h2.61v-.85Zm0,1.76v.89h2.61v-.89Z"/><path d="M75.73,67.43c.06-.55.12-1.12.19-2.44l1.38.13c0,.74-.09,1.43-.19,2.31h2.27a24.48,24.48,0,0,1-1.17,6.62c.77.69,1,.94,1.38,1.28l-1,1.19c-.34-.35-.63-.67-1.09-1.09a10.22,10.22,0,0,1-2.48,2.73l-1-1.22a6.89,6.89,0,0,0,2.36-2.48A13,13,0,0,0,74.39,73a20.8,20.8,0,0,0,1.18-4.19H74.25V67.43Zm1.18,1.37A28,28,0,0,1,76,72.33a9.08,9.08,0,0,1,1,.76A15.24,15.24,0,0,0,78,68.8Zm2.48.77,1,0a27,27,0,0,0,1.44-4.6l1.53.18a31.86,31.86,0,0,1-1.5,4.33c1.18-.07,1.39-.08,3.36-.25a15.32,15.32,0,0,0-1.15-1.75l1.22-.72a19,19,0,0,1,2.29,3.94l-1.34.76c-.11-.3-.19-.56-.36-.94-1.16.18-5,.52-6.39.57Zm7.47,2.34v6.25h-1.4v-.7h-4v.7H80.08V71.91Zm-5.41,1.25v3h4v-3Z"/><path d="M443.47,66.87h4.75v1.25h-4.75Zm.43-2h4v1.26h-4Zm0,4.05h4v1.26h-4Zm0,2.09h4v1.23h-4Zm0,2.09h4v4h-2.79v.56H443.9Zm1.25,1.2v1.61h1.54V74.28Zm11.24-8h-1.66V67h1.17v1h-1.17v.8h1.92v1.09H453v.7h3V74.3h.66v1.14H456v1.15c0,.87-.4,1-1.12,1h-1.71L453,76.36h1.44c.33,0,.35-.09.35-.3v-.62H450v2.2h-1.2v-2.2h-.55V74.3h.55V70.61h3v-.7h-3.5V68.82h1.86V68h-1.16V67h1.16v-.74h-1.65V65.2h1.65v-.7h1.21v.7h2.2v-.7h1.24v.7h1.66ZM450,71.66v.83h1.75v-.83Zm0,1.78v.86h1.75v-.86Zm1.32-7.17V67h2.2v-.74Zm0,1.75v.8h2.2V68ZM453,71.66v.83h1.82v-.83Zm0,1.78v.86h1.82v-.86Z"/><path d="M463.49,64.49H465V65.7h5.53v1.37H459.85v5.05a11.78,11.78,0,0,1-1.3,5.27l-1.23-1.16A8.77,8.77,0,0,0,458.44,72V65.7h5.05Zm1,3.12h1.37V73h4.16v1.25h-4.16v1.61h4.71v1.32H459.85V75.82h4.67V74.21h-4.07V73h4.07Zm-1.15,4.93A9.07,9.07,0,0,1,462.22,71a7,7,0,0,1-1.11,1.65L460,71.75a7.46,7.46,0,0,0,1.83-4.14l1.36.12a7.73,7.73,0,0,1-.38,1.73,7,7,0,0,0,1.48,2Zm6.41.1a10.3,10.3,0,0,1-1.69-1.76,7.93,7.93,0,0,1-1,1.69L466,71.73a9.07,9.07,0,0,0,1.66-4.2l1.37.17c-.11.53-.25,1.12-.45,1.76a7.37,7.37,0,0,0,2.09,2Z"/><path d="M473.12,72.81a14.71,14.71,0,0,1-.45,4l-1.23-.52a13.19,13.19,0,0,0,.49-3.45Zm3.55-.92-.66.25c-.06-.2-.09-.31-.18-.6l-.94.11v6h-1.32V71.75c-1.29.07-1.46.08-1.95.08l-.08-1.23h.83l.88-1.26a16.52,16.52,0,0,0-1.77-1.58l.58-1.14.36.24c.06-.08.79-1.36,1.31-2.42l1.31.46a23.84,23.84,0,0,1-1.65,2.73,7.45,7.45,0,0,1,.64.59c.79-1.22,1.11-1.79,1.35-2.24l1.25.43a34.68,34.68,0,0,1-2.82,4.14l1.65-.07c-.12-.38-.21-.56-.33-.87l1-.42a14.6,14.6,0,0,1,.89,2,9.29,9.29,0,0,0,2.39-1.15,9,9,0,0,1-1.39-1.76,6.88,6.88,0,0,1-1,.77l-.84-1a7.58,7.58,0,0,0,2.7-3.7l1.55.21a4.71,4.71,0,0,1-.44,1.12H484V67a8.37,8.37,0,0,1-2.24,3.14,12.49,12.49,0,0,0,3.1,1.26l-.76,1.44a11.54,11.54,0,0,1-3.53-1.76,15.26,15.26,0,0,1-3.4,1.76Zm-.31.81a16.83,16.83,0,0,1,.49,3l-1.19.18a18,18,0,0,0-.34-3.07Zm1.43,2a34.27,34.27,0,0,1,5.94,1.67l-.7,1.4a31.39,31.39,0,0,0-5.69-1.73Zm1.72-2.65a32.13,32.13,0,0,1,3.33,1.54l-.72,1.28a28.43,28.43,0,0,0-3.37-1.63ZM479.26,67a6.66,6.66,0,0,1-.42.52,7.21,7.21,0,0,0,1.66,1.79A9,9,0,0,0,482.38,67Z"/><path d="M485.6,65h12.58v1.48a13.27,13.27,0,0,1-5.4,3.67v6.27c0,1.18-.57,1.23-1.31,1.23h-2.76l-.31-1.52h2.38c.29,0,.48-.1.48-.47v-7.2h1.55a8.15,8.15,0,0,0,3.08-2H485.6Z"/><path d="M963.25,65h1.61v2.71h2.41v1.46h-2.41v1.15c0,.87-.15,3.49-1.94,5a9.91,9.91,0,0,1-4.54,1.78l-.66-1.45c1.36-.2,3.28-.56,4.4-1.7a5.49,5.49,0,0,0,1.13-3.63V69.14h-4.48v3.64h-1.61V69.14h-2.37V67.68h2.37V65.05h1.61v2.63h4.48Z"/><path d="M968.89,75.42A7.79,7.79,0,0,0,971,70.16l1.52.17c-.26,3.32-.93,4.82-2.24,6.3Zm6.85-10.17v2.21h4.52v1.47h-4.52v8.22h-1.6V68.93H969.3V67.46h4.84V65.25ZM979,70.08a9.5,9.5,0,0,0,2.15,5.5l-1.49,1a12.58,12.58,0,0,1-2.24-6.33Zm2.36-4.25a1.46,1.46,0,1,1-1.46-1.45A1.46,1.46,0,0,1,981.36,65.83Zm-2.13,0a.67.67,0,0,0,.67.68.68.68,0,0,0,0-1.35A.66.66,0,0,0,979.23,65.83Z"/><path d="M995.3,70.15v1.69H982.86V70.15Z"/><path d="M1002.18,65v3.59a30.39,30.39,0,0,1,7,3l-.76,1.61a28.83,28.83,0,0,0-6.25-3v7.12h-1.68V65Z"/><path d="M1012.12,72.81a15.13,15.13,0,0,1-.45,4l-1.23-.52a13.19,13.19,0,0,0,.49-3.45Zm3.55-.92-.66.25-.18-.6-.94.11v6h-1.32V71.75c-1.29.07-1.46.08-2,.08l-.08-1.23h.83l.88-1.26a16.52,16.52,0,0,0-1.77-1.58l.58-1.14.36.24c.06-.08.79-1.36,1.31-2.42l1.31.46a23.84,23.84,0,0,1-1.65,2.73,7.45,7.45,0,0,1,.64.59c.79-1.22,1.11-1.79,1.35-2.24l1.25.43a34.68,34.68,0,0,1-2.82,4.14l1.65-.07c-.12-.38-.21-.56-.33-.87l1-.42a13.85,13.85,0,0,1,.88,2,9.23,9.23,0,0,0,2.4-1.15,9,9,0,0,1-1.39-1.76,7.52,7.52,0,0,1-1,.77l-.84-1a7.58,7.58,0,0,0,2.7-3.7l1.55.21a4.71,4.71,0,0,1-.44,1.12H1023V67a8.37,8.37,0,0,1-2.24,3.14,12.62,12.62,0,0,0,3.09,1.26l-.75,1.44a11.54,11.54,0,0,1-3.53-1.76,15.26,15.26,0,0,1-3.4,1.76Zm-.31.81a16.83,16.83,0,0,1,.49,3l-1.19.18a18,18,0,0,0-.34-3.07Zm1.43,2a34.27,34.27,0,0,1,5.94,1.67l-.7,1.4a31.39,31.39,0,0,0-5.69-1.73Zm1.72-2.65a32.13,32.13,0,0,1,3.33,1.54l-.72,1.28a28.43,28.43,0,0,0-3.37-1.63Zm-.25-5.11a6.66,6.66,0,0,1-.42.52,7.21,7.21,0,0,0,1.66,1.79,9,9,0,0,0,1.88-2.31Z"/><path d="M1024.6,65h12.57v1.48a13.17,13.17,0,0,1-5.39,3.67v6.27c0,1.18-.57,1.23-1.32,1.23h-2.75l-.31-1.52h2.38c.29,0,.47-.1.47-.47v-7.2h1.56a8.23,8.23,0,0,0,3.08-2H1024.6Z"/><path d="M16.68,15.52h6.7V12.85H25v2.67h6.71v1.64h-6a15,15,0,0,0,6.16,6.43L31,25.38a18.3,18.3,0,0,1-6-6.85v5.09h3.3v1.6H25V27.9H23.38V25.22H20.17v-1.6h3.21V18.53a18.07,18.07,0,0,1-5.94,6.85l-1-1.6a16.12,16.12,0,0,0,6.16-6.62h-6Z"/><path d="M32.67,15.57h5.42V17H32.67Zm.5-2.3h4.6v1.44h-4.6Zm0,4.62h4.6v1.44h-4.6Zm0,2.39h4.6v1.41h-4.6Zm0,2.38h4.6v4.58H34.59v.64H33.17ZM34.59,24v1.84h1.76V24Zm12.84-9.16H45.54v.85h1.33v1.15H45.54v.92h2.19v1.25H43.51v.8H47v4.21h.75v1.31H47v1.31c0,1-.47,1.2-1.28,1.2h-2l-.21-1.47h1.65c.36,0,.4-.1.4-.34v-.7H40.1v2.51H38.72V25.37h-.63V24.06h.63V19.85H42.1v-.8h-4V17.8h2.13v-.92H38.9V15.73h1.32v-.85H38.33V13.67h1.89v-.8H41.6v.8h2.51v-.8h1.43v.8h1.89ZM40.1,21.05V22h2v-.94Zm0,2v1h2v-1Zm1.5-8.2v.85h2.51v-.85Zm0,2v.92h2.51v-.92Zm1.91,4.17V22h2.08v-.94Zm0,2v1h2.08v-1Z"/><path d="M55.55,12.85h1.67v1.38h6.32V15.8H51.39v5.77a13.54,13.54,0,0,1-1.49,6l-1.41-1.33a9.86,9.86,0,0,0,1.28-4.83v-7.2h5.78Zm1.17,3.57h1.57v6.12H63V24H58.29V25.8h5.38v1.5H51.39V25.8h5.33V24H52.08V22.54h4.64Zm-1.31,5.63a10,10,0,0,1-1.32-1.82,7.75,7.75,0,0,1-1.26,1.89l-1.25-1a8.49,8.49,0,0,0,2.1-4.72l1.55.13a9.42,9.42,0,0,1-.43,2,7.94,7.94,0,0,0,1.68,2.28Zm7.33.12a11.55,11.55,0,0,1-1.94-2,9.27,9.27,0,0,1-1.13,1.94l-1.24-1a10.32,10.32,0,0,0,1.89-4.81l1.57.2c-.13.61-.29,1.28-.51,2a8.73,8.73,0,0,0,2.38,2.28Z"/><path d="M71.47,19.43v-5h1.47v5h5V20.9h-5v5H71.47v-5h-5V19.43Z"/><path d="M90.71,13.4h1.84v3.1H95.3v1.67H92.55v1.31c0,1-.18,4-2.23,5.73a11.46,11.46,0,0,1-5.19,2l-.75-1.66c1.56-.23,3.75-.64,5-1.94s1.3-3.3,1.3-4.15V18.17H85.58v4.16H83.74V18.17H81V16.5h2.7v-3h1.84v3h5.13Z"/><path d="M97.15,25.34a8.85,8.85,0,0,0,2.38-6l1.75.2c-.31,3.79-1.07,5.5-2.56,7.2ZM105,13.72v2.52h5.17v1.69H105v9.39h-1.83V17.93H97.61V16.24h5.54V13.72Zm3.73,5.52a10.81,10.81,0,0,0,2.44,6.29l-1.69,1.18a14.24,14.24,0,0,1-2.56-7.23Zm2.68-4.85a1.66,1.66,0,1,1-1.66-1.67A1.66,1.66,0,0,1,111.39,14.39Zm-2.43,0a.77.77,0,1,0,.77-.77A.76.76,0,0,0,109,14.39Z"/><path d="M127.33,19.32v1.94H113.12V19.32Z"/><path d="M135.2,13.41v4.1a35.2,35.2,0,0,1,8,3.47l-.86,1.84a33.1,33.1,0,0,0-7.14-3.41v8.14h-1.92V13.41Z"/><path d="M151.5,25.46c1.91-.08,5.81-.25,5.81-5.21a4.12,4.12,0,0,0-4.21-4.42c-.25,2.66-.52,5.52-1.74,7.81-.27.5-1.22,2.26-3.07,2.26-2.1,0-3.16-2.4-3.16-4.64,0-3.86,2.72-7.11,7.48-7.11,5.31,0,6.7,3.65,6.7,6.27,0,6.36-5.68,6.66-7.34,6.74Zm-4.62-4c0,1.72.67,2.64,1.47,2.64,2.15,0,2.77-6,2.93-8.23C147.45,16.58,146.88,20.09,146.88,21.5Z"/><path d="M164.13,24.47a10.79,10.79,0,0,1-2.55,3.44l-1.1-1.23a10.84,10.84,0,0,0,2.19-2.85Zm-2.31-11.6h1.52v1.44h3V12.87h1.52v1.44h.95v1.52h-.95v6.29h.95v1.47h-8.23V22.12h1.2V15.83h-.91V14.31h.91Zm1.52,3V17h3V15.83Zm0,2.48v1.18h3V18.31Zm0,2.46v1.35h3V20.77Zm2.91,3.08a8.14,8.14,0,0,1,1.65,2l-1.16,1a15.92,15.92,0,0,0-1.59-2.21Zm7.38-.67h-2.88a10.59,10.59,0,0,1-1.9,4.73l-1.39-1.08c1.13-1.61,2-3.13,2-8.26V13.36h5.73V26.63c0,1.28-.87,1.28-1.36,1.28h-2.05l-.26-1.61h1.57c.37,0,.51-.13.51-.48ZM171,19l-.11,2.64h2.7V19Zm0-4.13v2.64h2.59V14.87Z"/><path d="M177.28,13.52h6.08v5.85h-4.5v8.51h-1.58Zm1.58,1.32v1.05h2.95V14.84Zm0,2.14V18h2.95V17Zm9,3.3v5.94h-7.43V20.28ZM182,21.57v1.11h4.4V21.57Zm0,2.18V24.9h4.4V23.75Zm7.55-4.38h-4.74V13.52h6.34V26.38c0,.45,0,1.5-1.07,1.5H187.6l-.25-1.6h1.8c.2,0,.37-.06.37-.38Zm-3.18-4.53v1.05h3.18V14.84Zm0,2.14V18h3.18V17Z"/><path d="M547.71,13.4h1.83v3.1h2.76v1.67h-2.76v1.31c0,1-.17,4-2.22,5.73a11.46,11.46,0,0,1-5.19,2l-.75-1.66c1.56-.23,3.75-.64,5-1.94s1.3-3.3,1.3-4.15V18.17h-5.13v4.16h-1.84V18.17H538V16.5h2.7v-3h1.84v3h5.13Z"/><path d="M554.15,25.34a8.85,8.85,0,0,0,2.38-6l1.75.2c-.31,3.79-1.07,5.5-2.56,7.2ZM562,13.72v2.52h5.17v1.69H562v9.39h-1.83V17.93h-5.54V16.24h5.54V13.72Zm3.73,5.52a10.81,10.81,0,0,0,2.44,6.29l-1.69,1.18a14.34,14.34,0,0,1-2.56-7.23Zm2.68-4.85a1.66,1.66,0,1,1-1.66-1.67A1.66,1.66,0,0,1,568.39,14.39Zm-2.43,0a.77.77,0,1,0,.77-.77A.76.76,0,0,0,566,14.39Z"/><path d="M584.33,19.32v1.94H570.12V19.32Z"/><path d="M592.2,13.41v4.1a35.2,35.2,0,0,1,8,3.47l-.86,1.84a33.33,33.33,0,0,0-7.14-3.41v8.14h-1.92V13.41Z"/><path d="M608.5,25.46c1.91-.08,5.81-.25,5.81-5.21a4.12,4.12,0,0,0-4.21-4.42c-.25,2.66-.52,5.52-1.74,7.81-.27.5-1.22,2.26-3.07,2.26-2.1,0-3.16-2.4-3.16-4.64,0-3.86,2.72-7.11,7.48-7.11,5.31,0,6.7,3.65,6.7,6.27,0,6.36-5.68,6.66-7.34,6.74Zm-4.62-4c0,1.72.67,2.64,1.47,2.64,2.15,0,2.77-6,2.93-8.23C604.45,16.58,603.88,20.09,603.88,21.5Z"/><path d="M631,16.52c-.2,1.92-.34,2.7-.53,3.79a10.9,10.9,0,0,1,2,.9L631.88,23c-.4-.22-1.17-.62-1.84-.91a7,7,0,0,1-4.54,5.14l-1.08-1.39c1.68-.55,3.11-1.28,3.94-4.4a17.09,17.09,0,0,0-3.34-.76A11.78,11.78,0,0,1,623.13,25a3,3,0,0,1-2.4,1.16,2.69,2.69,0,0,1-2.6-2.88c0-2.24,2.16-4.21,5.48-4.3a26.86,26.86,0,0,0,.4-3.49h-4.87V13.84H626c0,.26,0,.5-.27,2.64-.1.95-.27,2-.38,2.57a17.35,17.35,0,0,1,3.39.7,25,25,0,0,0,.38-3.43ZM619.8,23.37c0,.81.45,1.18,1,1.18,1.49,0,2.21-2.78,2.52-4.05C620.28,20.69,619.8,22.63,619.8,23.37Z"/><path d="M640.5,25.46c1.91-.08,5.81-.25,5.81-5.21a4.12,4.12,0,0,0-4.21-4.42c-.25,2.66-.52,5.52-1.74,7.81-.27.5-1.22,2.26-3.07,2.26-2.1,0-3.16-2.4-3.16-4.64,0-3.86,2.72-7.11,7.48-7.11,5.31,0,6.7,3.65,6.7,6.27,0,6.36-5.68,6.66-7.34,6.74Zm-4.62-4c0,1.72.67,2.64,1.47,2.64,2.15,0,2.77-6,2.93-8.23C636.45,16.58,635.88,20.09,635.88,21.5Z"/><path d="M653.13,24.47a10.79,10.79,0,0,1-2.55,3.44l-1.1-1.23a10.84,10.84,0,0,0,2.19-2.85Zm-2.31-11.6h1.52v1.44h3V12.87h1.52v1.44h1v1.52h-1v6.29h1v1.47h-8.23V22.12h1.2V15.83h-.91V14.31h.91Zm1.52,3V17h3V15.83Zm0,2.48v1.18h3V18.31Zm0,2.46v1.35h3V20.77Zm2.91,3.08a8.14,8.14,0,0,1,1.65,2l-1.16,1a15.92,15.92,0,0,0-1.59-2.21Zm7.38-.67h-2.88a10.59,10.59,0,0,1-1.9,4.73l-1.39-1.08c1.13-1.61,2-3.13,2-8.26V13.36h5.73V26.63c0,1.28-.87,1.28-1.36,1.28h-2.05l-.26-1.61h1.57c.37,0,.51-.13.51-.48ZM660,19l-.11,2.64h2.7V19Zm0-4.13v2.64h2.59V14.87Z"/><path d="M666.28,13.52h6.08v5.85h-4.5v8.51h-1.58Zm1.58,1.32v1.05h2.95V14.84Zm0,2.14V18h2.95V17Zm9,3.3v5.94h-7.43V20.28ZM671,21.57v1.11h4.4V21.57Zm0,2.18V24.9h4.4V23.75Zm7.55-4.38h-4.74V13.52h6.34V26.38c0,.45,0,1.5-1.07,1.5H676.6l-.25-1.6h1.8c.2,0,.37-.06.37-.38Zm-3.18-4.53v1.05h3.18V14.84Zm0,2.14V18h3.18V17Z"/></svg>