<svg id="レイヤー_1" data-name="レイヤー 1" xmlns="http://www.w3.org/2000/svg" viewBox="0 0 331.2 256.97"><path d="M119.61,221.17c3.22.15,7.93-7.79,8.76-9.23C124.87,213,116.07,221,119.61,221.17Z" transform="translate(-1.46 -1.61)" style="fill:none"/><path d="M128.37,211.94h0a.9.9,0,0,0,.35-.21l-.21,0S128.46,211.79,128.37,211.94Z" transform="translate(-1.46 -1.61)" style="fill:none"/><path d="M209.07,211.09c-2-1.1-5.81,6-5.81,6C206.74,215.2,210.52,211.88,209.07,211.09Z" transform="translate(-1.46 -1.61)" style="fill:none"/><path d="M196.41,169.79c.06-.73-.56-.45-1.11-.5C191.75,169,179,196.52,179,196.52,184.78,191,196,174.89,196.41,169.79Z" transform="translate(-1.46 -1.61)" style="fill:none"/><path d="M281.05,256.56c3.38,1.89,9.19-2.19,12.17-6.61,4.82-7.17,16.95-24.16,16.95-24.16s-19,11.88-27.28,21.27C279.15,251.31,279.34,255.61,281.05,256.56Z" transform="translate(-1.46 -1.61)" style="fill:none"/><path d="M106.16,226.31c-3.87,1.87-7.09,2.37-9,.77-2.86-2.41-3.22-6.27-2-10.69a59.9,59.9,0,0,1,3.58-8.59c3.14-6.68,6.11-13,4.25-16.77a4.9,4.9,0,0,0-3.9-2.65c-6.55-1-16.84,7.35-23.67,13.77,6.87-8.76,14.63-23.08,14.3-35.42-.15-5.22-2.35-9.07-6.37-11.13-5.64-2.89-13.78-1.75-19.07-.14v0l-.17.07a5.08,5.08,0,0,0,.36-.75c2.67-7.26,4.49-24.46,4.49-24.46.36-3.05-2.52,0-2.52,0s-1.82,17.2-4.49,24.46c-.49,1.33-3.1,2.75-6.84,4.52C25.26,173.37,8.73,200.53,5.58,206.1c-4,7.1-6.79,19.44,0,23.37A8.81,8.81,0,0,0,10,230.62c7,0,16.11-7.1,28.62-22.33,14.06-17.13,23.88-47.52,24.3-48.81l.49-1.56c7.15-2.49,23.69-5.06,24.07,9.06C88,183.27,73,203.85,67,207.74c-9.67,6.82-16.66,16.58-16,20.35a2.16,2.16,0,0,0,1.86,1.85l.22,0h.16c1.21,0,3.47,0,16.69-19.44,3.32-3.7,20.53-21.27,28.58-20S95.19,207.92,93,216s.63,18.88,13.83,12.25a31.11,31.11,0,0,0,10.82-8.78l.58-2.94C115.88,219.2,111.46,223.74,106.16,226.31ZM37,207C23.11,224,13,231.15,6.8,227.59,1.18,224.35,4,213,7.43,207s21.3-35.18,53.47-48C60.9,159,51,190.06,37,207Zm16.35,20.8a.29.29,0,0,1-.26-.27c-.39-2.35,5.55-11.4,15-18.05l.09-.06h0C56.78,226.22,54,227.7,53.39,227.82Z" transform="translate(-1.46 -1.61)" style="fill:#fff"/><path d="M262.67,201.53c-2.1,1.26-5.42,2.89-6,4.05s-2.57,1.52,4.4-.85S267,198.9,262.67,201.53Z" transform="translate(-1.46 -1.61)" style="fill:#fff"/><path d="M331.41,210.6c-6.66,3.57-16.3,9.68-16.3,9.68s3.1-6.44,4.2-9.69c1-2.84-1.83-1-1.83-1s-1.79,6.44-4.29,8.19a32.13,32.13,0,0,1-4.94,2.9c-4.51,2-3.52-2.75.45-5.09,3.25-1.91,7.46-3.09,8.3-4.28,1.67-2.35-8.05,2.22-10.59,3.75-1.44.87-8,5.26-8,5.26-8.19,4.9-12.27,2.44-10.35-1.07,1.19-2.17,3.5-5.94-.07-6.1a8.89,8.89,0,0,0-3.6.95c-3.77,1.58-10.75,8.87-9.13,6.93a20.39,20.39,0,0,0,3-8.12c.63-4.91-8.57,2.17-11.27,4.18s-8.87,4.91-11.63,5,.32-5.82,2.21-9.65-1.76-2.7-1.76-2.7c-4.28,5.36-15.13,8.88-20,10.69-8.64,3.17-5.93-1.95-.38-14.1,1.17-2.56,4.39-6,5.74-8.38,6.11-.39,11.18-.76,15.14-.87,5.39-.15,23-1,25.38-1.26s3.13-1.34-8.76-1.55c-5.73-.1-18.14.54-30.37,1.26,4.65-7.9,8.65-12.23,8.89-13.11.33-1.24-.46-6.51-2.69-4.82-1.69,1.28-6.21,10.29-10,18.16-11.57.7-22.18,1.41-22.18,1.41-3.77,2.27,8.72,1.76,21,1a50.49,50.49,0,0,1-3.29,4.9c-3.54,5.57-11,11.3-16.37,14-6.47,3.3-11.55,5-13.63,4.68-2.68-.41-1.78-2.55-1.78-2.55,8.4-4.07,9.76-9.07,8.37-9.73-5.11-2.45-9.11,5.89-10.47,8.8,0,0-.51.28-.91.48-3.38,1.7-12.39,5.48-16,.82a12.58,12.58,0,0,1-1.83-3.5s6.89-.36,12.23-8.73c2.54-4-1-9.21-6.49-6.67s-12.54,10.78-14.44,13a35.9,35.9,0,0,1-7,6.35s7.06-13.44,8-14.93a22.14,22.14,0,0,1,2.29-3c1.26-1.39,3.35-4,4.53-5.19,5.88-5.67,18.5-22,17.76-28.16-.21-1.75-3.1-2.21-4.89-1.27-3.28,1.72-9.58,12.75-17.31,29.08-1.23,1.67-2.85,6-5.39,9.18a76.1,76.1,0,0,1-11.7,11.48c-3.17,2.81-6.93,5.32-8.64,3.85-.73-.82.56-2.89,1.4-4.68,1.59-3.36.27-2.62-1.74-3.54a1.67,1.67,0,0,1-.67-2.48c.53-.72-.54-1.18-1.22-1.31-.48-.09-1.19.67-2.3,2.32a42.76,42.76,0,0,1-7.08,7.78c-4,3.15-6.74,2.69-8,2a5,5,0,0,1-2.22-3.72C128.56,216.38,131,214,131,214s-1.09-2.1-2.31-2.26a.9.9,0,0,1-.35.21h0c-.83,1.44-5.54,9.38-8.76,9.23-3.54-.17,5.26-8.22,8.76-9.23.09-.15.14-.25.14-.25l.21,0c.78-.62,1.6-2.71.56-2.73l-2,.83c-3,1.44-8.09,4.61-10,8.2a7.77,7.77,0,0,0-.6,2.82,3.39,3.39,0,0,0,3.21,2.47,4.43,4.43,0,0,0,1-.06c2.18-.4,4.38-2.7,6.12-5.07,0,0,.46,4.47,4.75,5.43,3.36.76,6.39-.81,8.65-2.78,2-1.72,6.86-6.94,7.52-7.8.34-.43.55,1.17,1,1.41.79.41,1.77-.12,1.2.76-.91,1.42-3.35,6.21,0,8.08s6.79-1.43,9.08-3.05c.28-.16,2.9-2.61,3-2.7a54.55,54.55,0,0,0,6.21-6.34s-3.11,6.37-4.67,9.39a13.88,13.88,0,0,0-1,2.42s2.08,1.49,5.62-1.45c4.15-3.45,12.58-13,15-15.48,4.18-4.22,10-5.69,8.59-.65-1.67,5.93-9,9-13,9.31,0,0,1.1,4.36,2.89,6.28,3.69,4,11.92,3.17,18.1-.66.35,5,8,3.24,15.46-.15a59.55,59.55,0,0,0,16-10.38s-5.49,11.38-3,13.41c1.95,1.58,6.38-.28,10.68-1.8,10.48-3.72,15.68-7.71,15.68-7.71-.4.91-5.7,10.17,0,10.3,3.21.07,11.58-4.6,13.71-6s7.18-5,7.17-3.91c0,1.63-2.74,7.44-3.38,8.61-.74,1.37.47,1.14,2.88.44,1.82-.52,6.13-5.25,8.33-6.39.72-.37,2.86-1.31,3.56-1,.49.2-3.64,5.21-1,7.77,2.88,2.84,9.14.54,13-1.59.68-.37,4.52-2.91,4.52-2.91s-1.73,4.05,2,4.2c2.07.08,7.92-3.67,7.92-3.67s-.87,2.48-2.09,3.26-23.21,14.52-30.29,23.43c-5.88,7.41-3,13.3,3.25,12.25,4.38-.73,8.52-4.09,12.72-10.57C301.65,241,314,223.5,314,223.5s6.71-4.43,15.38-9.89C330.48,212.94,334.75,208.8,331.41,210.6Zm-82.62-29.19c1,1.1-6,10.51-6,10.51S248.2,180.74,248.79,181.41Zm-39.72,29.68c1.45.79-2.33,4.11-5.81,6C203.26,217.13,207,210,209.07,211.09Zm-13.77-41.8c.55.05.87.35.81,1.07-.44,5.1-10.77,19.42-16.57,25C179.54,195.33,191.75,169,195.3,169.29ZM293.22,250c-3,4.42-8.79,8.5-12.17,6.61-1.71-.95-1.9-5.25,1.84-9.5,8.25-9.39,27.28-21.27,27.28-21.27S298,242.78,293.22,250Z" transform="translate(-1.46 -1.61)" style="fill:#fff"/><path d="M293.22,5.41A15.67,15.67,0,0,0,283,1.61,21.83,21.83,0,0,0,275.5,3a16.21,16.21,0,0,0-6.4,4.36L159.78,126.4,50.76,7.65c-3.13-3.55-7-5.92-11.83-5.92A14.83,14.83,0,0,0,24.1,16.56c0,4.27,2.06,7.53,4.7,10.81l24,27.29,95.86,102.06a14.35,14.35,0,0,0,11.09,4.61,15,15,0,0,0,11.12-4.61L266.75,54.66V161.33h31V16.5C297.73,11.59,296.19,7.91,293.22,5.41Z" transform="translate(-1.46 -1.61)" style="fill:#fff"/></svg>